RecursiveMonoVar-CasualBold.ufo
<glyph name="exclam" format="1">
  <advance width="600"/>
  <unicode hex="0021"/>
  <outline>
    <contour>
      <point x="354" y="281" type="line"/>
      <point x="368" y="349"/>
      <point x="380" y="451"/>
      <point x="380" y="519" type="curve"/>
      <point x="380" y="646" type="line" smooth="yes"/>
      <point x="380" y="691"/>
      <point x="332" y="710"/>
      <point x="267" y="710" type="curve" smooth="yes"/>
      <point x="244" y="710"/>
      <point x="227" y="709"/>
      <point x="207" y="704" type="curve"/>
      <point x="216" y="668"/>
      <point x="219" y="631"/>
      <point x="219" y="592" type="curve" smooth="yes"/>
      <point x="219" y="524" type="line"/>
      <point x="219" y="437"/>
      <point x="231" y="330"/>
      <point x="251" y="309" type="curve" smooth="yes"/>
      <point x="269" y="292"/>
      <point x="298" y="281"/>
      <point x="341" y="281" type="curve"/>
    </contour>
    <contour>
      <point x="397" y="-3" type="curve"/>
      <point x="397" y="123" type="line" smooth="yes"/>
      <point x="397" y="181"/>
      <point x="336" y="192"/>
      <point x="277" y="192" type="curve" smooth="yes"/>
      <point x="254" y="192"/>
      <point x="226" y="190"/>
      <point x="203" y="185" type="curve"/>
      <point x="203" y="59" type="line" smooth="yes"/>
      <point x="203" y="1"/>
      <point x="264" y="-10"/>
      <point x="323" y="-10" type="curve" smooth="yes"/>
      <point x="346" y="-10"/>
      <point x="374" y="-7"/>
    </contour>
  </outline>
</glyph>
<glyph name="quotedbl" format="1">
  <advance width="600"/>
  <unicode hex="0022"/>
  <outline>
    <contour>
      <point x="240" y="445" type="curve"/>
      <point x="253" y="646" type="line" smooth="yes"/>
      <point x="259" y="720"/>
      <point x="221" y="754"/>
      <point x="134" y="754" type="curve" smooth="yes"/>
      <point x="119" y="754"/>
      <point x="104" y="753"/>
      <point x="90" y="750" type="curve"/>
      <point x="99" y="725"/>
      <point x="103" y="700"/>
      <point x="107" y="647" type="curve" smooth="yes"/>
      <point x="117" y="497" type="line" smooth="yes"/>
      <point x="120" y="455"/>
      <point x="140" y="440"/>
      <point x="190" y="440" type="curve" smooth="yes"/>
      <point x="210" y="440"/>
      <point x="227" y="441"/>
    </contour>
    <contour>
      <point x="476" y="445" type="curve"/>
      <point x="492" y="644" type="line" smooth="yes"/>
      <point x="498" y="720"/>
      <point x="460" y="754"/>
      <point x="383" y="754" type="curve" smooth="yes"/>
      <point x="366" y="754"/>
      <point x="354" y="753"/>
      <point x="339" y="751" type="curve"/>
      <point x="356" y="497" type="line"/>
      <point x="359" y="455"/>
      <point x="379" y="440"/>
      <point x="429" y="440" type="curve" smooth="yes"/>
      <point x="449" y="440"/>
      <point x="464" y="441"/>
    </contour>
  </outline>
</glyph>
<glyph name="numbersign" format="1">
  <advance width="600"/>
  <unicode hex="0023"/>
  <outline>
    <contour>
      <point x="177" y="715" type="curve"/>
      <point x="177" y="513"/>
      <point x="149" y="240"/>
      <point x="41" y="-9" type="curve"/>
      <point x="52" y="-16"/>
      <point x="63" y="-20"/>
      <point x="88" y="-20" type="curve"/>
      <point x="123" y="-20"/>
      <point x="146" y="-13"/>
      <point x="155" y="9" type="curve" smooth="yes"/>
      <point x="257" y="258"/>
      <point x="283" y="495"/>
      <point x="283" y="688" type="curve" smooth="yes"/>
      <point x="283" y="711"/>
      <point x="258" y="720"/>
      <point x="220" y="720" type="curve" smooth="yes"/>
      <point x="206" y="720"/>
      <point x="190" y="719"/>
    </contour>
    <contour>
      <point x="401" y="715" type="curve"/>
      <point x="401" y="514"/>
      <point x="373" y="240"/>
      <point x="265" y="-9" type="curve"/>
      <point x="276" y="-16"/>
      <point x="287" y="-20"/>
      <point x="312" y="-20" type="curve"/>
      <point x="347" y="-20"/>
      <point x="370" y="-13"/>
      <point x="379" y="9" type="curve" smooth="yes"/>
      <point x="481" y="258"/>
      <point x="507" y="495"/>
      <point x="507" y="688" type="curve" smooth="yes"/>
      <point x="507" y="711"/>
      <point x="482" y="720"/>
      <point x="444" y="720" type="curve" smooth="yes"/>
      <point x="430" y="720"/>
      <point x="414" y="719"/>
    </contour>
    <contour>
      <point x="585" y="425" type="line"/>
      <point x="585" y="431"/>
      <point x="585" y="436"/>
      <point x="585" y="443" type="curve" smooth="yes"/>
      <point x="585" y="485"/>
      <point x="576" y="509"/>
      <point x="561" y="524" type="curve" smooth="yes"/>
      <point x="548" y="537"/>
      <point x="531" y="541"/>
      <point x="492" y="541" type="curve"/>
      <point x="53" y="541" type="line"/>
      <point x="49" y="524"/>
      <point x="47" y="504"/>
      <point x="47" y="488" type="curve" smooth="yes"/>
      <point x="47" y="441"/>
      <point x="62" y="425"/>
      <point x="111" y="425" type="curve"/>
    </contour>
    <contour>
      <point x="15" y="275" type="line"/>
      <point x="15" y="269"/>
      <point x="15" y="264"/>
      <point x="15" y="257" type="curve" smooth="yes"/>
      <point x="15" y="215"/>
      <point x="24" y="191"/>
      <point x="39" y="176" type="curve" smooth="yes"/>
      <point x="52" y="163"/>
      <point x="69" y="159"/>
      <point x="108" y="159" type="curve"/>
      <point x="547" y="159" type="line"/>
      <point x="551" y="176"/>
      <point x="553" y="196"/>
      <point x="553" y="212" type="curve" smooth="yes"/>
      <point x="553" y="258"/>
      <point x="538" y="275"/>
      <point x="489" y="275" type="curve"/>
    </contour>
  </outline>
</glyph>
<glyph name="dollar" format="1">
  <advance width="600"/>
  <unicode hex="0024"/>
  <outline>
    <contour>
      <point x="369" y="720" type="curve" smooth="yes"/>
      <point x="203" y="720"/>
      <point x="73" y="622"/>
      <point x="73" y="498" type="curve" smooth="yes"/>
      <point x="73" y="486" type="line" smooth="yes"/>
      <point x="73" y="459"/>
      <point x="136" y="428"/>
      <point x="206" y="427" type="curve"/>
      <point x="199" y="449"/>
      <point x="198" y="475"/>
      <point x="198" y="496" type="curve" smooth="yes"/>
      <point x="198" y="556"/>
      <point x="294" y="587"/>
      <point x="377" y="587" type="curve" smooth="yes"/>
      <point x="439" y="587"/>
      <point x="477" y="575"/>
      <point x="512" y="549" type="curve"/>
      <point x="516" y="549" type="line"/>
      <point x="528" y="574"/>
      <point x="534" y="599"/>
      <point x="534" y="619" type="curve" smooth="yes"/>
      <point x="534" y="644"/>
      <point x="532" y="665"/>
      <point x="512" y="685" type="curve" smooth="yes"/>
      <point x="490" y="706"/>
      <point x="439" y="720"/>
    </contour>
    <contour>
      <point x="389" y="373" type="curve" smooth="yes"/>
      <point x="296" y="406" type="line" smooth="yes"/>
      <point x="217" y="435"/>
      <point x="198" y="461"/>
      <point x="198" y="496" type="curve" smooth="yes"/>
      <point x="198" y="525"/>
      <point x="200" y="545"/>
      <point x="208" y="567" type="curve"/>
      <point x="136" y="564"/>
      <point x="73" y="544"/>
      <point x="73" y="486" type="curve" smooth="yes"/>
      <point x="73" y="421"/>
      <point x="103" y="353"/>
      <point x="255" y="297" type="curve" smooth="yes"/>
      <point x="346" y="263" type="line" smooth="yes"/>
      <point x="414" y="238"/>
      <point x="439" y="209"/>
      <point x="439" y="147" type="curve" smooth="yes"/>
      <point x="439" y="130"/>
      <point x="439" y="126"/>
      <point x="439" y="122" type="curve"/>
      <point x="490" y="123"/>
      <point x="554" y="161"/>
      <point x="554" y="193" type="curve"/>
      <point x="554" y="248"/>
      <point x="516" y="326"/>
    </contour>
    <contour>
      <point x="300" y="-19" type="curve" smooth="yes"/>
      <point x="466" y="-19"/>
      <point x="554" y="68"/>
      <point x="554" y="179" type="curve" smooth="yes"/>
      <point x="554" y="193" type="line" smooth="yes"/>
      <point x="554" y="210"/>
      <point x="507" y="238"/>
      <point x="473" y="240" type="curve"/>
      <point x="473" y="236"/>
      <point x="473" y="233"/>
      <point x="473" y="228" type="curve" smooth="yes"/>
      <point x="473" y="169"/>
      <point x="396" y="114"/>
      <point x="300" y="114" type="curve" smooth="yes"/>
      <point x="196" y="114"/>
      <point x="122" y="145"/>
      <point x="65" y="203" type="curve"/>
      <point x="61" y="203" type="line"/>
      <point x="58" y="188"/>
      <point x="55" y="169"/>
      <point x="55" y="145" type="curve" smooth="yes"/>
      <point x="55" y="95"/>
      <point x="68" y="59"/>
      <point x="88" y="39" type="curve" smooth="yes"/>
      <point x="122" y="5"/>
      <point x="206" y="-19"/>
    </contour>
    <contour>
      <point x="361" y="432" type="line"/>
      <point x="436" y="779" type="line" smooth="yes"/>
      <point x="451" y="846"/>
      <point x="424" y="885"/>
      <point x="357" y="885" type="curve" smooth="yes"/>
      <point x="343" y="885"/>
      <point x="319" y="881"/>
      <point x="304" y="876" type="curve"/>
      <point x="314" y="848"/>
      <point x="321" y="821"/>
      <point x="319" y="778" type="curve"/>
      <point x="307" y="477" type="line" smooth="yes"/>
      <point x="306" y="448"/>
      <point x="333" y="432"/>
      <point x="357" y="432" type="curve" smooth="yes"/>
    </contour>
    <contour>
      <point x="271" y="237" type="line"/>
      <point x="198" y="-89" type="line" smooth="yes"/>
      <point x="181" y="-156"/>
      <point x="210" y="-195"/>
      <point x="277" y="-195" type="curve" smooth="yes"/>
      <point x="291" y="-195"/>
      <point x="314" y="-191"/>
      <point x="329" y="-186" type="curve"/>
      <point x="319" y="-158"/>
      <point x="313" y="-131"/>
      <point x="314" y="-88" type="curve"/>
      <point x="324" y="192" type="line" smooth="yes"/>
      <point x="325" y="221"/>
      <point x="299" y="237"/>
      <point x="275" y="237" type="curve" smooth="yes"/>
    </contour>
  </outline>
</glyph>
<glyph name="percent" format="1">
  <advance width="600"/>
  <unicode hex="0025"/>
  <outline>
    <contour>
      <point x="123" y="663" type="curve"/>
      <point x="185" y="663"/>
      <point x="216" y="629"/>
      <point x="216" y="554" type="curve" smooth="yes"/>
      <point x="216" y="550" type="line" smooth="yes"/>
      <point x="216" y="493"/>
      <point x="191" y="464"/>
      <point x="141" y="464" type="curve" smooth="yes"/>
      <point x="115" y="464"/>
      <point x="100" y="471"/>
      <point x="81" y="497" type="curve"/>
      <point x="40" y="452"/>
      <point x="101" y="356"/>
      <point x="163" y="356" type="curve" smooth="yes"/>
      <point x="260" y="356"/>
      <point x="322" y="425"/>
      <point x="322" y="534" type="curve" smooth="yes"/>
      <point x="322" y="540" type="line" smooth="yes"/>
      <point x="322" y="640"/>
      <point x="258" y="710"/>
      <point x="170" y="710" type="curve" smooth="yes"/>
      <point x="142" y="710"/>
      <point x="123" y="690"/>
    </contour>
    <contour>
      <point x="198" y="412" type="curve"/>
      <point x="136" y="412"/>
      <point x="97" y="458"/>
      <point x="97" y="523" type="curve" smooth="yes"/>
      <point x="97" y="527" type="line" smooth="yes"/>
      <point x="97" y="587"/>
      <point x="127" y="628"/>
      <point x="171" y="628" type="curve" smooth="yes"/>
      <point x="208" y="628"/>
      <point x="224" y="622"/>
      <point x="253" y="596" type="curve"/>
      <point x="288" y="633"/>
      <point x="231" y="710"/>
      <point x="170" y="710" type="curve" smooth="yes"/>
      <point x="76" y="710"/>
      <point x="13" y="637"/>
      <point x="13" y="529" type="curve" smooth="yes"/>
      <point x="13" y="523" type="line" smooth="yes"/>
      <point x="13" y="420"/>
      <point x="70" y="356"/>
      <point x="163" y="356" type="curve" smooth="yes"/>
      <point x="192" y="356"/>
      <point x="198" y="379"/>
    </contour>
    <contour>
      <point x="388" y="297" type="curve"/>
      <point x="451" y="297"/>
      <point x="482" y="263"/>
      <point x="482" y="188" type="curve" smooth="yes"/>
      <point x="482" y="184" type="line" smooth="yes"/>
      <point x="482" y="127"/>
      <point x="457" y="98"/>
      <point x="407" y="98" type="curve" smooth="yes"/>
      <point x="381" y="98"/>
      <point x="366" y="105"/>
      <point x="347" y="131" type="curve"/>
      <point x="306" y="86"/>
      <point x="367" y="-10"/>
      <point x="428" y="-10" type="curve" smooth="yes"/>
      <point x="525" y="-10"/>
      <point x="587" y="59"/>
      <point x="587" y="168" type="curve" smooth="yes"/>
      <point x="587" y="174" type="line" smooth="yes"/>
      <point x="587" y="274"/>
      <point x="524" y="344"/>
      <point x="435" y="344" type="curve" smooth="yes"/>
      <point x="408" y="344"/>
      <point x="388" y="324"/>
    </contour>
    <contour>
      <point x="464" y="46" type="curve"/>
      <point x="401" y="46"/>
      <point x="363" y="92"/>
      <point x="363" y="157" type="curve" smooth="yes"/>
      <point x="363" y="161" type="line" smooth="yes"/>
      <point x="363" y="221"/>
      <point x="393" y="262"/>
      <point x="437" y="262" type="curve" smooth="yes"/>
      <point x="473" y="262"/>
      <point x="490" y="256"/>
      <point x="519" y="230" type="curve"/>
      <point x="554" y="267"/>
      <point x="497" y="344"/>
      <point x="435" y="344" type="curve" smooth="yes"/>
      <point x="341" y="344"/>
      <point x="278" y="271"/>
      <point x="278" y="163" type="curve" smooth="yes"/>
      <point x="278" y="157" type="line" smooth="yes"/>
      <point x="278" y="54"/>
      <point x="335" y="-10"/>
      <point x="428" y="-10" type="curve" smooth="yes"/>
      <point x="457" y="-10"/>
      <point x="464" y="13"/>
    </contour>
    <contour>
      <point x="350" y="412" type="curve"/>
      <point x="365" y="403"/>
      <point x="385" y="399"/>
      <point x="410" y="399" type="curve" smooth="yes"/>
      <point x="440" y="399"/>
      <point x="452" y="404"/>
      <point x="472" y="424" type="curve" smooth="yes"/>
      <point x="537" y="489"/>
      <point x="571" y="581"/>
      <point x="571" y="654" type="curve" smooth="yes"/>
      <point x="571" y="691"/>
      <point x="544" y="712"/>
      <point x="491" y="712" type="curve" smooth="yes"/>
      <point x="468" y="712"/>
      <point x="457" y="711"/>
      <point x="441" y="706" type="curve"/>
      <point x="431" y="601"/>
      <point x="409" y="502"/>
    </contour>
    <contour>
      <point x="250" y="288" type="curve"/>
      <point x="235" y="297"/>
      <point x="215" y="301"/>
      <point x="190" y="301" type="curve" smooth="yes"/>
      <point x="160" y="301"/>
      <point x="148" y="296"/>
      <point x="128" y="276" type="curve" smooth="yes"/>
      <point x="63" y="211"/>
      <point x="29" y="119"/>
      <point x="29" y="46" type="curve" smooth="yes"/>
      <point x="29" y="9"/>
      <point x="56" y="-12"/>
      <point x="109" y="-12" type="curve" smooth="yes"/>
      <point x="132" y="-12"/>
      <point x="143" y="-11"/>
      <point x="159" y="-6" type="curve"/>
      <point x="169" y="98"/>
      <point x="192" y="198"/>
    </contour>
  </outline>
</glyph>
<glyph name="quotesingle" format="1">
  <advance width="600"/>
  <unicode hex="0027"/>
  <outline>
    <contour>
      <point x="360" y="445" type="curve"/>
      <point x="373" y="644" type="line" smooth="yes"/>
      <point x="378" y="720"/>
      <point x="341" y="754"/>
      <point x="253" y="754" type="curve" smooth="yes"/>
      <point x="238" y="754"/>
      <point x="224" y="753"/>
      <point x="210" y="750" type="curve"/>
      <point x="219" y="725"/>
      <point x="223" y="700"/>
      <point x="227" y="647" type="curve" smooth="yes"/>
      <point x="237" y="497" type="line" smooth="yes"/>
      <point x="240" y="455"/>
      <point x="260" y="440"/>
      <point x="310" y="440" type="curve" smooth="yes"/>
      <point x="330" y="440"/>
      <point x="347" y="441"/>
    </contour>
  </outline>
</glyph>
<glyph name="parenleft" format="1">
  <advance width="600"/>
  <unicode hex="0028"/>
  <outline>
    <contour>
      <point x="333" y="728" type="curve" smooth="yes"/>
      <point x="235" y="630"/>
      <point x="180" y="474"/>
      <point x="180" y="303" type="curve" smooth="yes"/>
      <point x="180" y="295" type="line" smooth="yes"/>
      <point x="180" y="123"/>
      <point x="235" y="-33"/>
      <point x="333" y="-131" type="curve" smooth="yes"/>
      <point x="362" y="-160"/>
      <point x="388" y="-173"/>
      <point x="420" y="-173" type="curve" smooth="yes"/>
      <point x="460" y="-173"/>
      <point x="485" y="-159"/>
      <point x="505" y="-140" type="curve"/>
      <point x="505" y="-136" type="line"/>
      <point x="396" y="-30"/>
      <point x="330" y="128"/>
      <point x="330" y="295" type="curve" smooth="yes"/>
      <point x="330" y="303" type="line" smooth="yes"/>
      <point x="330" y="468"/>
      <point x="395" y="628"/>
      <point x="505" y="733" type="curve"/>
      <point x="505" y="737" type="line"/>
      <point x="485" y="756"/>
      <point x="460" y="770"/>
      <point x="420" y="770" type="curve" smooth="yes"/>
      <point x="388" y="770"/>
      <point x="362" y="757"/>
    </contour>
  </outline>
</glyph>
<glyph name="parenright" format="1">
  <advance width="600"/>
  <unicode hex="0029"/>
  <outline>
    <contour>
      <point x="267" y="-131" type="curve" smooth="yes"/>
      <point x="365" y="-33"/>
      <point x="420" y="123"/>
      <point x="420" y="295" type="curve" smooth="yes"/>
      <point x="420" y="303" type="line" smooth="yes"/>
      <point x="420" y="474"/>
      <point x="365" y="631"/>
      <point x="267" y="728" type="curve" smooth="yes"/>
      <point x="238" y="757"/>
      <point x="212" y="770"/>
      <point x="180" y="770" type="curve" smooth="yes"/>
      <point x="140" y="770"/>
      <point x="115" y="756"/>
      <point x="95" y="737" type="curve"/>
      <point x="95" y="733" type="line"/>
      <point x="204" y="628"/>
      <point x="270" y="469"/>
      <point x="270" y="303" type="curve" smooth="yes"/>
      <point x="270" y="295" type="line" smooth="yes"/>
      <point x="270" y="129"/>
      <point x="205" y="-30"/>
      <point x="95" y="-136" type="curve"/>
      <point x="95" y="-140" type="line"/>
      <point x="115" y="-159"/>
      <point x="140" y="-173"/>
      <point x="180" y="-173" type="curve" smooth="yes"/>
      <point x="212" y="-173"/>
      <point x="238" y="-160"/>
    </contour>
  </outline>
</glyph>
<glyph name="asterisk" format="1">
  <advance width="600"/>
  <unicode hex="002A"/>
  <outline>
    <contour>
      <point x="227" y="569" type="curve"/>
      <point x="237" y="541"/>
      <point x="245" y="516"/>
      <point x="251" y="477" type="curve" smooth="yes"/>
      <point x="275" y="309" type="line"/>
      <point x="241" y="149" type="line" smooth="yes"/>
      <point x="225" y="81"/>
      <point x="252" y="42"/>
      <point x="321" y="42" type="curve"/>
      <point x="338" y="42"/>
      <point x="357" y="44"/>
      <point x="374" y="50" type="curve"/>
      <point x="364" y="78"/>
      <point x="356" y="103"/>
      <point x="350" y="142" type="curve" smooth="yes"/>
      <point x="327" y="309" type="line"/>
      <point x="360" y="470" type="line" smooth="yes"/>
      <point x="375" y="538"/>
      <point x="348" y="578"/>
      <point x="280" y="578" type="curve" smooth="yes"/>
      <point x="263" y="577"/>
      <point x="245" y="575"/>
    </contour>
    <contour>
      <point x="498" y="492" type="curve"/>
      <point x="283" y="333" type="line"/>
      <point x="90" y="257" type="line" smooth="yes"/>
      <point x="57" y="244"/>
      <point x="53" y="207"/>
      <point x="75" y="168" type="curve"/>
      <point x="83" y="153"/>
      <point x="94" y="141"/>
      <point x="104" y="131" type="curve"/>
      <point x="318" y="290" type="line"/>
      <point x="512" y="367" type="line" smooth="yes"/>
      <point x="546" y="380"/>
      <point x="550" y="415"/>
      <point x="526" y="456" type="curve" smooth="yes"/>
      <point x="519" y="468"/>
      <point x="512" y="477"/>
    </contour>
    <contour>
      <point x="556" y="231" type="curve"/>
      <point x="318" y="333" type="line"/>
      <point x="147" y="466" type="line" smooth="yes"/>
      <point x="119" y="489"/>
      <point x="87" y="475"/>
      <point x="63" y="435" type="curve"/>
      <point x="55" y="421"/>
      <point x="50" y="405"/>
      <point x="46" y="392" type="curve"/>
      <point x="282" y="290" type="line"/>
      <point x="454" y="156" type="line" smooth="yes"/>
      <point x="483" y="133"/>
      <point x="515" y="147"/>
      <point x="538" y="189" type="curve"/>
      <point x="545" y="201"/>
      <point x="550" y="212"/>
    </contour>
  </outline>
</glyph>
<glyph name="period" format="1">
  <advance width="600"/>
  <unicode hex="002E"/>
  <outline>
    <contour>
      <point x="397" y="-3" type="curve"/>
      <point x="397" y="123" type="line" smooth="yes"/>
      <point x="397" y="181"/>
      <point x="336" y="192"/>
      <point x="277" y="192" type="curve" smooth="yes"/>
      <point x="254" y="192"/>
      <point x="226" y="190"/>
      <point x="203" y="185" type="curve"/>
      <point x="203" y="59" type="line" smooth="yes"/>
      <point x="203" y="1"/>
      <point x="264" y="-10"/>
      <point x="323" y="-10" type="curve" smooth="yes"/>
      <point x="346" y="-10"/>
      <point x="374" y="-7"/>
    </contour>
  </outline>
</glyph>
<glyph name="zero" format="1">
  <advance width="600"/>
  <unicode hex="0030"/>
  <outline>
    <contour>
      <point x="302" y="720" type="curve" smooth="yes"/>
      <point x="157" y="720"/>
      <point x="54" y="576"/>
      <point x="54" y="353" type="curve" smooth="yes"/>
      <point x="54" y="311" type="line" smooth="yes"/>
      <point x="54" y="105"/>
      <point x="158" y="-20"/>
      <point x="299" y="-20" type="curve"/>
      <point x="340" y="-20"/>
      <point x="365" y="15"/>
      <point x="365" y="63" type="curve"/>
      <point x="238" y="66"/>
      <point x="187" y="143"/>
      <point x="187" y="283" type="curve" smooth="yes"/>
      <point x="187" y="328" type="line" smooth="yes"/>
      <point x="187" y="476"/>
      <point x="233" y="588"/>
      <point x="321" y="588" type="curve" smooth="yes"/>
      <point x="374" y="588"/>
      <point x="388" y="583"/>
      <point x="417" y="567" type="curve"/>
      <point x="456" y="611"/>
      <point x="383" y="720"/>
    </contour>
    <contour>
      <point x="299" y="-20" type="curve" smooth="yes"/>
      <point x="443" y="-20"/>
      <point x="546" y="107"/>
      <point x="546" y="306" type="curve" smooth="yes"/>
      <point x="546" y="348" type="line" smooth="yes"/>
      <point x="546" y="579"/>
      <point x="442" y="720"/>
      <point x="302" y="720" type="curve"/>
      <point x="261" y="720"/>
      <point x="235" y="685"/>
      <point x="235" y="637" type="curve"/>
      <point x="362" y="634"/>
      <point x="413" y="546"/>
      <point x="413" y="376" type="curve" smooth="yes"/>
      <point x="413" y="331" type="line" smooth="yes"/>
      <point x="413" y="207"/>
      <point x="367" y="112"/>
      <point x="279" y="112" type="curve" smooth="yes"/>
      <point x="226" y="112"/>
      <point x="212" y="117"/>
      <point x="183" y="133" type="curve"/>
      <point x="143" y="87"/>
      <point x="217" y="-20"/>
    </contour>
    <contour>
      <point x="154" y="186" type="curve"/>
      <point x="268" y="254"/>
      <point x="353" y="317"/>
      <point x="439" y="416" type="curve"/>
      <point x="464" y="445"/>
      <point x="473" y="492"/>
      <point x="438" y="533" type="curve"/>
      <point x="334" y="413"/>
      <point x="246" y="335"/>
      <point x="135" y="260" type="curve" smooth="yes"/>
      <point x="113" y="246"/>
      <point x="131" y="215"/>
    </contour>
  </outline>
</glyph>
<glyph name="one" format="1">
  <advance width="600"/>
  <unicode hex="0031"/>
  <outline>
    <contour>
      <point x="401" y="68" type="curve"/>
      <point x="401" y="269"/>
      <point x="401" y="469"/>
      <point x="401" y="669" type="curve" smooth="yes"/>
      <point x="401" y="700"/>
      <point x="351" y="710"/>
      <point x="291" y="710" type="curve" smooth="yes"/>
      <point x="269" y="710" type="line"/>
      <point x="269" y="544"/>
      <point x="269" y="375"/>
      <point x="269" y="209" type="curve" smooth="yes"/>
      <point x="269" y="101"/>
      <point x="330" y="68"/>
    </contour>
    <contour>
      <point x="80" y="133" type="line"/>
      <point x="79" y="127"/>
      <point x="79" y="121"/>
      <point x="79" y="114" type="curve" smooth="yes"/>
      <point x="79" y="64"/>
      <point x="86" y="34"/>
      <point x="102" y="18" type="curve" smooth="yes"/>
      <point x="116" y="4"/>
      <point x="133" y="0"/>
      <point x="173" y="0" type="curve" smooth="yes"/>
      <point x="556" y="0" type="line"/>
      <point x="559" y="12"/>
      <point x="561" y="23"/>
      <point x="561" y="37" type="curve" smooth="yes"/>
      <point x="561" y="93"/>
      <point x="500" y="133"/>
      <point x="379" y="133" type="curve" smooth="yes"/>
    </contour>
    <contour>
      <point x="126" y="419" type="curve" smooth="yes"/>
      <point x="156" y="419"/>
      <point x="188" y="438"/>
      <point x="220" y="470" type="curve" smooth="yes"/>
      <point x="271" y="521"/>
      <point x="301" y="595"/>
      <point x="301" y="653" type="curve" smooth="yes"/>
      <point x="301" y="693"/>
      <point x="283" y="710"/>
      <point x="271" y="710" type="curve"/>
      <point x="256" y="710" type="line"/>
      <point x="233" y="675"/>
      <point x="211" y="646"/>
      <point x="185" y="618" type="curve"/>
      <point x="154" y="588"/>
      <point x="121" y="563"/>
      <point x="79" y="542" type="curve"/>
      <point x="79" y="520" type="line" smooth="yes"/>
      <point x="79" y="457"/>
      <point x="100" y="419"/>
    </contour>
  </outline>
</glyph>
<glyph name="two" format="1">
  <advance width="600"/>
  <unicode hex="0032"/>
  <outline>
    <contour>
      <point x="348" y="618" type="curve"/>
      <point x="386" y="583"/>
      <point x="395" y="566"/>
      <point x="395" y="519" type="curve" smooth="yes"/>
      <point x="395" y="455"/>
      <point x="363" y="416"/>
      <point x="263" y="351" type="curve" smooth="yes"/>
      <point x="107" y="249"/>
      <point x="54" y="184"/>
      <point x="54" y="107" type="curve" smooth="yes"/>
      <point x="54" y="71"/>
      <point x="83" y="58"/>
      <point x="158" y="58" type="curve"/>
      <point x="158" y="136"/>
      <point x="183" y="169"/>
      <point x="330" y="256" type="curve" smooth="yes"/>
      <point x="469" y="340"/>
      <point x="531" y="409"/>
      <point x="531" y="516" type="curve" smooth="yes"/>
      <point x="531" y="520" type="line" smooth="yes"/>
      <point x="531" y="618"/>
      <point x="470" y="667"/>
    </contour>
    <contour>
      <point x="542" y="0" type="line"/>
      <point x="545" y="16"/>
      <point x="547" y="36"/>
      <point x="547" y="54" type="curve" smooth="yes"/>
      <point x="547" y="112"/>
      <point x="532" y="133"/>
      <point x="483" y="133" type="curve" smooth="yes"/>
      <point x="187" y="133" type="line" smooth="yes"/>
      <point x="129" y="133"/>
      <point x="90" y="126"/>
      <point x="54" y="107" type="curve"/>
      <point x="54" y="105"/>
      <point x="54" y="104"/>
      <point x="54" y="102" type="curve" smooth="yes"/>
      <point x="54" y="61"/>
      <point x="87" y="0"/>
      <point x="118" y="0" type="curve" smooth="yes"/>
    </contour>
    <contour>
      <point x="305" y="720" type="curve" smooth="yes"/>
      <point x="222" y="720"/>
      <point x="154" y="699"/>
      <point x="120" y="666" type="curve" smooth="yes"/>
      <point x="96" y="642"/>
      <point x="83" y="606"/>
      <point x="83" y="566" type="curve" smooth="yes"/>
      <point x="83" y="540"/>
      <point x="89" y="518"/>
      <point x="99" y="504" type="curve"/>
      <point x="103" y="504" type="line"/>
      <point x="158" y="561"/>
      <point x="225" y="587"/>
      <point x="311" y="587" type="curve" smooth="yes"/>
      <point x="392" y="587"/>
      <point x="453" y="553"/>
      <point x="453" y="504" type="curve" smooth="yes"/>
      <point x="453" y="483"/>
      <point x="450" y="465"/>
      <point x="444" y="447" type="curve"/>
      <point x="497" y="447"/>
      <point x="531" y="475"/>
      <point x="531" y="520" type="curve" smooth="yes"/>
      <point x="531" y="645"/>
      <point x="438" y="720"/>
    </contour>
  </outline>
</glyph>
<glyph name="three" format="1">
  <advance width="600"/>
  <unicode hex="0033"/>
  <outline>
    <contour>
      <point x="283" y="587" type="curve" smooth="yes"/>
      <point x="391" y="587"/>
      <point x="455" y="533"/>
      <point x="455" y="461" type="curve" smooth="yes"/>
      <point x="455" y="450"/>
      <point x="454" y="441"/>
      <point x="451" y="431" type="curve"/>
      <point x="486" y="433"/>
      <point x="536" y="499"/>
      <point x="536" y="528" type="curve" smooth="yes"/>
      <point x="536" y="542" type="line" smooth="yes"/>
      <point x="536" y="642"/>
      <point x="447" y="720"/>
      <point x="300" y="720" type="curve" smooth="yes"/>
      <point x="214" y="720"/>
      <point x="140" y="694"/>
      <point x="108" y="662" type="curve" smooth="yes"/>
      <point x="83" y="637"/>
      <point x="75" y="614"/>
      <point x="75" y="562" type="curve" smooth="yes"/>
      <point x="75" y="538"/>
      <point x="76" y="521"/>
      <point x="82" y="501" type="curve"/>
      <point x="86" y="501" type="line"/>
      <point x="144" y="562"/>
      <point x="198" y="587"/>
    </contour>
    <contour>
      <point x="213" y="317" type="curve" smooth="yes"/>
      <point x="417" y="317"/>
      <point x="535" y="430"/>
      <point x="535" y="528" type="curve" smooth="yes"/>
      <point x="535" y="564"/>
      <point x="460" y="602"/>
      <point x="420" y="603" type="curve"/>
      <point x="421" y="597"/>
      <point x="421" y="592"/>
      <point x="421" y="586" type="curve" smooth="yes"/>
      <point x="421" y="445"/>
      <point x="324" y="393"/>
      <point x="173" y="393" type="curve"/>
      <point x="169" y="377"/>
      <point x="168" y="368"/>
      <point x="168" y="346" type="curve" smooth="yes"/>
      <point x="168" y="324"/>
      <point x="201" y="317"/>
    </contour>
    <contour>
      <point x="212" y="274" type="curve" smooth="yes"/>
      <point x="332" y="267"/>
      <point x="432" y="220"/>
      <point x="432" y="145" type="curve" smooth="yes"/>
      <point x="432" y="139"/>
      <point x="432" y="135"/>
      <point x="431" y="130" type="curve"/>
      <point x="482" y="131"/>
      <point x="546" y="152"/>
      <point x="546" y="171" type="curve" smooth="yes"/>
      <point x="546" y="304"/>
      <point x="378" y="359"/>
      <point x="173" y="359" type="curve"/>
      <point x="171" y="352"/>
      <point x="168" y="351"/>
      <point x="168" y="346" type="curve" smooth="yes"/>
      <point x="168" y="297"/>
      <point x="179" y="277"/>
    </contour>
    <contour>
      <point x="283" y="113" type="curve" smooth="yes"/>
      <point x="190" y="113"/>
      <point x="129" y="135"/>
      <point x="68" y="198" type="curve"/>
      <point x="64" y="198" type="line"/>
      <point x="58" y="179"/>
      <point x="56" y="162"/>
      <point x="56" y="137" type="curve" smooth="yes"/>
      <point x="56" y="87"/>
      <point x="64" y="62"/>
      <point x="89" y="38" type="curve" smooth="yes"/>
      <point x="122" y="4"/>
      <point x="206" y="-20"/>
      <point x="300" y="-20" type="curve" smooth="yes"/>
      <point x="453" y="-20"/>
      <point x="546" y="58"/>
      <point x="546" y="158" type="curve" smooth="yes"/>
      <point x="546" y="171" type="line" smooth="yes"/>
      <point x="546" y="199"/>
      <point x="492" y="257"/>
      <point x="455" y="259" type="curve"/>
      <point x="456" y="250"/>
      <point x="457" y="241"/>
      <point x="457" y="231" type="curve" smooth="yes"/>
      <point x="457" y="155"/>
      <point x="401" y="113"/>
    </contour>
  </outline>
</glyph>
<glyph name="four" format="1">
  <advance width="600"/>
  <unicode hex="0034"/>
  <outline>
    <contour>
      <point x="148" y="234" type="curve"/>
      <point x="227" y="398"/>
      <point x="378" y="577"/>
      <point x="535" y="669" type="curve"/>
      <point x="535" y="673" type="line"/>
      <point x="514" y="696"/>
      <point x="468" y="711"/>
      <point x="404" y="711" type="curve" smooth="yes"/>
      <point x="362" y="711"/>
      <point x="335" y="700"/>
      <point x="284" y="648" type="curve" smooth="yes"/>
      <point x="161" y="526"/>
      <point x="42" y="352"/>
      <point x="42" y="266" type="curve" smooth="yes"/>
      <point x="42" y="245"/>
      <point x="102" y="234"/>
    </contour>
    <contour>
      <point x="565" y="150" type="line"/>
      <point x="568" y="163"/>
      <point x="570" y="178"/>
      <point x="570" y="191" type="curve" smooth="yes"/>
      <point x="570" y="232"/>
      <point x="561" y="283"/>
      <point x="529" y="283" type="curve" smooth="yes"/>
      <point x="336" y="283" type="line"/>
      <point x="254" y="283"/>
      <point x="133" y="278"/>
      <point x="42" y="266" type="curve"/>
      <point x="42" y="253" type="line" smooth="yes"/>
      <point x="42" y="210"/>
      <point x="53" y="180"/>
      <point x="71" y="162" type="curve" smooth="yes"/>
      <point x="81" y="153"/>
      <point x="89" y="150"/>
      <point x="110" y="150" type="curve" smooth="yes"/>
    </contour>
    <contour>
      <point x="505" y="-2" type="curve"/>
      <point x="498" y="32"/>
      <point x="495" y="59"/>
      <point x="495" y="97" type="curve" smooth="yes"/>
      <point x="495" y="362" type="line" smooth="yes"/>
      <point x="495" y="387"/>
      <point x="452" y="412"/>
      <point x="408" y="412" type="curve" smooth="yes"/>
      <point x="403" y="412" type="line"/>
      <point x="379" y="351"/>
      <point x="354" y="260"/>
      <point x="354" y="197" type="curve"/>
      <point x="354" y="48" type="line" smooth="yes"/>
      <point x="354" y="7"/>
      <point x="410" y="-7"/>
      <point x="460" y="-7" type="curve" smooth="yes"/>
      <point x="477" y="-7"/>
      <point x="493" y="-5"/>
    </contour>
  </outline>
</glyph>
<glyph name="five" format="1">
  <advance width="600"/>
  <unicode hex="0035"/>
  <outline>
    <contour>
      <point x="90" y="700" type="line"/>
      <point x="90" y="692"/>
      <point x="90" y="684"/>
      <point x="90" y="674" type="curve" smooth="yes"/>
      <point x="90" y="624"/>
      <point x="96" y="602"/>
      <point x="113" y="585" type="curve" smooth="yes"/>
      <point x="128" y="570"/>
      <point x="145" y="567"/>
      <point x="174" y="567" type="curve" smooth="yes"/>
      <point x="521" y="567" type="line"/>
      <point x="524" y="582"/>
      <point x="526" y="602"/>
      <point x="526" y="621" type="curve" smooth="yes"/>
      <point x="526" y="680"/>
      <point x="511" y="700"/>
      <point x="462" y="700" type="curve" smooth="yes"/>
    </contour>
    <contour>
      <point x="212" y="285" type="line"/>
      <point x="273" y="658" type="line" smooth="yes"/>
      <point x="278" y="685"/>
      <point x="244" y="700"/>
      <point x="179" y="700" type="curve" smooth="yes"/>
      <point x="153" y="700" type="line"/>
      <point x="92" y="323" type="line" smooth="yes"/>
      <point x="88" y="298"/>
      <point x="130" y="285"/>
      <point x="206" y="285" type="curve" smooth="yes"/>
    </contour>
    <contour>
      <point x="170" y="393" type="curve"/>
      <point x="155" y="319"/>
      <point x="179" y="285"/>
      <point x="212" y="285" type="curve"/>
      <point x="214" y="285"/>
      <point x="216" y="285"/>
      <point x="218" y="285" type="curve" smooth="yes"/>
      <point x="370" y="285"/>
      <point x="456" y="234"/>
      <point x="456" y="138" type="curve" smooth="yes"/>
      <point x="456" y="123"/>
      <point x="455" y="114"/>
      <point x="452" y="99" type="curve"/>
      <point x="501" y="99"/>
      <point x="545" y="150"/>
      <point x="545" y="197" type="curve" smooth="yes"/>
      <point x="545" y="309"/>
      <point x="464" y="393"/>
      <point x="197" y="393" type="curve" smooth="yes"/>
      <point x="188" y="393"/>
      <point x="179" y="393"/>
    </contour>
    <contour>
      <point x="300" y="-20" type="curve" smooth="yes"/>
      <point x="460" y="-20"/>
      <point x="545" y="72"/>
      <point x="545" y="184" type="curve" smooth="yes"/>
      <point x="545" y="197" type="line" smooth="yes"/>
      <point x="545" y="233"/>
      <point x="502" y="269"/>
      <point x="462" y="271" type="curve"/>
      <point x="463" y="262"/>
      <point x="464" y="253"/>
      <point x="464" y="242" type="curve" smooth="yes"/>
      <point x="464" y="237" type="line" smooth="yes"/>
      <point x="464" y="165"/>
      <point x="394" y="113"/>
      <point x="282" y="113" type="curve" smooth="yes"/>
      <point x="190" y="113"/>
      <point x="126" y="137"/>
      <point x="63" y="184" type="curve"/>
      <point x="59" y="184" type="line"/>
      <point x="56" y="173"/>
      <point x="54" y="156"/>
      <point x="54" y="136" type="curve" smooth="yes"/>
      <point x="54" y="97"/>
      <point x="68" y="59"/>
      <point x="88" y="39" type="curve" smooth="yes"/>
      <point x="122" y="5"/>
      <point x="191" y="-20"/>
    </contour>
  </outline>
</glyph>
<glyph name="six" format="1">
  <advance width="600"/>
  <unicode hex="0036"/>
  <outline>
    <contour>
      <point x="144" y="165" type="curve"/>
      <point x="114" y="87"/>
      <point x="211" y="-20"/>
      <point x="310" y="-20" type="curve"/>
      <point x="450" y="-20"/>
      <point x="546" y="68"/>
      <point x="546" y="197" type="curve" smooth="yes"/>
      <point x="546" y="202" type="line" smooth="yes"/>
      <point x="546" y="323"/>
      <point x="440" y="371"/>
      <point x="384" y="325" type="curve"/>
      <point x="405" y="296"/>
      <point x="413" y="255"/>
      <point x="413" y="209" type="curve" smooth="yes"/>
      <point x="413" y="205" type="line" smooth="yes"/>
      <point x="413" y="151"/>
      <point x="373" y="112"/>
      <point x="298" y="112" type="curve" smooth="yes"/>
      <point x="237" y="112"/>
      <point x="185" y="130"/>
    </contour>
    <contour>
      <point x="181" y="516" type="curve"/>
      <point x="232" y="564"/>
      <point x="292" y="587"/>
      <point x="362" y="587" type="curve" smooth="yes"/>
      <point x="421" y="587"/>
      <point x="461" y="576"/>
      <point x="508" y="550" type="curve"/>
      <point x="512" y="550" type="line"/>
      <point x="515" y="564"/>
      <point x="517" y="578"/>
      <point x="517" y="599" type="curve" smooth="yes"/>
      <point x="517" y="650"/>
      <point x="501" y="673"/>
      <point x="488" y="686" type="curve" smooth="yes"/>
      <point x="472" y="702"/>
      <point x="437" y="720"/>
      <point x="354" y="720" type="curve" smooth="yes"/>
      <point x="226" y="720"/>
      <point x="125" y="628"/>
    </contour>
    <contour>
      <point x="54" y="309" type="curve" smooth="yes"/>
      <point x="54" y="302" type="line" smooth="yes"/>
      <point x="54" y="86"/>
      <point x="158" y="-20"/>
      <point x="310" y="-20" type="curve" smooth="yes"/>
      <point x="318" y="-20"/>
      <point x="341" y="-13"/>
      <point x="341" y="38" type="curve"/>
      <point x="227" y="62"/>
      <point x="190" y="145"/>
      <point x="190" y="296" type="curve" smooth="yes"/>
      <point x="190" y="303" type="line" smooth="yes"/>
      <point x="190" y="517"/>
      <point x="234" y="602"/>
      <point x="394" y="665" type="curve"/>
      <point x="394" y="697"/>
      <point x="379" y="720"/>
      <point x="354" y="720" type="curve" smooth="yes"/>
      <point x="193" y="720"/>
      <point x="54" y="607"/>
    </contour>
    <contour>
      <point x="342" y="400" type="curve" smooth="yes"/>
      <point x="280" y="400"/>
      <point x="208" y="378"/>
      <point x="178" y="348" type="curve" smooth="yes"/>
      <point x="158" y="328"/>
      <point x="154" y="306"/>
      <point x="151" y="247" type="curve"/>
      <point x="207" y="274"/>
      <point x="264" y="289"/>
      <point x="318" y="289" type="curve" smooth="yes"/>
      <point x="420" y="289"/>
      <point x="475" y="239"/>
      <point x="475" y="173" type="curve" smooth="yes"/>
      <point x="475" y="157"/>
      <point x="474" y="144"/>
      <point x="469" y="131" type="curve"/>
      <point x="506" y="131"/>
      <point x="546" y="160"/>
      <point x="546" y="201" type="curve" smooth="yes"/>
      <point x="546" y="328"/>
      <point x="458" y="400"/>
    </contour>
  </outline>
</glyph>
<glyph name="seven" format="1">
  <advance width="600"/>
  <unicode hex="0037"/>
  <outline>
    <contour>
      <point x="413" y="567" type="line" smooth="yes"/>
      <point x="460" y="567"/>
      <point x="502" y="570"/>
      <point x="545" y="578" type="curve"/>
      <point x="545" y="585" type="line"/>
      <point x="545" y="628"/>
      <point x="527" y="700"/>
      <point x="496" y="700" type="curve"/>
      <point x="100" y="700" type="line"/>
      <point x="100" y="675" type="line" smooth="yes"/>
      <point x="100" y="608"/>
      <point x="115" y="567"/>
      <point x="150" y="567" type="curve" smooth="yes"/>
    </contour>
    <contour>
      <point x="341" y="-10" type="line"/>
      <point x="341" y="249"/>
      <point x="545" y="451"/>
      <point x="545" y="578" type="curve" smooth="yes"/>
      <point x="545" y="594"/>
      <point x="488" y="609"/>
      <point x="412" y="609" type="curve"/>
      <point x="412" y="483"/>
      <point x="212" y="253"/>
      <point x="212" y="64" type="curve" smooth="yes"/>
      <point x="212" y="14"/>
      <point x="273" y="-10"/>
      <point x="319" y="-10" type="curve" smooth="yes"/>
    </contour>
    <contour>
      <point x="194" y="455" type="curve"/>
      <point x="194" y="566"/>
      <point x="213" y="616"/>
      <point x="213" y="671" type="curve"/>
      <point x="213" y="703"/>
      <point x="149" y="720"/>
      <point x="97" y="720" type="curve" smooth="yes"/>
      <point x="90" y="720" type="line"/>
      <point x="70" y="650"/>
      <point x="63" y="577"/>
      <point x="63" y="505" type="curve"/>
      <point x="63" y="458"/>
      <point x="94" y="450"/>
      <point x="144" y="450" type="curve" smooth="yes"/>
      <point x="164" y="450"/>
      <point x="181" y="452"/>
    </contour>
  </outline>
</glyph>
<glyph name="eight" format="1">
  <advance width="600"/>
  <unicode hex="0038"/>
  <outline>
    <contour>
      <point x="390" y="348" type="curve" smooth="yes"/>
      <point x="296" y="381" type="line" smooth="yes"/>
      <point x="213" y="412"/>
      <point x="189" y="447"/>
      <point x="189" y="497" type="curve" smooth="yes"/>
      <point x="189" y="519"/>
      <point x="192" y="557"/>
      <point x="202" y="593" type="curve"/>
      <point x="130" y="591"/>
      <point x="69" y="570"/>
      <point x="69" y="511" type="curve" smooth="yes"/>
      <point x="69" y="440"/>
      <point x="107" y="353"/>
      <point x="255" y="298" type="curve" smooth="yes"/>
      <point x="346" y="264" type="line" smooth="yes"/>
      <point x="418" y="238"/>
      <point x="433" y="203"/>
      <point x="433" y="133" type="curve" smooth="yes"/>
      <point x="433" y="121"/>
      <point x="433" y="111"/>
      <point x="433" y="97" type="curve"/>
      <point x="484" y="97"/>
      <point x="547" y="138"/>
      <point x="547" y="171" type="curve"/>
      <point x="547" y="215"/>
      <point x="521" y="301"/>
    </contour>
    <contour>
      <point x="292" y="-20" type="curve" smooth="yes"/>
      <point x="450" y="-20"/>
      <point x="547" y="61"/>
      <point x="547" y="166" type="curve" smooth="yes"/>
      <point x="547" y="171" type="line" smooth="yes"/>
      <point x="547" y="188"/>
      <point x="500" y="219"/>
      <point x="466" y="221" type="curve"/>
      <point x="466" y="217"/>
      <point x="466" y="214"/>
      <point x="466" y="210" type="curve" smooth="yes"/>
      <point x="466" y="151"/>
      <point x="395" y="110"/>
      <point x="292" y="110" type="curve" smooth="yes"/>
      <point x="199" y="110"/>
      <point x="157" y="146"/>
      <point x="123" y="208" type="curve"/>
      <point x="33" y="120"/>
      <point x="125" y="-20"/>
    </contour>
    <contour>
      <point x="309" y="720" type="curve" smooth="yes"/>
      <point x="165" y="720"/>
      <point x="69" y="623"/>
      <point x="69" y="515" type="curve" smooth="yes"/>
      <point x="69" y="511" type="line" smooth="yes"/>
      <point x="69" y="475"/>
      <point x="130" y="432"/>
      <point x="201" y="431" type="curve"/>
      <point x="196" y="448"/>
      <point x="189" y="471"/>
      <point x="189" y="497" type="curve" smooth="yes"/>
      <point x="189" y="564"/>
      <point x="256" y="599"/>
      <point x="311" y="599" type="curve" smooth="yes"/>
      <point x="369" y="599"/>
      <point x="410" y="583"/>
      <point x="451" y="546" type="curve"/>
      <point x="515" y="610"/>
      <point x="408" y="720"/>
    </contour>
    <contour>
      <point x="363" y="326" type="curve" smooth="yes"/>
      <point x="437" y="326"/>
      <point x="539" y="411"/>
      <point x="539" y="513" type="curve" smooth="yes"/>
      <point x="539" y="518" type="line" smooth="yes"/>
      <point x="539" y="639"/>
      <point x="431" y="720"/>
      <point x="309" y="720" type="curve" smooth="yes"/>
      <point x="291" y="720"/>
      <point x="270" y="710"/>
      <point x="265" y="657" type="curve"/>
      <point x="356" y="657"/>
      <point x="415" y="604"/>
      <point x="415" y="517" type="curve" smooth="yes"/>
      <point x="415" y="513" type="line" smooth="yes"/>
      <point x="415" y="450"/>
      <point x="374" y="401"/>
      <point x="274" y="354" type="curve"/>
      <point x="300" y="337"/>
      <point x="330" y="326"/>
    </contour>
    <contour>
      <point x="354" y="46" type="curve"/>
      <point x="211" y="46"/>
      <point x="172" y="100"/>
      <point x="172" y="129" type="curve" smooth="yes"/>
      <point x="172" y="132" type="line" smooth="yes"/>
      <point x="172" y="203"/>
      <point x="228" y="268"/>
      <point x="326" y="308" type="curve"/>
      <point x="302" y="328"/>
      <point x="290" y="339"/>
      <point x="246" y="339" type="curve" smooth="yes"/>
      <point x="166" y="339"/>
      <point x="54" y="264"/>
      <point x="54" y="164" type="curve" smooth="yes"/>
      <point x="54" y="159" type="line" smooth="yes"/>
      <point x="54" y="55"/>
      <point x="147" y="-20"/>
      <point x="292" y="-20" type="curve" smooth="yes"/>
      <point x="319" y="-20"/>
      <point x="354" y="10"/>
    </contour>
  </outline>
</glyph>
<glyph name="nine" format="1">
  <advance width="600"/>
  <unicode hex="0039"/>
  <outline>
    <contour>
      <point x="456" y="535" type="curve"/>
      <point x="490" y="612"/>
      <point x="389" y="720"/>
      <point x="290" y="720" type="curve"/>
      <point x="150" y="720"/>
      <point x="54" y="616"/>
      <point x="54" y="461" type="curve" smooth="yes"/>
      <point x="54" y="456" type="line" smooth="yes"/>
      <point x="54" y="331"/>
      <point x="161" y="280"/>
      <point x="217" y="326" type="curve"/>
      <point x="195" y="357"/>
      <point x="187" y="400"/>
      <point x="187" y="449" type="curve" smooth="yes"/>
      <point x="187" y="452" type="line" smooth="yes"/>
      <point x="187" y="532"/>
      <point x="227" y="588"/>
      <point x="303" y="588" type="curve" smooth="yes"/>
      <point x="364" y="588"/>
      <point x="415" y="570"/>
    </contour>
    <contour>
      <point x="431" y="184" type="curve"/>
      <point x="378" y="135"/>
      <point x="313" y="113"/>
      <point x="238" y="113" type="curve" smooth="yes"/>
      <point x="179" y="113"/>
      <point x="140" y="124"/>
      <point x="92" y="150" type="curve"/>
      <point x="88" y="150" type="line"/>
      <point x="85" y="136"/>
      <point x="83" y="122"/>
      <point x="83" y="101" type="curve" smooth="yes"/>
      <point x="83" y="50"/>
      <point x="99" y="27"/>
      <point x="112" y="14" type="curve" smooth="yes"/>
      <point x="128" y="-2"/>
      <point x="164" y="-20"/>
      <point x="249" y="-20" type="curve" smooth="yes"/>
      <point x="384" y="-20"/>
      <point x="486" y="73"/>
    </contour>
    <contour>
      <point x="546" y="391" type="curve" smooth="yes"/>
      <point x="546" y="398" type="line" smooth="yes"/>
      <point x="546" y="614"/>
      <point x="442" y="720"/>
      <point x="290" y="720" type="curve" smooth="yes"/>
      <point x="282" y="720"/>
      <point x="260" y="713"/>
      <point x="260" y="662" type="curve"/>
      <point x="373" y="638"/>
      <point x="410" y="555"/>
      <point x="410" y="404" type="curve" smooth="yes"/>
      <point x="410" y="397" type="line" smooth="yes"/>
      <point x="410" y="183"/>
      <point x="367" y="98"/>
      <point x="210" y="35" type="curve"/>
      <point x="210" y="3"/>
      <point x="224" y="-20"/>
      <point x="249" y="-20" type="curve" smooth="yes"/>
      <point x="413" y="-20"/>
      <point x="546" y="79"/>
    </contour>
    <contour>
      <point x="257" y="231" type="curve" smooth="yes"/>
      <point x="320" y="231"/>
      <point x="392" y="253"/>
      <point x="422" y="283" type="curve" smooth="yes"/>
      <point x="442" y="303"/>
      <point x="446" y="325"/>
      <point x="449" y="383" type="curve"/>
      <point x="393" y="357"/>
      <point x="336" y="342"/>
      <point x="281" y="342" type="curve" smooth="yes"/>
      <point x="180" y="342"/>
      <point x="126" y="402"/>
      <point x="126" y="481" type="curve" smooth="yes"/>
      <point x="126" y="499"/>
      <point x="127" y="514"/>
      <point x="132" y="529" type="curve"/>
      <point x="94" y="529"/>
      <point x="54" y="500"/>
      <point x="54" y="457" type="curve" smooth="yes"/>
      <point x="54" y="312"/>
      <point x="142" y="231"/>
    </contour>
  </outline>
</glyph>
<glyph name="colon" format="1">
  <advance width="600"/>
  <unicode hex="003A"/>
  <outline>
    <contour>
      <point x="397" y="354" type="curve"/>
      <point x="397" y="479" type="line" smooth="yes"/>
      <point x="397" y="537"/>
      <point x="336" y="549"/>
      <point x="277" y="549" type="curve" smooth="yes"/>
      <point x="254" y="549"/>
      <point x="226" y="546"/>
      <point x="203" y="541" type="curve"/>
      <point x="203" y="416" type="line" smooth="yes"/>
      <point x="203" y="358"/>
      <point x="264" y="347"/>
      <point x="323" y="347" type="curve" smooth="yes"/>
      <point x="346" y="347"/>
      <point x="374" y="349"/>
    </contour>
    <contour>
      <point x="397" y="-3" type="curve"/>
      <point x="397" y="123" type="line" smooth="yes"/>
      <point x="397" y="181"/>
      <point x="336" y="192"/>
      <point x="277" y="192" type="curve" smooth="yes"/>
      <point x="254" y="192"/>
      <point x="226" y="190"/>
      <point x="203" y="185" type="curve"/>
      <point x="203" y="59" type="line" smooth="yes"/>
      <point x="203" y="1"/>
      <point x="264" y="-10"/>
      <point x="323" y="-10" type="curve" smooth="yes"/>
      <point x="346" y="-10"/>
      <point x="374" y="-7"/>
    </contour>
  </outline>
</glyph>
<glyph name="semicolon" format="1">
  <advance width="600"/>
  <unicode hex="003B"/>
  <outline>
    <contour>
      <point x="397" y="352" type="curve"/>
      <point x="397" y="478" type="line" smooth="yes"/>
      <point x="397" y="535"/>
      <point x="336" y="547"/>
      <point x="277" y="547" type="curve" smooth="yes"/>
      <point x="254" y="547"/>
      <point x="226" y="544"/>
      <point x="203" y="539" type="curve"/>
      <point x="203" y="414" type="line" smooth="yes"/>
      <point x="203" y="356"/>
      <point x="264" y="345"/>
      <point x="323" y="345" type="curve" smooth="yes"/>
      <point x="346" y="345"/>
      <point x="374" y="347"/>
    </contour>
    <contour>
      <point x="270" y="-198" type="curve" smooth="yes"/>
      <point x="290" y="-198"/>
      <point x="301" y="-195"/>
      <point x="311" y="-184" type="curve"/>
      <point x="368" y="-128"/>
      <point x="419" y="-7"/>
      <point x="419" y="85" type="curve"/>
      <point x="419" y="136"/>
      <point x="386" y="155"/>
      <point x="308" y="155" type="curve" smooth="yes"/>
      <point x="285" y="155"/>
      <point x="269" y="153"/>
      <point x="244" y="148" type="curve"/>
      <point x="244" y="14"/>
      <point x="221" y="-85"/>
      <point x="172" y="-167" type="curve"/>
      <point x="199" y="-189"/>
      <point x="227" y="-198"/>
    </contour>
  </outline>
</glyph>
<glyph name="equal" format="1">
  <advance width="600"/>
  <unicode hex="003D"/>
  <outline>
    <contour>
      <point x="52" y="491" type="line"/>
      <point x="52" y="486"/>
      <point x="52" y="480"/>
      <point x="52" y="474" type="curve" smooth="yes"/>
      <point x="52" y="422"/>
      <point x="59" y="392"/>
      <point x="75" y="376" type="curve" smooth="yes"/>
      <point x="88" y="363"/>
      <point x="105" y="359"/>
      <point x="144" y="359" type="curve"/>
      <point x="552" y="359" type="line"/>
      <point x="556" y="376"/>
      <point x="558" y="396"/>
      <point x="558" y="412" type="curve" smooth="yes"/>
      <point x="558" y="471"/>
      <point x="543" y="491"/>
      <point x="494" y="491" type="curve"/>
    </contour>
    <contour>
      <point x="558" y="109" type="line"/>
      <point x="558" y="114"/>
      <point x="558" y="120"/>
      <point x="558" y="126" type="curve" smooth="yes"/>
      <point x="558" y="178"/>
      <point x="551" y="208"/>
      <point x="535" y="224" type="curve" smooth="yes"/>
      <point x="522" y="237"/>
      <point x="505" y="241"/>
      <point x="466" y="241" type="curve"/>
      <point x="58" y="241" type="line"/>
      <point x="54" y="224"/>
      <point x="52" y="204"/>
      <point x="52" y="188" type="curve" smooth="yes"/>
      <point x="52" y="129"/>
      <point x="67" y="109"/>
      <point x="116" y="109" type="curve"/>
    </contour>
  </outline>
</glyph>
<glyph name="greater" format="1">
  <advance width="600"/>
  <unicode hex="003E"/>
  <outline>
    <contour>
      <point x="69" y="128" type="curve"/>
      <point x="69" y="107" type="line"/>
      <point x="69" y="67"/>
      <point x="92" y="12"/>
      <point x="127" y="12" type="curve" smooth="yes"/>
      <point x="140" y="12"/>
      <point x="169" y="19"/>
      <point x="210" y="36" type="curve" smooth="yes"/>
      <point x="342" y="90"/>
      <point x="464" y="183"/>
      <point x="532" y="270" type="curve"/>
      <point x="532" y="294" type="line"/>
      <point x="532" y="327"/>
      <point x="498" y="336"/>
      <point x="418" y="333" type="curve"/>
      <point x="337" y="238"/>
      <point x="250" y="168"/>
    </contour>
    <contour>
      <point x="79" y="592" type="curve"/>
      <point x="74" y="579"/>
      <point x="72" y="564"/>
      <point x="72" y="543" type="curve" smooth="yes"/>
      <point x="72" y="495"/>
      <point x="83" y="459"/>
      <point x="108" y="451" type="curve" smooth="yes"/>
      <point x="264" y="402"/>
      <point x="349" y="345"/>
      <point x="440" y="247" type="curve" smooth="yes"/>
      <point x="447" y="239"/>
      <point x="449" y="232"/>
      <point x="449" y="227" type="curve" smooth="yes"/>
      <point x="449" y="222"/>
      <point x="449" y="217"/>
      <point x="449" y="210" type="curve"/>
      <point x="508" y="244"/>
      <point x="532" y="272"/>
      <point x="532" y="290" type="curve" smooth="yes"/>
      <point x="532" y="299" type="line" smooth="yes"/>
      <point x="532" y="325"/>
      <point x="527" y="340"/>
      <point x="488" y="377" type="curve" smooth="yes"/>
      <point x="391" y="465"/>
      <point x="276" y="544"/>
    </contour>
  </outline>
</glyph>
<glyph name="question" format="1">
  <advance width="600"/>
  <unicode hex="003F"/>
  <outline>
    <contour>
      <point x="305" y="720" type="curve" smooth="yes"/>
      <point x="222" y="720"/>
      <point x="152" y="699"/>
      <point x="119" y="666" type="curve" smooth="yes"/>
      <point x="96" y="643"/>
      <point x="83" y="607"/>
      <point x="83" y="567" type="curve" smooth="yes"/>
      <point x="83" y="542"/>
      <point x="88" y="525"/>
      <point x="96" y="507" type="curve"/>
      <point x="100" y="507" type="line"/>
      <point x="157" y="559"/>
      <point x="223" y="587"/>
      <point x="311" y="587" type="curve" smooth="yes"/>
      <point x="399" y="587"/>
      <point x="433" y="561"/>
      <point x="433" y="524" type="curve" smooth="yes"/>
      <point x="433" y="499"/>
      <point x="431" y="483"/>
      <point x="425" y="464" type="curve"/>
      <point x="496" y="458"/>
      <point x="530" y="497"/>
      <point x="530" y="533" type="curve" smooth="yes"/>
      <point x="530" y="630"/>
      <point x="460" y="720"/>
    </contour>
    <contour>
      <point x="359" y="644" type="curve"/>
      <point x="387" y="603"/>
      <point x="396" y="583"/>
      <point x="396" y="544" type="curve" smooth="yes"/>
      <point x="396" y="510"/>
      <point x="388" y="482"/>
      <point x="330" y="441" type="curve" smooth="yes"/>
      <point x="308" y="425" type="line" smooth="yes"/>
      <point x="239" y="377"/>
      <point x="220" y="348"/>
      <point x="220" y="319" type="curve" smooth="yes"/>
      <point x="220" y="315" type="line" smooth="yes"/>
      <point x="220" y="284"/>
      <point x="257" y="249"/>
      <point x="329" y="249" type="curve" smooth="yes"/>
      <point x="337" y="249" type="line"/>
      <point x="337" y="254" type="line" smooth="yes"/>
      <point x="337" y="283"/>
      <point x="348" y="306"/>
      <point x="390" y="334" type="curve" smooth="yes"/>
      <point x="419" y="351" type="line" smooth="yes"/>
      <point x="499" y="402"/>
      <point x="530" y="465"/>
      <point x="530" y="529" type="curve" smooth="yes"/>
      <point x="530" y="533" type="line" smooth="yes"/>
      <point x="530" y="599"/>
      <point x="458" y="678"/>
    </contour>
    <contour>
      <point x="377" y="-3" type="curve"/>
      <point x="377" y="106" type="line" smooth="yes"/>
      <point x="377" y="164"/>
      <point x="316" y="176"/>
      <point x="257" y="176" type="curve" smooth="yes"/>
      <point x="234" y="176"/>
      <point x="207" y="173"/>
      <point x="184" y="168" type="curve"/>
      <point x="184" y="59" type="line" smooth="yes"/>
      <point x="184" y="1"/>
      <point x="245" y="-10"/>
      <point x="304" y="-10" type="curve" smooth="yes"/>
      <point x="327" y="-10"/>
      <point x="354" y="-7"/>
    </contour>
  </outline>
</glyph>
<glyph name="C" format="1">
  <advance width="600"/>
  <unicode hex="0043"/>
  <outline>
    <contour>
      <point x="366" y="599" type="curve" smooth="yes"/>
      <point x="410" y="599"/>
      <point x="452" y="586"/>
      <point x="472" y="470" type="curve"/>
      <point x="521" y="470"/>
      <point x="532" y="476"/>
      <point x="532" y="491" type="curve" smooth="yes"/>
      <point x="532" y="579"/>
      <point x="514" y="639"/>
      <point x="479" y="675" type="curve" smooth="yes"/>
      <point x="449" y="705"/>
      <point x="408" y="720"/>
      <point x="349" y="720" type="curve" smooth="yes"/>
      <point x="181" y="720"/>
      <point x="61" y="541"/>
      <point x="61" y="292" type="curve" smooth="yes"/>
      <point x="61" y="266" type="line" smooth="yes"/>
      <point x="61" y="205"/>
      <point x="127" y="149"/>
      <point x="205" y="150" type="curve"/>
      <point x="197" y="176"/>
      <point x="191" y="228"/>
      <point x="191" y="274" type="curve" smooth="yes"/>
      <point x="191" y="291" type="line" smooth="yes"/>
      <point x="191" y="464"/>
      <point x="269" y="599"/>
    </contour>
    <contour>
      <point x="331" y="-20" type="curve" smooth="yes"/>
      <point x="409" y="-20"/>
      <point x="477" y="2"/>
      <point x="513" y="38" type="curve" smooth="yes"/>
      <point x="536" y="60"/>
      <point x="547" y="98"/>
      <point x="547" y="152" type="curve" smooth="yes"/>
      <point x="547" y="167"/>
      <point x="545" y="184"/>
      <point x="542" y="204" type="curve"/>
      <point x="538" y="204" type="line"/>
      <point x="485" y="143"/>
      <point x="417" y="113"/>
      <point x="329" y="113" type="curve" smooth="yes"/>
      <point x="222" y="113"/>
      <point x="184" y="184"/>
      <point x="184" y="334" type="curve"/>
      <point x="95" y="335"/>
      <point x="61" y="316"/>
      <point x="61" y="266" type="curve" smooth="yes"/>
      <point x="61" y="93"/>
      <point x="163" y="-20"/>
    </contour>
    <contour>
      <point x="532" y="405" type="curve"/>
      <point x="532" y="491" type="line" smooth="yes"/>
      <point x="532" y="605"/>
      <point x="482" y="655"/>
      <point x="413" y="651" type="curve"/>
      <point x="396" y="580"/>
      <point x="390" y="543"/>
      <point x="390" y="482" type="curve" smooth="yes"/>
      <point x="390" y="455" type="line"/>
      <point x="390" y="439"/>
      <point x="395" y="427"/>
      <point x="403" y="418" type="curve" smooth="yes"/>
      <point x="417" y="405"/>
      <point x="439" y="400"/>
      <point x="481" y="400" type="curve"/>
      <point x="501" y="400"/>
      <point x="519" y="401"/>
    </contour>
    <contour>
      <point x="312" y="711" type="move" name="top"/>
    </contour>
    <contour>
      <point x="328" y="-2" type="move" name="bottom"/>
    </contour>
  </outline>
</glyph>
<glyph name="D" format="1">
  <advance width="600"/>
  <unicode hex="0044"/>
  <outline>
    <contour>
      <point x="220" y="36" type="curve"/>
      <point x="220" y="515" type="line" smooth="yes"/>
      <point x="220" y="591"/>
      <point x="175" y="622"/>
      <point x="79" y="622" type="curve"/>
      <point x="79" y="85" type="line" smooth="yes"/>
      <point x="79" y="58"/>
      <point x="141" y="36"/>
    </contour>
    <contour>
      <point x="30" y="700" type="curve"/>
      <point x="27" y="685"/>
      <point x="25" y="671"/>
      <point x="25" y="651" type="curve"/>
      <point x="25" y="613"/>
      <point x="31" y="589"/>
      <point x="44" y="575" type="curve" smooth="yes"/>
      <point x="51" y="569"/>
      <point x="57" y="567"/>
      <point x="66" y="567" type="curve" smooth="yes"/>
      <point x="75" y="567"/>
      <point x="91" y="571"/>
      <point x="124" y="575" type="curve" smooth="yes"/>
      <point x="168" y="582"/>
      <point x="218" y="587"/>
      <point x="281" y="587" type="curve" smooth="yes"/>
      <point x="365" y="587"/>
      <point x="404" y="561"/>
      <point x="455" y="520" type="curve"/>
      <point x="536" y="602"/>
      <point x="432" y="720"/>
      <point x="294" y="720" type="curve" smooth="yes"/>
      <point x="207" y="720"/>
      <point x="117" y="714"/>
    </contour>
    <contour>
      <point x="552" y="396" type="curve" smooth="yes"/>
      <point x="552" y="426" type="line" smooth="yes"/>
      <point x="552" y="617"/>
      <point x="456" y="720"/>
      <point x="294" y="720" type="curve"/>
      <point x="268" y="720"/>
      <point x="254" y="697"/>
      <point x="254" y="659" type="curve"/>
      <point x="392" y="619"/>
      <point x="413" y="569"/>
      <point x="413" y="404" type="curve" smooth="yes"/>
      <point x="413" y="390" type="line" smooth="yes"/>
      <point x="413" y="225"/>
      <point x="351" y="127"/>
      <point x="243" y="127" type="curve" smooth="yes"/>
      <point x="177" y="127"/>
      <point x="156" y="131"/>
      <point x="105" y="155" type="curve"/>
      <point x="87" y="141"/>
      <point x="79" y="121"/>
      <point x="79" y="85" type="curve" smooth="yes"/>
      <point x="79" y="43"/>
      <point x="170" y="-10"/>
      <point x="244" y="-10" type="curve" smooth="yes"/>
      <point x="248" y="-10" type="line" smooth="yes"/>
      <point x="436" y="-10"/>
      <point x="552" y="148"/>
    </contour>
    <contour>
      <point x="289" y="711" type="move" name="top"/>
    </contour>
  </outline>
</glyph>
<glyph name="E" format="1">
  <advance width="600"/>
  <unicode hex="0045"/>
  <outline>
    <contour>
      <point x="29" y="700" type="line"/>
      <point x="29" y="693"/>
      <point x="29" y="685"/>
      <point x="29" y="678" type="curve" smooth="yes"/>
      <point x="29" y="635"/>
      <point x="35" y="590"/>
      <point x="50" y="575" type="curve" smooth="yes"/>
      <point x="56" y="569"/>
      <point x="59" y="567"/>
      <point x="66" y="567" type="curve" smooth="yes"/>
      <point x="540" y="567" type="line"/>
      <point x="545" y="580"/>
      <point x="547" y="596"/>
      <point x="547" y="615" type="curve" smooth="yes"/>
      <point x="547" y="634"/>
      <point x="542" y="672"/>
      <point x="525" y="689" type="curve" smooth="yes"/>
      <point x="516" y="698"/>
      <point x="510" y="700"/>
      <point x="495" y="700" type="curve" smooth="yes"/>
    </contour>
    <contour>
      <point x="220" y="82" type="curve"/>
      <point x="220" y="498" type="line" smooth="yes"/>
      <point x="220" y="574"/>
      <point x="185" y="600"/>
      <point x="79" y="600" type="curve"/>
      <point x="79" y="131" type="line"/>
      <point x="79" y="92"/>
      <point x="145" y="82"/>
    </contour>
    <contour>
      <point x="79" y="133" type="line"/>
      <point x="79" y="116" type="line" smooth="yes"/>
      <point x="79" y="64"/>
      <point x="131" y="0"/>
      <point x="174" y="0" type="curve" smooth="yes"/>
      <point x="542" y="0" type="line"/>
      <point x="546" y="13"/>
      <point x="547" y="30"/>
      <point x="547" y="50" type="curve" smooth="yes"/>
      <point x="547" y="109"/>
      <point x="531" y="133"/>
      <point x="492" y="133" type="curve" smooth="yes"/>
    </contour>
    <contour>
      <point x="141" y="391" type="line"/>
      <point x="141" y="311"/>
      <point x="152" y="275"/>
      <point x="190" y="275" type="curve" smooth="yes"/>
      <point x="491" y="275" type="line"/>
      <point x="491" y="279"/>
      <point x="491" y="285"/>
      <point x="491" y="288" type="curve" smooth="yes"/>
      <point x="491" y="317"/>
      <point x="483" y="354"/>
      <point x="461" y="376" type="curve" smooth="yes"/>
      <point x="448" y="389"/>
      <point x="437" y="391"/>
      <point x="420" y="391" type="curve" smooth="yes"/>
    </contour>
    <contour>
      <point x="300" y="712" type="move" name="top"/>
    </contour>
    <contour>
      <point x="543" y="0" type="move" name="ogonek"/>
    </contour>
    <contour>
      <point x="327" y="-1" type="move" name="bottom"/>
    </contour>
  </outline>
</glyph>
<glyph name="F" format="1">
  <advance width="600"/>
  <unicode hex="0046"/>
  <outline>
    <contour>
      <point x="245" y="-6" type="curve"/>
      <point x="239" y="29"/>
      <point x="237" y="59"/>
      <point x="237" y="93" type="curve" smooth="yes"/>
      <point x="237" y="498" type="line"/>
      <point x="237" y="575"/>
      <point x="203" y="601"/>
      <point x="96" y="601" type="curve"/>
      <point x="96" y="53" type="line" smooth="yes"/>
      <point x="96" y="11"/>
      <point x="135" y="-6"/>
      <point x="232" y="-6" type="curve" smooth="yes"/>
      <point x="237" y="-6"/>
      <point x="241" y="-6"/>
    </contour>
    <contour>
      <point x="29" y="700" type="line"/>
      <point x="29" y="693"/>
      <point x="29" y="685"/>
      <point x="29" y="678" type="curve" smooth="yes"/>
      <point x="29" y="619"/>
      <point x="38" y="592"/>
      <point x="50" y="580" type="curve" smooth="yes"/>
      <point x="59" y="571"/>
      <point x="66" y="567"/>
      <point x="83" y="567" type="curve"/>
      <point x="541" y="567" type="line"/>
      <point x="545" y="579"/>
      <point x="547" y="595"/>
      <point x="547" y="615" type="curve" smooth="yes"/>
      <point x="547" y="649"/>
      <point x="538" y="675"/>
      <point x="526" y="688" type="curve" smooth="yes"/>
      <point x="516" y="697"/>
      <point x="507" y="700"/>
      <point x="490" y="700" type="curve"/>
    </contour>
    <contour>
      <point x="116" y="341" type="line"/>
      <point x="116" y="261"/>
      <point x="127" y="209"/>
      <point x="165" y="209" type="curve"/>
      <point x="496" y="209" type="line"/>
      <point x="497" y="217"/>
      <point x="498" y="225"/>
      <point x="498" y="234" type="curve"/>
      <point x="498" y="266"/>
      <point x="484" y="302"/>
      <point x="463" y="322" type="curve" smooth="yes"/>
      <point x="446" y="339"/>
      <point x="438" y="341"/>
      <point x="412" y="341" type="curve"/>
    </contour>
  </outline>
</glyph>
<glyph name="G" format="1">
  <advance width="600"/>
  <unicode hex="0047"/>
  <outline>
    <contour>
      <point x="376" y="596" type="curve" smooth="yes"/>
      <point x="440" y="596"/>
      <point x="460" y="562"/>
      <point x="460" y="501" type="curve"/>
      <point x="506" y="501"/>
      <point x="522" y="524"/>
      <point x="522" y="539" type="curve" smooth="yes"/>
      <point x="522" y="595"/>
      <point x="517" y="629"/>
      <point x="477" y="669" type="curve" smooth="yes"/>
      <point x="447" y="698"/>
      <point x="416" y="720"/>
      <point x="371" y="720" type="curve" smooth="yes"/>
      <point x="185" y="720"/>
      <point x="53" y="563"/>
      <point x="53" y="283" type="curve" smooth="yes"/>
      <point x="53" y="275" type="line" smooth="yes"/>
      <point x="53" y="202"/>
      <point x="117" y="131"/>
      <point x="203" y="128" type="curve"/>
      <point x="193" y="157"/>
      <point x="187" y="211"/>
      <point x="187" y="267" type="curve" smooth="yes"/>
      <point x="187" y="277" type="line" smooth="yes"/>
      <point x="187" y="493"/>
      <point x="279" y="596"/>
    </contour>
    <contour>
      <point x="326" y="113" type="curve" smooth="yes"/>
      <point x="213" y="113"/>
      <point x="168" y="187"/>
      <point x="168" y="335" type="curve"/>
      <point x="99" y="336"/>
      <point x="53" y="321"/>
      <point x="53" y="275" type="curve" smooth="yes"/>
      <point x="53" y="108"/>
      <point x="142" y="-20"/>
      <point x="326" y="-20" type="curve" smooth="yes"/>
      <point x="444" y="-20"/>
      <point x="543" y="47"/>
      <point x="543" y="149" type="curve" smooth="yes"/>
      <point x="543" y="158" type="line" smooth="yes"/>
      <point x="543" y="222"/>
      <point x="507" y="285"/>
      <point x="452" y="285" type="curve"/>
      <point x="457" y="266"/>
      <point x="458" y="253"/>
      <point x="458" y="223" type="curve" smooth="yes"/>
      <point x="458" y="147"/>
      <point x="403" y="113"/>
    </contour>
    <contour>
      <point x="314" y="346" type="line"/>
      <point x="313" y="340"/>
      <point x="313" y="334"/>
      <point x="313" y="327" type="curve" smooth="yes"/>
      <point x="313" y="292"/>
      <point x="323" y="272"/>
      <point x="337" y="258" type="curve" smooth="yes"/>
      <point x="357" y="238"/>
      <point x="380" y="230"/>
      <point x="446" y="230" type="curve"/>
      <point x="573" y="230" type="line"/>
      <point x="573" y="239" type="line" smooth="yes"/>
      <point x="573" y="319"/>
      <point x="558" y="346"/>
      <point x="513" y="346" type="curve" smooth="yes"/>
    </contour>
    <contour>
      <point x="522" y="460" type="curve"/>
      <point x="522" y="539" type="line" smooth="yes"/>
      <point x="522" y="627"/>
      <point x="471" y="656"/>
      <point x="417" y="653" type="curve"/>
      <point x="400" y="609"/>
      <point x="390" y="566"/>
      <point x="390" y="530" type="curve" smooth="yes"/>
      <point x="390" y="511" type="line" smooth="yes"/>
      <point x="390" y="470"/>
      <point x="410" y="455"/>
      <point x="472" y="455" type="curve" smooth="yes"/>
      <point x="492" y="455"/>
      <point x="509" y="456"/>
    </contour>
    <contour>
      <point x="313" y="711" type="move" name="top"/>
    </contour>
    <contour>
      <point x="313" y="-1" type="move" name="bottom"/>
    </contour>
  </outline>
</glyph>
<glyph name="H" format="1">
  <advance width="600"/>
  <unicode hex="0048"/>
  <outline>
    <contour>
      <point x="66" y="704" type="curve"/>
      <point x="74" y="668"/>
      <point x="78" y="631"/>
      <point x="78" y="592" type="curve" smooth="yes"/>
      <point x="78" y="49" type="line" smooth="yes"/>
      <point x="78" y="9"/>
      <point x="115" y="-10"/>
      <point x="186" y="-10" type="curve" smooth="yes"/>
      <point x="201" y="-10"/>
      <point x="212" y="-9"/>
      <point x="219" y="-8" type="curve"/>
      <point x="219" y="642" type="line" smooth="yes"/>
      <point x="219" y="666"/>
      <point x="215" y="679"/>
      <point x="204" y="690" type="curve" smooth="yes"/>
      <point x="190" y="705"/>
      <point x="168" y="710"/>
      <point x="124" y="710" type="curve" smooth="yes"/>
      <point x="102" y="710"/>
      <point x="86" y="708"/>
    </contour>
    <contour>
      <point x="544" y="-4" type="curve"/>
      <point x="536" y="32"/>
      <point x="532" y="69"/>
      <point x="532" y="108" type="curve" smooth="yes"/>
      <point x="532" y="651" type="line" smooth="yes"/>
      <point x="532" y="690"/>
      <point x="489" y="710"/>
      <point x="407" y="710" type="curve" smooth="yes"/>
      <point x="400" y="710"/>
      <point x="395" y="710"/>
      <point x="391" y="710" type="curve"/>
      <point x="391" y="58" type="line" smooth="yes"/>
      <point x="391" y="34"/>
      <point x="395" y="21"/>
      <point x="406" y="10" type="curve" smooth="yes"/>
      <point x="420" y="-5"/>
      <point x="442" y="-10"/>
      <point x="486" y="-10" type="curve" smooth="yes"/>
      <point x="508" y="-10"/>
      <point x="524" y="-8"/>
    </contour>
    <contour>
      <point x="29" y="383" type="line"/>
      <point x="29" y="360" type="line" smooth="yes"/>
      <point x="29" y="315"/>
      <point x="41" y="280"/>
      <point x="63" y="257" type="curve" smooth="yes"/>
      <point x="69" y="251"/>
      <point x="72" y="250"/>
      <point x="79" y="250" type="curve"/>
      <point x="425" y="250" type="line"/>
      <point x="425" y="349"/>
      <point x="398" y="383"/>
      <point x="323" y="383" type="curve" smooth="yes"/>
    </contour>
    <contour>
      <point x="286" y="711" type="move" name="top"/>
    </contour>
  </outline>
</glyph>
<glyph name="J" format="1">
  <advance width="600"/>
  <unicode hex="004A"/>
  <outline>
    <contour>
      <point x="130" y="700" type="line"/>
      <point x="128" y="692"/>
      <point x="126" y="681"/>
      <point x="126" y="668" type="curve" smooth="yes"/>
      <point x="126" y="634"/>
      <point x="134" y="608"/>
      <point x="152" y="590" type="curve" smooth="yes"/>
      <point x="171" y="572"/>
      <point x="196" y="567"/>
      <point x="257" y="567" type="curve" smooth="yes"/>
      <point x="448" y="567" type="line"/>
      <point x="448" y="664"/>
      <point x="425" y="700"/>
      <point x="382" y="700" type="curve"/>
    </contour>
    <contour>
      <point x="512" y="213" type="curve" smooth="yes"/>
      <point x="512" y="655" type="line" smooth="yes"/>
      <point x="512" y="681"/>
      <point x="480" y="700"/>
      <point x="401" y="700" type="curve" smooth="yes"/>
      <point x="371" y="700" type="line"/>
      <point x="371" y="230" type="line" smooth="yes"/>
      <point x="371" y="153"/>
      <point x="365" y="116"/>
      <point x="325" y="58" type="curve"/>
      <point x="420" y="20"/>
      <point x="512" y="123"/>
    </contour>
    <contour>
      <point x="284" y="113" type="curve" smooth="yes"/>
      <point x="204" y="113"/>
      <point x="169" y="131"/>
      <point x="99" y="167" type="curve"/>
      <point x="95" y="167" type="line"/>
      <point x="93" y="153"/>
      <point x="92" y="140"/>
      <point x="92" y="126" type="curve"/>
      <point x="92" y="67"/>
      <point x="107" y="35"/>
      <point x="121" y="22" type="curve" smooth="yes"/>
      <point x="149" y="-6"/>
      <point x="204" y="-20"/>
      <point x="253" y="-20" type="curve" smooth="yes"/>
      <point x="263" y="-20" type="line" smooth="yes"/>
      <point x="415" y="-20"/>
      <point x="512" y="98"/>
      <point x="512" y="213" type="curve"/>
      <point x="512" y="229"/>
      <point x="492" y="254"/>
      <point x="460" y="254" type="curve"/>
      <point x="429" y="167"/>
      <point x="363" y="113"/>
    </contour>
    <contour>
      <point x="301" y="711" type="move" name="top"/>
    </contour>
  </outline>
</glyph>
<glyph name="L" format="1">
  <advance width="600"/>
  <unicode hex="004C"/>
  <outline>
    <contour>
      <point x="212" y="64" type="curve"/>
      <point x="212" y="642" type="line" smooth="yes"/>
      <point x="212" y="666"/>
      <point x="208" y="679"/>
      <point x="197" y="690" type="curve" smooth="yes"/>
      <point x="183" y="705"/>
      <point x="161" y="710"/>
      <point x="117" y="710" type="curve" smooth="yes"/>
      <point x="96" y="710"/>
      <point x="79" y="708"/>
      <point x="59" y="704" type="curve"/>
      <point x="68" y="669"/>
      <point x="71" y="632"/>
      <point x="71" y="592" type="curve" smooth="yes"/>
      <point x="71" y="141" type="line" smooth="yes"/>
      <point x="71" y="104"/>
      <point x="123" y="64"/>
    </contour>
    <contour>
      <point x="71" y="141" type="line"/>
      <point x="71" y="116" type="line" smooth="yes"/>
      <point x="71" y="64"/>
      <point x="123" y="0"/>
      <point x="166" y="0" type="curve" smooth="yes"/>
      <point x="551" y="0" type="line"/>
      <point x="555" y="15"/>
      <point x="556" y="35"/>
      <point x="556" y="58" type="curve" smooth="yes"/>
      <point x="556" y="117"/>
      <point x="539" y="141"/>
      <point x="500" y="141" type="curve" smooth="yes"/>
    </contour>
    <contour>
      <point x="422" y="550" type="move" name="caronslovak"/>
    </contour>
    <contour>
      <point x="143" y="711" type="move" name="top"/>
    </contour>
    <contour>
      <point x="440" y="400" type="move" name="dot"/>
    </contour>
    <contour>
      <point x="307" y="-1" type="move" name="bottom"/>
    </contour>
  </outline>
</glyph>
<glyph name="M" format="1">
  <advance width="600"/>
  <unicode hex="004D"/>
  <outline>
    <contour>
      <point x="184" y="-8" type="curve"/>
      <point x="184" y="61"/>
      <point x="184" y="130"/>
      <point x="184" y="199" type="curve" smooth="yes"/>
      <point x="184" y="322"/>
      <point x="159" y="490"/>
      <point x="159" y="670" type="curve" smooth="yes"/>
      <point x="159" y="677"/>
      <point x="157" y="689"/>
      <point x="152" y="694" type="curve" smooth="yes"/>
      <point x="139" y="706"/>
      <point x="131" y="710"/>
      <point x="110" y="710" type="curve" smooth="yes"/>
      <point x="93" y="710"/>
      <point x="75" y="709"/>
      <point x="55" y="706" type="curve"/>
      <point x="58" y="672"/>
      <point x="59" y="636"/>
      <point x="59" y="600" type="curve" smooth="yes"/>
      <point x="59" y="48" type="line" smooth="yes"/>
      <point x="59" y="32"/>
      <point x="63" y="23"/>
      <point x="73" y="13" type="curve" smooth="yes"/>
      <point x="87" y="-1"/>
      <point x="126" y="-10"/>
      <point x="156" y="-10" type="curve" smooth="yes"/>
      <point x="167" y="-10"/>
      <point x="177" y="-9"/>
    </contour>
    <contour>
      <point x="550" y="-6" type="curve"/>
      <point x="543" y="28"/>
      <point x="541" y="63"/>
      <point x="541" y="100" type="curve" smooth="yes"/>
      <point x="541" y="664" type="line" smooth="yes"/>
      <point x="541" y="673"/>
      <point x="537" y="681"/>
      <point x="531" y="687" type="curve" smooth="yes"/>
      <point x="520" y="699"/>
      <point x="489" y="710"/>
      <point x="445" y="710" type="curve" smooth="yes"/>
      <point x="438" y="710" type="line"/>
      <point x="444" y="695"/>
      <point x="445" y="688"/>
      <point x="445" y="670" type="curve" smooth="yes"/>
      <point x="445" y="543"/>
      <point x="416" y="303"/>
      <point x="416" y="197" type="curve" smooth="yes"/>
      <point x="416" y="149"/>
      <point x="416" y="100"/>
      <point x="416" y="51" type="curve" smooth="yes"/>
      <point x="416" y="33"/>
      <point x="420" y="24"/>
      <point x="430" y="13" type="curve" smooth="yes"/>
      <point x="445" y="-1"/>
      <point x="482" y="-10"/>
      <point x="513" y="-10" type="curve"/>
      <point x="526" y="-10"/>
      <point x="536" y="-9"/>
    </contour>
    <contour>
      <point x="110" y="710" type="line"/>
      <point x="137" y="531"/>
      <point x="223" y="302"/>
      <point x="284" y="241" type="curve"/>
      <point x="288" y="237"/>
      <point x="293" y="236"/>
      <point x="298" y="236" type="curve"/>
      <point x="311" y="236"/>
      <point x="320" y="302"/>
      <point x="319" y="360" type="curve"/>
      <point x="273" y="415"/>
      <point x="231" y="530"/>
      <point x="210" y="676" type="curve"/>
      <point x="208" y="695"/>
      <point x="165" y="710"/>
      <point x="114" y="710" type="curve"/>
    </contour>
    <contour>
      <point x="438" y="710" type="curve" smooth="yes"/>
      <point x="422" y="710"/>
      <point x="410" y="709"/>
      <point x="397" y="706" type="curve"/>
      <point x="375" y="521"/>
      <point x="327" y="404"/>
      <point x="274" y="360" type="curve"/>
      <point x="261" y="350"/>
      <point x="274" y="236"/>
      <point x="298" y="236" type="curve"/>
      <point x="307" y="236" type="line"/>
      <point x="386" y="308"/>
      <point x="456" y="509"/>
      <point x="466" y="659" type="curve"/>
      <point x="468" y="692"/>
      <point x="456" y="710"/>
    </contour>
  </outline>
</glyph>
<glyph name="N" format="1">
  <advance width="600"/>
  <unicode hex="004E"/>
  <outline>
    <contour>
      <point x="200" y="-5" type="curve"/>
      <point x="200" y="166" type="line"/>
      <point x="200" y="465"/>
      <point x="173" y="676"/>
      <point x="153" y="695" type="curve" smooth="yes"/>
      <point x="146" y="702"/>
      <point x="134" y="710"/>
      <point x="127" y="710" type="curve"/>
      <point x="105" y="710"/>
      <point x="88" y="708"/>
      <point x="64" y="702" type="curve"/>
      <point x="72" y="666"/>
      <point x="76" y="629"/>
      <point x="76" y="592" type="curve" smooth="yes"/>
      <point x="76" y="49" type="line"/>
      <point x="76" y="6"/>
      <point x="129" y="-9"/>
      <point x="167" y="-9" type="curve"/>
      <point x="181" y="-9"/>
      <point x="190" y="-8"/>
    </contour>
    <contour>
      <point x="532" y="-10" type="line"/>
      <point x="532" y="657" type="line"/>
      <point x="532" y="693"/>
      <point x="487" y="710"/>
      <point x="430" y="710" type="curve"/>
      <point x="408" y="710" type="line"/>
      <point x="408" y="400" type="line"/>
      <point x="408" y="194"/>
      <point x="424" y="43"/>
      <point x="450" y="16" type="curve" smooth="yes"/>
      <point x="469" y="-2"/>
      <point x="492" y="-10"/>
      <point x="509" y="-10" type="curve"/>
    </contour>
    <contour>
      <point x="127" y="710" type="line"/>
      <point x="150" y="685"/>
      <point x="159" y="635"/>
      <point x="167" y="592" type="curve" smooth="yes"/>
      <point x="214" y="332"/>
      <point x="325" y="105"/>
      <point x="401" y="28" type="curve"/>
      <point x="426" y="4"/>
      <point x="465" y="-10"/>
      <point x="509" y="-10" type="curve" smooth="yes"/>
      <point x="513" y="-10"/>
      <point x="513" y="-10"/>
      <point x="517" y="-10" type="curve"/>
      <point x="522" y="-10"/>
      <point x="524" y="17"/>
      <point x="524" y="63" type="curve"/>
      <point x="362" y="210"/>
      <point x="297" y="434"/>
      <point x="241" y="670" type="curve"/>
      <point x="235" y="696"/>
      <point x="180" y="710"/>
      <point x="129" y="710" type="curve"/>
    </contour>
    <contour>
      <point x="300" y="712" type="move" name="top"/>
    </contour>
    <contour>
      <point x="298" y="-1" type="move" name="bottom"/>
    </contour>
  </outline>
</glyph>
<glyph name="O" format="1">
  <advance width="600"/>
  <unicode hex="004F"/>
  <outline>
    <contour>
      <point x="297" y="720" type="curve" smooth="yes"/>
      <point x="149" y="720"/>
      <point x="53" y="584"/>
      <point x="53" y="341" type="curve" smooth="yes"/>
      <point x="53" y="322" type="line" smooth="yes"/>
      <point x="53" y="95"/>
      <point x="139" y="-20"/>
      <point x="303" y="-20" type="curve" smooth="yes"/>
      <point x="340" y="-20"/>
      <point x="365" y="22"/>
      <point x="365" y="83" type="curve"/>
      <point x="235" y="84"/>
      <point x="185" y="154"/>
      <point x="185" y="301" type="curve" smooth="yes"/>
      <point x="185" y="316" type="line" smooth="yes"/>
      <point x="185" y="490"/>
      <point x="226" y="588"/>
      <point x="308" y="588" type="curve" smooth="yes"/>
      <point x="348" y="588"/>
      <point x="379" y="574"/>
      <point x="419" y="541" type="curve"/>
      <point x="473" y="592"/>
      <point x="391" y="720"/>
    </contour>
    <contour>
      <point x="303" y="-20" type="curve" smooth="yes"/>
      <point x="451" y="-20"/>
      <point x="547" y="113"/>
      <point x="547" y="352" type="curve" smooth="yes"/>
      <point x="547" y="371" type="line" smooth="yes"/>
      <point x="547" y="602"/>
      <point x="461" y="720"/>
      <point x="297" y="720" type="curve" smooth="yes"/>
      <point x="260" y="720"/>
      <point x="235" y="678"/>
      <point x="235" y="617" type="curve"/>
      <point x="365" y="616"/>
      <point x="415" y="544"/>
      <point x="415" y="392" type="curve" smooth="yes"/>
      <point x="415" y="377" type="line" smooth="yes"/>
      <point x="415" y="207"/>
      <point x="374" y="112"/>
      <point x="292" y="112" type="curve" smooth="yes"/>
      <point x="252" y="112"/>
      <point x="218" y="123"/>
      <point x="181" y="159" type="curve"/>
      <point x="123" y="105"/>
      <point x="209" y="-20"/>
    </contour>
    <contour>
      <point x="300" y="712" type="move" name="top"/>
    </contour>
    <contour>
      <point x="413" y="17" type="move" name="ogonek"/>
    </contour>
    <contour>
      <point x="300" y="-1" type="move" name="bottom"/>
    </contour>
  </outline>
</glyph>
<glyph name="Q" format="1">
  <advance width="600"/>
  <unicode hex="0051"/>
  <outline>
    <contour>
      <point x="297" y="720" type="curve" smooth="yes"/>
      <point x="149" y="720"/>
      <point x="53" y="584"/>
      <point x="53" y="341" type="curve" smooth="yes"/>
      <point x="53" y="322" type="line" smooth="yes"/>
      <point x="53" y="95"/>
      <point x="139" y="-20"/>
      <point x="303" y="-20" type="curve" smooth="yes"/>
      <point x="341" y="-20"/>
      <point x="365" y="22"/>
      <point x="365" y="83" type="curve"/>
      <point x="235" y="84"/>
      <point x="185" y="154"/>
      <point x="185" y="301" type="curve" smooth="yes"/>
      <point x="185" y="316" type="line" smooth="yes"/>
      <point x="185" y="490"/>
      <point x="226" y="588"/>
      <point x="308" y="588" type="curve" smooth="yes"/>
      <point x="348" y="588"/>
      <point x="379" y="574"/>
      <point x="419" y="541" type="curve"/>
      <point x="473" y="591"/>
      <point x="391" y="720"/>
    </contour>
    <contour>
      <point x="303" y="-20" type="curve" smooth="yes"/>
      <point x="451" y="-20"/>
      <point x="547" y="113"/>
      <point x="547" y="352" type="curve" smooth="yes"/>
      <point x="547" y="371" type="line" smooth="yes"/>
      <point x="547" y="602"/>
      <point x="461" y="720"/>
      <point x="297" y="720" type="curve" smooth="yes"/>
      <point x="259" y="720"/>
      <point x="235" y="678"/>
      <point x="235" y="617" type="curve"/>
      <point x="365" y="616"/>
      <point x="415" y="544"/>
      <point x="415" y="392" type="curve" smooth="yes"/>
      <point x="415" y="377" type="line" smooth="yes"/>
      <point x="415" y="207"/>
      <point x="374" y="112"/>
      <point x="292" y="112" type="curve" smooth="yes"/>
      <point x="252" y="112"/>
      <point x="218" y="123"/>
      <point x="181" y="159" type="curve"/>
      <point x="123" y="105"/>
      <point x="209" y="-20"/>
    </contour>
    <contour>
      <point x="401" y="128" type="line"/>
      <point x="320" y="84"/>
      <point x="304" y="55"/>
      <point x="318" y="28" type="curve" smooth="yes"/>
      <point x="376" y="-77" type="line" smooth="yes"/>
      <point x="414" y="-145"/>
      <point x="452" y="-181"/>
      <point x="502" y="-181" type="curve" smooth="yes"/>
      <point x="507" y="-181" type="line" smooth="yes"/>
      <point x="557" y="-181"/>
      <point x="582" y="-152"/>
      <point x="582" y="-73" type="curve" smooth="yes"/>
      <point x="582" y="-49"/>
      <point x="580" y="-31"/>
      <point x="575" y="-12" type="curve"/>
      <point x="571" y="-12" type="line"/>
      <point x="560" y="-20"/>
      <point x="550" y="-23"/>
      <point x="533" y="-23" type="curve" smooth="yes"/>
      <point x="501" y="-23"/>
      <point x="485" y="-12"/>
      <point x="467" y="17" type="curve" smooth="yes"/>
    </contour>
  </outline>
</glyph>
<glyph name="T" format="1">
  <advance width="600"/>
  <unicode hex="0054"/>
  <outline>
    <contour>
      <point x="36" y="700" type="line"/>
      <point x="33" y="692"/>
      <point x="32" y="681"/>
      <point x="32" y="671" type="curve" smooth="yes"/>
      <point x="32" y="645"/>
      <point x="39" y="609"/>
      <point x="58" y="591" type="curve" smooth="yes"/>
      <point x="76" y="572"/>
      <point x="105" y="567"/>
      <point x="174" y="567" type="curve" smooth="yes"/>
      <point x="556" y="567" type="line"/>
      <point x="560" y="580"/>
      <point x="562" y="598"/>
      <point x="562" y="618" type="curve" smooth="yes"/>
      <point x="562" y="664"/>
      <point x="554" y="700"/>
      <point x="506" y="700" type="curve" smooth="yes"/>
    </contour>
    <contour>
      <point x="383" y="-4" type="curve"/>
      <point x="374" y="32"/>
      <point x="371" y="69"/>
      <point x="371" y="108" type="curve" smooth="yes"/>
      <point x="371" y="499" type="line" smooth="yes"/>
      <point x="371" y="575"/>
      <point x="336" y="600"/>
      <point x="229" y="600" type="curve"/>
      <point x="229" y="58" type="line" smooth="yes"/>
      <point x="229" y="34"/>
      <point x="233" y="21"/>
      <point x="244" y="10" type="curve" smooth="yes"/>
      <point x="258" y="-5"/>
      <point x="280" y="-10"/>
      <point x="324" y="-10" type="curve" smooth="yes"/>
      <point x="346" y="-10"/>
      <point x="362" y="-8"/>
    </contour>
    <contour>
      <point x="297" y="711" type="move" name="top"/>
    </contour>
    <contour>
      <point x="300" y="-1" type="move" name="bottom"/>
    </contour>
  </outline>
</glyph>
<glyph name="U" format="1">
  <advance width="600"/>
  <unicode hex="0055"/>
  <outline>
    <contour>
      <point x="49" y="704" type="curve"/>
      <point x="59" y="669"/>
      <point x="63" y="630"/>
      <point x="63" y="587" type="curve" smooth="yes"/>
      <point x="63" y="142" type="line"/>
      <point x="63" y="100"/>
      <point x="106" y="86"/>
      <point x="174" y="89" type="curve"/>
      <point x="202" y="293"/>
      <point x="212" y="409"/>
      <point x="212" y="549" type="curve" smooth="yes"/>
      <point x="212" y="558" type="line"/>
      <point x="212" y="675"/>
      <point x="178" y="710"/>
      <point x="106" y="710" type="curve"/>
      <point x="85" y="710"/>
      <point x="69" y="708"/>
    </contour>
    <contour>
      <point x="207" y="-12" type="curve" smooth="yes"/>
      <point x="278" y="-12"/>
      <point x="353" y="25"/>
      <point x="408" y="117" type="curve" smooth="yes"/>
      <point x="441" y="176"/>
      <point x="434" y="209"/>
      <point x="411" y="258" type="curve"/>
      <point x="364" y="157"/>
      <point x="302" y="138"/>
      <point x="229" y="138" type="curve" smooth="yes"/>
      <point x="190" y="138"/>
      <point x="167" y="156"/>
      <point x="157" y="201" type="curve"/>
      <point x="126" y="199"/>
      <point x="63" y="173"/>
      <point x="63" y="142" type="curve" smooth="yes"/>
      <point x="63" y="70"/>
      <point x="136" y="-12"/>
    </contour>
    <contour>
      <point x="547" y="-4" type="curve"/>
      <point x="539" y="29"/>
      <point x="537" y="64"/>
      <point x="537" y="101" type="curve" smooth="yes"/>
      <point x="537" y="657" type="line" smooth="yes"/>
      <point x="537" y="694"/>
      <point x="502" y="710"/>
      <point x="433" y="710" type="curve" smooth="yes"/>
      <point x="417" y="710"/>
      <point x="408" y="709"/>
      <point x="395" y="707" type="curve"/>
      <point x="395" y="362" type="line" smooth="yes"/>
      <point x="395" y="128"/>
      <point x="412" y="46"/>
      <point x="446" y="13" type="curve" smooth="yes"/>
      <point x="463" y="-5"/>
      <point x="482" y="-10"/>
      <point x="505" y="-10" type="curve" smooth="yes"/>
      <point x="521" y="-10"/>
      <point x="533" y="-8"/>
    </contour>
    <contour>
      <point x="300" y="712" type="move" name="top"/>
    </contour>
    <contour>
      <point x="548" y="-4" type="move" name="ogonek"/>
    </contour>
    <contour>
      <point x="299" y="707" type="move" name="ring"/>
    </contour>
    <contour>
      <point x="298" y="-1" type="move" name="bottom"/>
    </contour>
  </outline>
</glyph>
<glyph name="V" format="1">
  <advance width="600"/>
  <unicode hex="0056"/>
  <outline>
    <contour>
      <point x="73" y="710" type="curve"/>
      <point x="51" y="710" type="line"/>
      <point x="64" y="357"/>
      <point x="109" y="144"/>
      <point x="220" y="33" type="curve" smooth="yes"/>
      <point x="258" y="-4"/>
      <point x="288" y="-10"/>
      <point x="315" y="-10" type="curve" smooth="yes"/>
      <point x="331" y="-10" type="line" smooth="yes"/>
      <point x="352" y="-10"/>
      <point x="380" y="21"/>
      <point x="394" y="67" type="curve"/>
      <point x="390" y="67"/>
      <point x="388" y="67"/>
      <point x="385" y="67" type="curve" smooth="yes"/>
      <point x="378" y="67"/>
      <point x="372" y="69"/>
      <point x="361" y="76" type="curve"/>
      <point x="250" y="162"/>
      <point x="211" y="282"/>
      <point x="193" y="665" type="curve"/>
      <point x="192" y="691"/>
      <point x="131" y="710"/>
    </contour>
    <contour>
      <point x="431" y="710" type="curve"/>
      <point x="410" y="710" type="line"/>
      <point x="387" y="326"/>
      <point x="369" y="189"/>
      <point x="262" y="98" type="curve"/>
      <point x="237" y="78"/>
      <point x="267" y="-10"/>
      <point x="325" y="-10" type="curve"/>
      <point x="353" y="-10" type="line"/>
      <point x="475" y="93"/>
      <point x="529" y="320"/>
      <point x="546" y="644" type="curve"/>
      <point x="548" y="682"/>
      <point x="490" y="710"/>
    </contour>
  </outline>
</glyph>
<glyph name="W" format="1">
  <advance width="600"/>
  <unicode hex="0057"/>
  <outline>
    <contour>
      <point x="31" y="710" type="curve"/>
      <point x="31" y="236"/>
      <point x="60" y="92"/>
      <point x="141" y="11" type="curve"/>
      <point x="154" y="-3"/>
      <point x="172" y="-10"/>
      <point x="190" y="-10" type="curve"/>
      <point x="194" y="-10" type="line" smooth="yes"/>
      <point x="206" y="-10"/>
      <point x="225" y="69"/>
      <point x="225" y="100" type="curve"/>
      <point x="175" y="139"/>
      <point x="167" y="210"/>
      <point x="167" y="657" type="curve"/>
      <point x="167" y="669"/>
      <point x="164" y="676"/>
      <point x="154" y="686" type="curve" smooth="yes"/>
      <point x="142" y="698"/>
      <point x="107" y="710"/>
      <point x="52" y="710" type="curve"/>
      <point x="45" y="710"/>
      <point x="38" y="710"/>
    </contour>
    <contour>
      <point x="433" y="710" type="curve"/>
      <point x="433" y="200"/>
      <point x="421" y="148"/>
      <point x="381" y="98" type="curve"/>
      <point x="383" y="43"/>
      <point x="405" y="-10"/>
      <point x="436" y="-10" type="curve"/>
      <point x="456" y="-10" type="line"/>
      <point x="529" y="125"/>
      <point x="569" y="265"/>
      <point x="569" y="651" type="curve"/>
      <point x="569" y="668"/>
      <point x="567" y="676"/>
      <point x="557" y="686" type="curve" smooth="yes"/>
      <point x="543" y="700"/>
      <point x="510" y="710"/>
      <point x="455" y="710" type="curve"/>
      <point x="448" y="710"/>
      <point x="440" y="710"/>
    </contour>
    <contour>
      <point x="279" y="538" type="curve"/>
      <point x="260" y="538" type="line"/>
      <point x="260" y="265"/>
      <point x="226" y="178"/>
      <point x="153" y="48" type="curve"/>
      <point x="154" y="16"/>
      <point x="164" y="-10"/>
      <point x="190" y="-10" type="curve"/>
      <point x="211" y="-10" type="line"/>
      <point x="291" y="129"/>
      <point x="326" y="284"/>
      <point x="326" y="491" type="curve"/>
      <point x="326" y="522"/>
      <point x="301" y="538"/>
    </contour>
    <contour>
      <point x="279" y="538" type="curve"/>
      <point x="274" y="538" type="line"/>
      <point x="281" y="244"/>
      <point x="311" y="102"/>
      <point x="390" y="6" type="curve"/>
      <point x="399" y="-5"/>
      <point x="411" y="-10"/>
      <point x="423" y="-10" type="curve"/>
      <point x="437" y="-10" type="line"/>
      <point x="452" y="-10"/>
      <point x="468" y="26"/>
      <point x="468" y="45" type="curve"/>
      <point x="403" y="99"/>
      <point x="342" y="245"/>
      <point x="342" y="501" type="curve"/>
      <point x="342" y="521"/>
      <point x="317" y="538"/>
    </contour>
    <contour>
      <point x="300" y="711" type="move" name="top"/>
    </contour>
  </outline>
</glyph>
<glyph name="X" format="1">
  <advance width="600"/>
  <unicode hex="0058"/>
  <outline>
    <contour>
      <point x="527" y="-9" type="curve" smooth="yes"/>
      <point x="548" y="-9"/>
      <point x="565" y="-7"/>
      <point x="581" y="-4" type="curve"/>
      <point x="508" y="80"/>
      <point x="431" y="199"/>
      <point x="362" y="322" type="curve" smooth="yes"/>
      <point x="350" y="345"/>
      <point x="338" y="367"/>
      <point x="327" y="389" type="curve" smooth="yes"/>
      <point x="275" y="488"/>
      <point x="232" y="586"/>
      <point x="204" y="664" type="curve" smooth="yes"/>
      <point x="192" y="701"/>
      <point x="139" y="709"/>
      <point x="40" y="709" type="curve" smooth="yes"/>
      <point x="18" y="709" type="line"/>
      <point x="67" y="586"/>
      <point x="142" y="433"/>
      <point x="222" y="294" type="curve" smooth="yes"/>
      <point x="234" y="274"/>
      <point x="245" y="254"/>
      <point x="257" y="234" type="curve" smooth="yes"/>
      <point x="303" y="158"/>
      <point x="349" y="89"/>
      <point x="391" y="36" type="curve" smooth="yes"/>
      <point x="417" y="1"/>
      <point x="461" y="-9"/>
    </contour>
    <contour>
      <point x="450" y="709" type="curve"/>
      <point x="429" y="709" type="line"/>
      <point x="392" y="554"/>
      <point x="345" y="447"/>
      <point x="279" y="368" type="curve"/>
      <point x="244" y="327"/>
      <point x="277" y="270"/>
      <point x="339" y="271" type="curve"/>
      <point x="463" y="391"/>
      <point x="517" y="504"/>
      <point x="563" y="649" type="curve"/>
      <point x="567" y="661"/>
      <point x="565" y="668"/>
      <point x="559" y="674" type="curve" smooth="yes"/>
      <point x="535" y="699"/>
      <point x="491" y="709"/>
    </contour>
    <contour>
      <point x="157" y="-9" type="curve" smooth="yes"/>
      <point x="169" y="-9" type="line"/>
      <point x="199" y="95"/>
      <point x="245" y="183"/>
      <point x="307" y="247" type="curve"/>
      <point x="337" y="278"/>
      <point x="314" y="357"/>
      <point x="259" y="364" type="curve"/>
      <point x="146" y="256"/>
      <point x="78" y="148"/>
      <point x="33" y="54" type="curve"/>
      <point x="26" y="40"/>
      <point x="30" y="32"/>
      <point x="36" y="25" type="curve" smooth="yes"/>
      <point x="61" y="0"/>
      <point x="111" y="-9"/>
    </contour>
  </outline>
</glyph>
<glyph name="Y" format="1">
  <advance width="600"/>
  <unicode hex="0059"/>
  <outline>
    <contour>
      <point x="47" y="710" type="line"/>
      <point x="73" y="470"/>
      <point x="122" y="331"/>
      <point x="217" y="236" type="curve"/>
      <point x="252" y="201"/>
      <point x="282" y="197"/>
      <point x="307" y="197" type="curve"/>
      <point x="348" y="197"/>
      <point x="372" y="211"/>
      <point x="372" y="278" type="curve"/>
      <point x="265" y="348"/>
      <point x="221" y="436"/>
      <point x="193" y="665" type="curve"/>
      <point x="190" y="691"/>
      <point x="127" y="710"/>
      <point x="68" y="710" type="curve" smooth="yes"/>
    </contour>
    <contour>
      <point x="415" y="710" type="line"/>
      <point x="391" y="474"/>
      <point x="358" y="384"/>
      <point x="254" y="295" type="curve"/>
      <point x="228" y="274"/>
      <point x="257" y="197"/>
      <point x="307" y="197" type="curve"/>
      <point x="345" y="197" type="line"/>
      <point x="448" y="287"/>
      <point x="528" y="446"/>
      <point x="548" y="644" type="curve"/>
      <point x="552" y="682"/>
      <point x="494" y="710"/>
      <point x="437" y="710" type="curve"/>
    </contour>
    <contour>
      <point x="383" y="-4" type="curve"/>
      <point x="374" y="32"/>
      <point x="371" y="69"/>
      <point x="371" y="108" type="curve" smooth="yes"/>
      <point x="371" y="251" type="line" smooth="yes"/>
      <point x="371" y="286"/>
      <point x="310" y="311"/>
      <point x="229" y="311" type="curve"/>
      <point x="229" y="58" type="line" smooth="yes"/>
      <point x="229" y="34"/>
      <point x="233" y="21"/>
      <point x="244" y="10" type="curve" smooth="yes"/>
      <point x="258" y="-5"/>
      <point x="280" y="-10"/>
      <point x="324" y="-10" type="curve" smooth="yes"/>
      <point x="346" y="-10"/>
      <point x="362" y="-8"/>
    </contour>
    <contour>
      <point x="300" y="712" type="move" name="top"/>
    </contour>
  </outline>
</glyph>
<glyph name="Z" format="1">
  <advance width="600"/>
  <unicode hex="005A"/>
  <outline>
    <contour>
      <point x="106" y="700" type="line"/>
      <point x="104" y="692"/>
      <point x="102" y="679"/>
      <point x="102" y="666" type="curve" smooth="yes"/>
      <point x="102" y="628"/>
      <point x="110" y="599"/>
      <point x="128" y="581" type="curve" smooth="yes"/>
      <point x="140" y="570"/>
      <point x="147" y="567"/>
      <point x="165" y="567" type="curve" smooth="yes"/>
      <point x="367" y="567" type="line" smooth="yes"/>
      <point x="439" y="567"/>
      <point x="478" y="549"/>
      <point x="519" y="508" type="curve" smooth="yes"/>
      <point x="537" y="527"/>
      <point x="548" y="543"/>
      <point x="548" y="555" type="curve"/>
      <point x="548" y="563" type="line" smooth="yes"/>
      <point x="548" y="632"/>
      <point x="493" y="700"/>
      <point x="437" y="700" type="curve" smooth="yes"/>
    </contour>
    <contour>
      <point x="430" y="615" type="curve"/>
      <point x="354" y="427"/>
      <point x="272" y="324"/>
      <point x="52" y="125" type="curve"/>
      <point x="52" y="88"/>
      <point x="115" y="73"/>
      <point x="164" y="95" type="curve" smooth="yes"/>
      <point x="314" y="177"/>
      <point x="548" y="473"/>
      <point x="548" y="555" type="curve"/>
      <point x="548" y="596"/>
      <point x="511" y="614"/>
    </contour>
    <contour>
      <point x="546" y="0" type="line"/>
      <point x="547" y="7"/>
      <point x="548" y="16"/>
      <point x="548" y="27" type="curve" smooth="yes"/>
      <point x="548" y="67"/>
      <point x="538" y="95"/>
      <point x="516" y="117" type="curve" smooth="yes"/>
      <point x="504" y="129"/>
      <point x="495" y="133"/>
      <point x="474" y="133" type="curve" smooth="yes"/>
      <point x="371" y="133" type="line" smooth="yes"/>
      <point x="272" y="133"/>
      <point x="147" y="130"/>
      <point x="52" y="125" type="curve"/>
      <point x="52" y="110" type="line" smooth="yes"/>
      <point x="52" y="42"/>
      <point x="70" y="0"/>
      <point x="101" y="0" type="curve" smooth="yes"/>
    </contour>
    <contour>
      <point x="195" y="470" type="curve"/>
      <point x="195" y="573"/>
      <point x="210" y="618"/>
      <point x="210" y="671" type="curve"/>
      <point x="210" y="698"/>
      <point x="158" y="720"/>
      <point x="97" y="720" type="curve" smooth="yes"/>
      <point x="90" y="720" type="line"/>
      <point x="72" y="659"/>
      <point x="63" y="592"/>
      <point x="63" y="521" type="curve"/>
      <point x="63" y="479"/>
      <point x="86" y="465"/>
      <point x="145" y="465" type="curve" smooth="yes"/>
      <point x="164" y="465"/>
      <point x="182" y="467"/>
    </contour>
    <contour>
      <point x="300" y="711" type="move" name="top"/>
    </contour>
  </outline>
</glyph>
<glyph name="bracketleft" format="1">
  <advance width="600"/>
  <unicode hex="005B"/>
  <outline>
    <contour>
      <point x="205" y="642" type="curve" smooth="yes"/>
      <point x="205" y="-31" type="line" smooth="yes"/>
      <point x="205" y="-77"/>
      <point x="283" y="-86"/>
      <point x="346" y="-86" type="curve"/>
      <point x="346" y="695" type="line" smooth="yes"/>
      <point x="346" y="749"/>
      <point x="327" y="760"/>
      <point x="253" y="760" type="curve" smooth="yes"/>
      <point x="231" y="760"/>
      <point x="213" y="758"/>
      <point x="193" y="754" type="curve"/>
      <point x="201" y="718"/>
      <point x="205" y="681"/>
    </contour>
    <contour>
      <point x="512" y="627" type="line"/>
      <point x="516" y="640"/>
      <point x="518" y="656"/>
      <point x="518" y="675" type="curve" smooth="yes"/>
      <point x="518" y="694"/>
      <point x="514" y="732"/>
      <point x="497" y="749" type="curve" smooth="yes"/>
      <point x="488" y="758"/>
      <point x="481" y="760"/>
      <point x="466" y="760" type="curve" smooth="yes"/>
      <point x="253" y="760" type="line"/>
      <point x="253" y="672"/>
      <point x="299" y="627"/>
      <point x="405" y="627" type="curve"/>
    </contour>
    <contour>
      <point x="514" y="-161" type="line"/>
      <point x="517" y="-148"/>
      <point x="519" y="-131"/>
      <point x="519" y="-111" type="curve" smooth="yes"/>
      <point x="519" y="-52"/>
      <point x="503" y="-28"/>
      <point x="464" y="-28" type="curve" smooth="yes"/>
      <point x="205" y="-28" type="line"/>
      <point x="205" y="-45" type="line" smooth="yes"/>
      <point x="205" y="-97"/>
      <point x="257" y="-161"/>
      <point x="299" y="-161" type="curve" smooth="yes"/>
    </contour>
  </outline>
</glyph>
<glyph name="backslash" format="1">
  <advance width="600"/>
  <unicode hex="005C"/>
  <outline>
    <contour>
      <point x="48" y="751" type="curve"/>
      <point x="117" y="443"/>
      <point x="222" y="172"/>
      <point x="362" y="-64" type="curve" smooth="yes"/>
      <point x="391" y="-113"/>
      <point x="427" y="-136"/>
      <point x="474" y="-136" type="curve" smooth="yes"/>
      <point x="504" y="-136"/>
      <point x="525" y="-130"/>
      <point x="550" y="-116" type="curve"/>
      <point x="529" y="-94"/>
      <point x="511" y="-69"/>
      <point x="493" y="-35" type="curve"/>
      <point x="364" y="193"/>
      <point x="268" y="442"/>
      <point x="206" y="711" type="curve"/>
      <point x="197" y="747"/>
      <point x="163" y="766"/>
      <point x="110" y="766" type="curve" smooth="yes"/>
      <point x="88" y="766"/>
      <point x="71" y="761"/>
    </contour>
  </outline>
</glyph>
<glyph name="bracketright" format="1">
  <advance width="600"/>
  <unicode hex="005D"/>
  <outline>
    <contour>
      <point x="395" y="-43" type="curve" smooth="yes"/>
      <point x="395" y="630" type="line" smooth="yes"/>
      <point x="395" y="676"/>
      <point x="317" y="685"/>
      <point x="254" y="685" type="curve"/>
      <point x="254" y="-96" type="line" smooth="yes"/>
      <point x="254" y="-150"/>
      <point x="273" y="-161"/>
      <point x="347" y="-161" type="curve" smooth="yes"/>
      <point x="369" y="-161"/>
      <point x="387" y="-159"/>
      <point x="407" y="-155" type="curve"/>
      <point x="399" y="-119"/>
      <point x="395" y="-82"/>
    </contour>
    <contour>
      <point x="88" y="-28" type="line"/>
      <point x="84" y="-41"/>
      <point x="82" y="-57"/>
      <point x="82" y="-76" type="curve" smooth="yes"/>
      <point x="82" y="-95"/>
      <point x="86" y="-133"/>
      <point x="103" y="-150" type="curve" smooth="yes"/>
      <point x="112" y="-159"/>
      <point x="119" y="-161"/>
      <point x="134" y="-161" type="curve" smooth="yes"/>
      <point x="347" y="-161" type="line"/>
      <point x="347" y="-73"/>
      <point x="301" y="-28"/>
      <point x="195" y="-28" type="curve"/>
    </contour>
    <contour>
      <point x="86" y="760" type="line"/>
      <point x="83" y="747"/>
      <point x="81" y="730"/>
      <point x="81" y="710" type="curve" smooth="yes"/>
      <point x="81" y="651"/>
      <point x="97" y="627"/>
      <point x="136" y="627" type="curve" smooth="yes"/>
      <point x="395" y="627" type="line"/>
      <point x="395" y="644" type="line" smooth="yes"/>
      <point x="395" y="696"/>
      <point x="343" y="760"/>
      <point x="301" y="760" type="curve" smooth="yes"/>
    </contour>
  </outline>
</glyph>
<glyph name="underscore" format="1">
  <advance width="600"/>
  <unicode hex="005F"/>
  <outline>
    <contour>
      <point x="52" y="-59" type="line"/>
      <point x="52" y="-64"/>
      <point x="52" y="-70"/>
      <point x="52" y="-76" type="curve" smooth="yes"/>
      <point x="52" y="-128"/>
      <point x="59" y="-158"/>
      <point x="75" y="-174" type="curve" smooth="yes"/>
      <point x="88" y="-187"/>
      <point x="105" y="-191"/>
      <point x="144" y="-191" type="curve"/>
      <point x="552" y="-191" type="line"/>
      <point x="556" y="-174"/>
      <point x="558" y="-154"/>
      <point x="558" y="-138" type="curve" smooth="yes"/>
      <point x="558" y="-79"/>
      <point x="543" y="-59"/>
      <point x="494" y="-59" type="curve"/>
    </contour>
  </outline>
</glyph>
<glyph name="grave" format="1">
  <advance width="600"/>
  <unicode hex="0060"/>
  <outline>
    <contour>
      <point x="437" y="413" type="curve"/>
      <point x="389" y="488"/>
      <point x="352" y="609"/>
      <point x="342" y="713" type="curve"/>
      <point x="316" y="718"/>
      <point x="300" y="720"/>
      <point x="277" y="720" type="curve" smooth="yes"/>
      <point x="210" y="720"/>
      <point x="167" y="707"/>
      <point x="167" y="649" type="curve" smooth="yes"/>
      <point x="167" y="586"/>
      <point x="232" y="446"/>
      <point x="293" y="396" type="curve" smooth="yes"/>
      <point x="305" y="387"/>
      <point x="319" y="382"/>
      <point x="339" y="382" type="curve" smooth="yes"/>
      <point x="381" y="382"/>
      <point x="410" y="391"/>
    </contour>
  </outline>
</glyph>
<glyph name="b" format="1">
  <advance width="600"/>
  <unicode hex="0062"/>
  <outline>
    <contour>
      <point x="73" y="0" type="line"/>
      <point x="86" y="-4"/>
      <point x="103" y="-6"/>
      <point x="124" y="-6" type="curve" smooth="yes"/>
      <point x="182" y="-6"/>
      <point x="206" y="19"/>
      <point x="206" y="71" type="curve" smooth="yes"/>
      <point x="206" y="630" type="line"/>
      <point x="206" y="720"/>
      <point x="179" y="757"/>
      <point x="96" y="757" type="curve" smooth="yes"/>
      <point x="84" y="757"/>
      <point x="72" y="756"/>
      <point x="60" y="752" type="curve"/>
      <point x="69" y="718"/>
      <point x="73" y="689"/>
      <point x="73" y="649" type="curve" smooth="yes"/>
    </contour>
    <contour>
      <point x="398" y="549" type="curve" smooth="yes"/>
      <point x="306" y="549"/>
      <point x="212" y="461"/>
      <point x="185" y="360" type="curve" smooth="yes"/>
      <point x="173" y="314"/>
      <point x="179" y="251"/>
      <point x="195" y="215" type="curve"/>
      <point x="241" y="358"/>
      <point x="303" y="407"/>
      <point x="383" y="407" type="curve" smooth="yes"/>
      <point x="414" y="407"/>
      <point x="453" y="384"/>
      <point x="507" y="319" type="curve"/>
      <point x="540" y="322"/>
      <point x="554" y="332"/>
      <point x="554" y="342" type="curve" smooth="yes"/>
      <point x="554" y="456"/>
      <point x="480" y="549"/>
    </contour>
    <contour>
      <point x="343" y="-12" type="curve" smooth="yes"/>
      <point x="448" y="-12"/>
      <point x="554" y="86"/>
      <point x="554" y="321" type="curve" smooth="yes"/>
      <point x="554" y="342" type="line" smooth="yes"/>
      <point x="554" y="394"/>
      <point x="514" y="473"/>
      <point x="437" y="473" type="curve"/>
      <point x="413" y="473"/>
      <point x="394" y="460"/>
      <point x="393" y="422" type="curve"/>
      <point x="412" y="398"/>
      <point x="417" y="376"/>
      <point x="417" y="312" type="curve" smooth="yes"/>
      <point x="417" y="302" type="line" smooth="yes"/>
      <point x="417" y="181"/>
      <point x="378" y="116"/>
      <point x="298" y="116" type="curve" smooth="yes"/>
      <point x="250" y="116"/>
      <point x="219" y="133"/>
      <point x="190" y="164" type="curve"/>
      <point x="178" y="140"/>
      <point x="176" y="98"/>
      <point x="194" y="70" type="curve" smooth="yes"/>
      <point x="215" y="31"/>
      <point x="271" y="-12"/>
    </contour>
  </outline>
</glyph>
<glyph name="d" format="1">
  <advance width="600"/>
  <unicode hex="0064"/>
  <outline>
    <contour>
      <point x="257" y="549" type="curve" smooth="yes"/>
      <point x="152" y="549"/>
      <point x="46" y="452"/>
      <point x="46" y="217" type="curve" smooth="yes"/>
      <point x="46" y="196" type="line" smooth="yes"/>
      <point x="46" y="143"/>
      <point x="86" y="65"/>
      <point x="163" y="65" type="curve" smooth="yes"/>
      <point x="187" y="65"/>
      <point x="206" y="78"/>
      <point x="207" y="116" type="curve"/>
      <point x="188" y="140"/>
      <point x="183" y="161"/>
      <point x="183" y="225" type="curve" smooth="yes"/>
      <point x="183" y="236" type="line" smooth="yes"/>
      <point x="183" y="357"/>
      <point x="222" y="421"/>
      <point x="302" y="421" type="curve" smooth="yes"/>
      <point x="350" y="421"/>
      <point x="381" y="405"/>
      <point x="410" y="373" type="curve"/>
      <point x="422" y="398"/>
      <point x="424" y="440"/>
      <point x="406" y="468" type="curve" smooth="yes"/>
      <point x="385" y="507"/>
      <point x="329" y="549"/>
    </contour>
    <contour>
      <point x="202" y="-12" type="curve" smooth="yes"/>
      <point x="294" y="-12"/>
      <point x="388" y="76"/>
      <point x="415" y="177" type="curve" smooth="yes"/>
      <point x="427" y="224"/>
      <point x="421" y="287"/>
      <point x="405" y="323" type="curve"/>
      <point x="359" y="180"/>
      <point x="297" y="130"/>
      <point x="217" y="130" type="curve" smooth="yes"/>
      <point x="186" y="130"/>
      <point x="147" y="153"/>
      <point x="93" y="219" type="curve"/>
      <point x="60" y="215"/>
      <point x="46" y="205"/>
      <point x="46" y="196" type="curve" smooth="yes"/>
      <point x="46" y="81"/>
      <point x="120" y="-12"/>
    </contour>
    <contour>
      <point x="383" y="751" type="curve"/>
      <point x="392" y="716"/>
      <point x="394" y="689"/>
      <point x="394" y="650" type="curve" smooth="yes"/>
      <point x="394" y="188" type="line"/>
      <point x="394" y="106"/>
      <point x="417" y="48"/>
      <point x="443" y="22" type="curve" smooth="yes"/>
      <point x="462" y="4"/>
      <point x="483" y="-4"/>
      <point x="506" y="-4" type="curve" smooth="yes"/>
      <point x="518" y="-4"/>
      <point x="527" y="-3"/>
      <point x="540" y="0" type="curve"/>
      <point x="531" y="34"/>
      <point x="527" y="62"/>
      <point x="527" y="103" type="curve" smooth="yes"/>
      <point x="527" y="692" type="line"/>
      <point x="527" y="711"/>
      <point x="523" y="726"/>
      <point x="513" y="735" type="curve" smooth="yes"/>
      <point x="496" y="753"/>
      <point x="472" y="756"/>
      <point x="438" y="756" type="curve" smooth="yes"/>
      <point x="418" y="756"/>
      <point x="399" y="755"/>
    </contour>
    <contour>
      <point x="465" y="706" type="move" name="caronslovak"/>
    </contour>
  </outline>
</glyph>
<glyph name="e" format="1">
  <advance width="600"/>
  <unicode hex="0065"/>
  <outline>
    <contour>
      <point x="344" y="427" type="curve" smooth="yes"/>
      <point x="371" y="427"/>
      <point x="388" y="421"/>
      <point x="413" y="409" type="curve"/>
      <point x="434" y="425"/>
      <point x="443" y="450"/>
      <point x="443" y="472" type="curve"/>
      <point x="443" y="524"/>
      <point x="393" y="549"/>
      <point x="339" y="549" type="curve"/>
      <point x="171" y="549"/>
      <point x="56" y="432"/>
      <point x="56" y="256" type="curve" smooth="yes"/>
      <point x="56" y="251" type="line" smooth="yes"/>
      <point x="56" y="82"/>
      <point x="168" y="-18"/>
      <point x="330" y="-18" type="curve" smooth="yes"/>
      <point x="375" y="-18"/>
      <point x="386" y="18"/>
      <point x="386" y="61" type="curve"/>
      <point x="216" y="61"/>
      <point x="188" y="158"/>
      <point x="188" y="223" type="curve" smooth="yes"/>
      <point x="188" y="229" type="line" smooth="yes"/>
      <point x="188" y="363"/>
      <point x="250" y="427"/>
    </contour>
    <contour>
      <point x="498" y="25" type="curve" smooth="yes"/>
      <point x="515" y="42"/>
      <point x="527" y="83"/>
      <point x="527" y="125" type="curve" smooth="yes"/>
      <point x="527" y="137"/>
      <point x="526" y="148"/>
      <point x="523" y="160" type="curve"/>
      <point x="519" y="160" type="line"/>
      <point x="459" y="122"/>
      <point x="398" y="106"/>
      <point x="316" y="106" type="curve" smooth="yes"/>
      <point x="226" y="106"/>
      <point x="188" y="128"/>
      <point x="119" y="191" type="curve"/>
      <point x="71" y="75"/>
      <point x="215" y="-18"/>
      <point x="330" y="-18" type="curve" smooth="yes"/>
      <point x="404" y="-18"/>
      <point x="474" y="0"/>
    </contour>
    <contour>
      <point x="325" y="208" type="line" smooth="yes"/>
      <point x="485" y="208"/>
      <point x="544" y="263"/>
      <point x="544" y="360" type="curve" smooth="yes"/>
      <point x="544" y="363" type="line" smooth="yes"/>
      <point x="544" y="463"/>
      <point x="466" y="549"/>
      <point x="339" y="549" type="curve" smooth="yes"/>
      <point x="318" y="549"/>
      <point x="302" y="515"/>
      <point x="302" y="465" type="curve"/>
      <point x="372" y="465"/>
      <point x="405" y="433"/>
      <point x="405" y="367" type="curve" smooth="yes"/>
      <point x="405" y="363" type="line" smooth="yes"/>
      <point x="405" y="320"/>
      <point x="374" y="295"/>
      <point x="296" y="295" type="curve" smooth="yes"/>
      <point x="219" y="295"/>
      <point x="186" y="302"/>
      <point x="163" y="311" type="curve"/>
      <point x="155" y="282"/>
      <point x="156" y="262"/>
      <point x="176" y="243" type="curve" smooth="yes"/>
      <point x="196" y="223"/>
      <point x="241" y="208"/>
      <point x="320" y="208" type="curve" smooth="yes"/>
    </contour>
    <contour>
      <point x="321" y="549" type="move" name="top"/>
    </contour>
    <contour>
      <point x="501" y="23" type="move" name="ogonek"/>
    </contour>
    <contour>
      <point x="300" y="-1" type="move" name="bottom"/>
    </contour>
  </outline>
</glyph>
<glyph name="f" format="1">
  <advance width="600"/>
  <unicode hex="0066"/>
  <outline>
    <contour>
      <point x="244" y="615" type="curve"/>
      <point x="292" y="641"/>
      <point x="346" y="648"/>
      <point x="400" y="648" type="curve" smooth="yes"/>
      <point x="471" y="648"/>
      <point x="532" y="635"/>
      <point x="564" y="621" type="curve"/>
      <point x="568" y="621" type="line"/>
      <point x="572" y="634"/>
      <point x="572" y="650"/>
      <point x="572" y="664" type="curve"/>
      <point x="572" y="694"/>
      <point x="565" y="726"/>
      <point x="549" y="741" type="curve" smooth="yes"/>
      <point x="533" y="758"/>
      <point x="458" y="768"/>
      <point x="394" y="768" type="curve" smooth="yes"/>
      <point x="297" y="768"/>
      <point x="207" y="682"/>
    </contour>
    <contour>
      <point x="320" y="68" type="curve"/>
      <point x="320" y="512" type="line" smooth="yes"/>
      <point x="310" y="535"/>
      <point x="307" y="557"/>
      <point x="307" y="584" type="curve" smooth="yes"/>
      <point x="307" y="657"/>
      <point x="346" y="704"/>
      <point x="435" y="735" type="curve"/>
      <point x="427" y="764"/>
      <point x="411" y="768"/>
      <point x="394" y="768" type="curve" smooth="yes"/>
      <point x="255" y="768"/>
      <point x="179" y="664"/>
      <point x="179" y="565" type="curve" smooth="yes"/>
      <point x="179" y="209" type="line" smooth="yes"/>
      <point x="179" y="112"/>
      <point x="229" y="68"/>
    </contour>
    <contour>
      <point x="52" y="133" type="line"/>
      <point x="52" y="127"/>
      <point x="52" y="121"/>
      <point x="52" y="114" type="curve" smooth="yes"/>
      <point x="52" y="64"/>
      <point x="59" y="34"/>
      <point x="75" y="18" type="curve" smooth="yes"/>
      <point x="88" y="4"/>
      <point x="106" y="0"/>
      <point x="145" y="0" type="curve"/>
      <point x="527" y="0" type="line"/>
      <point x="531" y="12"/>
      <point x="533" y="23"/>
      <point x="533" y="37" type="curve" smooth="yes"/>
      <point x="533" y="93"/>
      <point x="469" y="133"/>
      <point x="324" y="133" type="curve"/>
    </contour>
    <contour>
      <point x="47" y="513" type="line"/>
      <point x="47" y="507"/>
      <point x="47" y="502"/>
      <point x="47" y="495" type="curve" smooth="yes"/>
      <point x="47" y="452"/>
      <point x="55" y="427"/>
      <point x="71" y="411" type="curve" smooth="yes"/>
      <point x="97" y="384"/>
      <point x="136" y="380"/>
      <point x="238" y="380" type="curve"/>
      <point x="537" y="380" type="line"/>
      <point x="541" y="395"/>
      <point x="543" y="414"/>
      <point x="543" y="434" type="curve" smooth="yes"/>
      <point x="543" y="492"/>
      <point x="528" y="513"/>
      <point x="479" y="513" type="curve"/>
    </contour>
  </outline>
</glyph>
<glyph name="g" format="1">
  <advance width="600"/>
  <unicode hex="0067"/>
  <outline>
    <contour>
      <point x="310" y="433" type="curve" smooth="yes"/>
      <point x="370" y="433"/>
      <point x="409" y="421"/>
      <point x="448" y="394" type="curve"/>
      <point x="497" y="467"/>
      <point x="424" y="549"/>
      <point x="301" y="549" type="curve" smooth="yes"/>
      <point x="168" y="549"/>
      <point x="65" y="474"/>
      <point x="65" y="354" type="curve" smooth="yes"/>
      <point x="65" y="345" type="line" smooth="yes"/>
      <point x="65" y="228"/>
      <point x="164" y="150"/>
      <point x="300" y="152" type="curve" smooth="yes"/>
      <point x="338" y="152"/>
      <point x="347" y="162"/>
      <point x="347" y="209" type="curve"/>
      <point x="243" y="213"/>
      <point x="190" y="265"/>
      <point x="190" y="330" type="curve" smooth="yes"/>
      <point x="190" y="337" type="line" smooth="yes"/>
      <point x="190" y="403"/>
      <point x="232" y="433"/>
    </contour>
    <contour>
      <point x="292" y="268" type="curve" smooth="yes"/>
      <point x="231" y="268"/>
      <point x="193" y="280"/>
      <point x="154" y="307" type="curve"/>
      <point x="106" y="234"/>
      <point x="178" y="152"/>
      <point x="300" y="152" type="curve" smooth="yes"/>
      <point x="434" y="152"/>
      <point x="536" y="228"/>
      <point x="536" y="348" type="curve" smooth="yes"/>
      <point x="536" y="357" type="line" smooth="yes"/>
      <point x="536" y="473"/>
      <point x="437" y="551"/>
      <point x="301" y="549" type="curve" smooth="yes"/>
      <point x="264" y="549"/>
      <point x="254" y="539"/>
      <point x="254" y="493" type="curve"/>
      <point x="359" y="488"/>
      <point x="412" y="436"/>
      <point x="412" y="372" type="curve" smooth="yes"/>
      <point x="412" y="365" type="line" smooth="yes"/>
      <point x="412" y="299"/>
      <point x="370" y="268"/>
    </contour>
    <contour>
      <point x="147" y="71" type="curve" smooth="yes"/>
      <point x="147" y="67" type="line" smooth="yes"/>
      <point x="147" y="-2"/>
      <point x="200" y="-42"/>
      <point x="285" y="-48" type="curve" smooth="yes"/>
      <point x="399" y="-57" type="line" smooth="yes"/>
      <point x="424" y="-58"/>
      <point x="438" y="-72"/>
      <point x="438" y="-96" type="curve" smooth="yes"/>
      <point x="438" y="-102" type="line" smooth="yes"/>
      <point x="438" y="-152"/>
      <point x="404" y="-195"/>
      <point x="226" y="-195" type="curve"/>
      <point x="225" y="-242"/>
      <point x="236" y="-250"/>
      <point x="260" y="-250" type="curve" smooth="yes"/>
      <point x="465" y="-250"/>
      <point x="569" y="-178"/>
      <point x="569" y="-63" type="curve" smooth="yes"/>
      <point x="569" y="-52" type="line" smooth="yes"/>
      <point x="569" y="18"/>
      <point x="515" y="58"/>
      <point x="439" y="63" type="curve" smooth="yes"/>
      <point x="308" y="72" type="line" smooth="yes"/>
      <point x="284" y="74"/>
      <point x="271" y="88"/>
      <point x="271" y="111" type="curve" smooth="yes"/>
      <point x="271" y="114" type="line" smooth="yes"/>
      <point x="271" y="133"/>
      <point x="277" y="155"/>
      <point x="294" y="175" type="curve"/>
      <point x="291" y="187"/>
      <point x="285" y="191"/>
      <point x="274" y="191" type="curve" smooth="yes"/>
      <point x="216" y="191"/>
      <point x="147" y="138"/>
    </contour>
    <contour>
      <point x="490" y="-117" type="curve"/>
      <point x="448" y="-149"/>
      <point x="377" y="-159"/>
      <point x="281" y="-159" type="curve" smooth="yes"/>
      <point x="262" y="-159" type="line" smooth="yes"/>
      <point x="198" y="-159"/>
      <point x="171" y="-141"/>
      <point x="171" y="-98" type="curve" smooth="yes"/>
      <point x="171" y="-93" type="line" smooth="yes"/>
      <point x="171" y="-51"/>
      <point x="190" y="-21"/>
      <point x="233" y="0" type="curve"/>
      <point x="232" y="16"/>
      <point x="206" y="27"/>
      <point x="177" y="27" type="curve" smooth="yes"/>
      <point x="91" y="25"/>
      <point x="35" y="-33"/>
      <point x="35" y="-105" type="curve" smooth="yes"/>
      <point x="35" y="-112" type="line" smooth="yes"/>
      <point x="35" y="-192"/>
      <point x="108" y="-250"/>
      <point x="245" y="-250" type="curve" smooth="yes"/>
      <point x="260" y="-250" type="line" smooth="yes"/>
      <point x="456" y="-250"/>
      <point x="494" y="-170"/>
    </contour>
    <contour>
      <point x="465" y="474" type="curve" smooth="yes"/>
      <point x="507" y="504" type="line" smooth="yes"/>
      <point x="555" y="538"/>
      <point x="570" y="568"/>
      <point x="570" y="597" type="curve" smooth="yes"/>
      <point x="570" y="602" type="line" smooth="yes"/>
      <point x="570" y="654"/>
      <point x="527" y="669"/>
      <point x="466" y="669" type="curve" smooth="yes"/>
      <point x="454" y="669"/>
      <point x="443" y="668"/>
      <point x="431" y="666" type="curve"/>
      <point x="435" y="654"/>
      <point x="436" y="643"/>
      <point x="436" y="629" type="curve" smooth="yes"/>
      <point x="436" y="609"/>
      <point x="434" y="597"/>
      <point x="427" y="577" type="curve" smooth="yes"/>
      <point x="402" y="489" type="line"/>
      <point x="423" y="472"/>
      <point x="446" y="461"/>
    </contour>
  </outline>
</glyph>
<glyph name="h" format="1">
  <advance width="600"/>
  <unicode hex="0068"/>
  <outline>
    <contour>
      <point x="211" y="-1" type="curve"/>
      <point x="211" y="629" type="line" smooth="yes"/>
      <point x="211" y="683"/>
      <point x="203" y="709"/>
      <point x="185" y="728" type="curve" smooth="yes"/>
      <point x="164" y="749"/>
      <point x="140" y="756"/>
      <point x="96" y="756" type="curve" smooth="yes"/>
      <point x="84" y="756"/>
      <point x="73" y="755"/>
      <point x="62" y="753" type="curve"/>
      <point x="71" y="718"/>
      <point x="74" y="690"/>
      <point x="74" y="650" type="curve" smooth="yes"/>
      <point x="74" y="49" type="line" smooth="yes"/>
      <point x="74" y="2"/>
      <point x="112" y="-6"/>
      <point x="163" y="-6" type="curve" smooth="yes"/>
      <point x="182" y="-6"/>
      <point x="198" y="-4"/>
    </contour>
    <contour>
      <point x="412" y="549" type="curve" smooth="yes"/>
      <point x="320" y="549"/>
      <point x="232" y="453"/>
      <point x="200" y="337" type="curve" smooth="yes"/>
      <point x="182" y="259"/>
      <point x="183" y="181"/>
      <point x="202" y="127" type="curve"/>
      <point x="241" y="340"/>
      <point x="303" y="403"/>
      <point x="365" y="403" type="curve" smooth="yes"/>
      <point x="394" y="403"/>
      <point x="419" y="377"/>
      <point x="435" y="327" type="curve"/>
      <point x="490" y="327"/>
      <point x="524" y="355"/>
      <point x="524" y="386" type="curve" smooth="yes"/>
      <point x="524" y="463"/>
      <point x="474" y="549"/>
    </contour>
    <contour>
      <point x="543" y="0" type="curve"/>
      <point x="529" y="56"/>
      <point x="524" y="92"/>
      <point x="524" y="153" type="curve" smooth="yes"/>
      <point x="524" y="386" type="line"/>
      <point x="524" y="414"/>
      <point x="497" y="431"/>
      <point x="414" y="428" type="curve"/>
      <point x="394" y="314"/>
      <point x="378" y="221"/>
      <point x="378" y="134" type="curve" smooth="yes"/>
      <point x="378" y="129" type="line" smooth="yes"/>
      <point x="378" y="23"/>
      <point x="418" y="-5"/>
      <point x="493" y="-5" type="curve" smooth="yes"/>
      <point x="511" y="-5"/>
      <point x="526" y="-3"/>
    </contour>
    <contour>
      <point x="139" y="730" type="move" name="top"/>
    </contour>
  </outline>
</glyph>
<glyph name="i" format="1">
  <advance width="600"/>
  <unicode hex="0069"/>
  <outline>
    <contour>
      <point x="60" y="538" type="curve"/>
      <point x="56" y="524"/>
      <point x="54" y="507"/>
      <point x="54" y="486" type="curve" smooth="yes"/>
      <point x="54" y="435"/>
      <point x="69" y="405"/>
      <point x="94" y="405" type="curve" smooth="yes"/>
      <point x="135" y="405"/>
      <point x="178" y="413"/>
      <point x="288" y="446" type="curve"/>
      <point x="288" y="517"/>
      <point x="281" y="548"/>
      <point x="249" y="548" type="curve" smooth="yes"/>
      <point x="184" y="548"/>
      <point x="121" y="545"/>
    </contour>
    <contour>
      <point x="367" y="519" type="curve" smooth="yes"/>
      <point x="349" y="537"/>
      <point x="309" y="548"/>
      <point x="259" y="548" type="curve" smooth="yes"/>
      <point x="249" y="548" type="line"/>
      <point x="249" y="220" type="line" smooth="yes"/>
      <point x="249" y="112"/>
      <point x="286" y="68"/>
      <point x="381" y="68" type="curve"/>
      <point x="381" y="485" type="line" smooth="yes"/>
      <point x="381" y="501"/>
      <point x="379" y="508"/>
    </contour>
    <contour>
      <point x="52" y="133" type="line"/>
      <point x="52" y="127"/>
      <point x="52" y="121"/>
      <point x="52" y="114" type="curve" smooth="yes"/>
      <point x="52" y="64"/>
      <point x="59" y="34"/>
      <point x="75" y="18" type="curve" smooth="yes"/>
      <point x="88" y="5"/>
      <point x="106" y="0"/>
      <point x="145" y="0" type="curve"/>
      <point x="556" y="0" type="line"/>
      <point x="560" y="12"/>
      <point x="562" y="23"/>
      <point x="562" y="37" type="curve" smooth="yes"/>
      <point x="562" y="93"/>
      <point x="498" y="133"/>
      <point x="352" y="133" type="curve"/>
    </contour>
    <contour>
      <point x="396" y="632" type="curve"/>
      <point x="396" y="710" type="line" smooth="yes"/>
      <point x="396" y="758"/>
      <point x="352" y="767"/>
      <point x="296" y="767" type="curve" smooth="yes"/>
      <point x="275" y="767"/>
      <point x="248" y="765"/>
      <point x="226" y="762" type="curve"/>
      <point x="226" y="684" type="line" smooth="yes"/>
      <point x="226" y="635"/>
      <point x="270" y="627"/>
      <point x="326" y="627" type="curve" smooth="yes"/>
      <point x="347" y="627"/>
      <point x="373" y="628"/>
    </contour>
    <contour>
      <point x="557" y="0" type="move" name="ogonek"/>
    </contour>
    <contour>
      <point x="307" y="-1" type="move" name="bottom"/>
    </contour>
  </outline>
</glyph>
<glyph name="j" format="1">
  <advance width="600"/>
  <unicode hex="006A"/>
  <outline>
    <contour>
      <point x="60" y="538" type="curve"/>
      <point x="56" y="524"/>
      <point x="54" y="507"/>
      <point x="54" y="486" type="curve" smooth="yes"/>
      <point x="54" y="428"/>
      <point x="72" y="401"/>
      <point x="99" y="401" type="curve" smooth="yes"/>
      <point x="142" y="401"/>
      <point x="215" y="408"/>
      <point x="352" y="430" type="curve"/>
      <point x="352" y="505"/>
      <point x="343" y="548"/>
      <point x="313" y="548" type="curve" smooth="yes"/>
      <point x="246" y="548"/>
      <point x="130" y="545"/>
    </contour>
    <contour>
      <point x="446" y="-5" type="curve" smooth="yes"/>
      <point x="446" y="485" type="line" smooth="yes"/>
      <point x="446" y="501"/>
      <point x="443" y="508"/>
      <point x="432" y="519" type="curve" smooth="yes"/>
      <point x="413" y="538"/>
      <point x="369" y="548"/>
      <point x="322" y="548" type="curve" smooth="yes"/>
      <point x="313" y="548" type="line"/>
      <point x="313" y="0" type="line" smooth="yes"/>
      <point x="313" y="-87"/>
      <point x="305" y="-119"/>
      <point x="267" y="-169" type="curve"/>
      <point x="323" y="-206"/>
      <point x="446" y="-109"/>
    </contour>
    <contour>
      <point x="199" y="-117" type="curve" smooth="yes"/>
      <point x="124" y="-117"/>
      <point x="80" y="-108"/>
      <point x="33" y="-86" type="curve"/>
      <point x="29" y="-86" type="line"/>
      <point x="26" y="-97"/>
      <point x="25" y="-108"/>
      <point x="25" y="-121" type="curve" smooth="yes"/>
      <point x="25" y="-160"/>
      <point x="35" y="-200"/>
      <point x="53" y="-219" type="curve" smooth="yes"/>
      <point x="72" y="-237"/>
      <point x="120" y="-250"/>
      <point x="207" y="-250" type="curve" smooth="yes"/>
      <point x="342" y="-250"/>
      <point x="447" y="-151"/>
      <point x="446" y="-5" type="curve" smooth="yes"/>
      <point x="446" y="7"/>
      <point x="428" y="23"/>
      <point x="403" y="23" type="curve"/>
      <point x="372" y="-99"/>
      <point x="281" y="-117"/>
    </contour>
    <contour>
      <point x="457" y="632" type="curve"/>
      <point x="457" y="710" type="line" smooth="yes"/>
      <point x="457" y="758"/>
      <point x="414" y="767"/>
      <point x="358" y="767" type="curve" smooth="yes"/>
      <point x="337" y="767"/>
      <point x="310" y="765"/>
      <point x="288" y="762" type="curve"/>
      <point x="288" y="684" type="line" smooth="yes"/>
      <point x="288" y="635"/>
      <point x="332" y="627"/>
      <point x="388" y="627" type="curve" smooth="yes"/>
      <point x="409" y="627"/>
      <point x="435" y="628"/>
    </contour>
  </outline>
</glyph>
<glyph name="l" format="1">
  <advance width="600"/>
  <unicode hex="006C"/>
  <outline>
    <contour>
      <point x="60" y="750" type="curve"/>
      <point x="56" y="737"/>
      <point x="54" y="719"/>
      <point x="54" y="699" type="curve" smooth="yes"/>
      <point x="54" y="648"/>
      <point x="69" y="617"/>
      <point x="94" y="617" type="curve" smooth="yes"/>
      <point x="135" y="617"/>
      <point x="178" y="626"/>
      <point x="288" y="659" type="curve"/>
      <point x="288" y="729"/>
      <point x="281" y="760"/>
      <point x="249" y="760" type="curve" smooth="yes"/>
      <point x="184" y="760"/>
      <point x="121" y="757"/>
    </contour>
    <contour>
      <point x="367" y="732" type="curve" smooth="yes"/>
      <point x="349" y="750"/>
      <point x="309" y="760"/>
      <point x="259" y="760" type="curve" smooth="yes"/>
      <point x="249" y="760" type="line"/>
      <point x="249" y="220" type="line" smooth="yes"/>
      <point x="249" y="112"/>
      <point x="286" y="68"/>
      <point x="381" y="68" type="curve"/>
      <point x="381" y="697" type="line" smooth="yes"/>
      <point x="381" y="714"/>
      <point x="379" y="720"/>
    </contour>
    <contour>
      <point x="52" y="133" type="line"/>
      <point x="52" y="127"/>
      <point x="52" y="121"/>
      <point x="52" y="114" type="curve" smooth="yes"/>
      <point x="52" y="64"/>
      <point x="59" y="34"/>
      <point x="75" y="18" type="curve" smooth="yes"/>
      <point x="88" y="4"/>
      <point x="106" y="0"/>
      <point x="145" y="0" type="curve"/>
      <point x="556" y="0" type="line"/>
      <point x="560" y="12"/>
      <point x="562" y="23"/>
      <point x="562" y="37" type="curve" smooth="yes"/>
      <point x="562" y="93"/>
      <point x="498" y="133"/>
      <point x="352" y="133" type="curve"/>
    </contour>
    <contour>
      <point x="510" y="692" type="move" name="caronslovak"/>
    </contour>
    <contour>
      <point x="319" y="756" type="move" name="top"/>
    </contour>
    <contour>
      <point x="498" y="400" type="move" name="dot"/>
    </contour>
    <contour>
      <point x="307" y="-1" type="move" name="bottom"/>
    </contour>
  </outline>
</glyph>
<glyph name="m" format="1">
  <advance width="600"/>
  <unicode hex="006D"/>
  <outline>
    <contour>
      <point x="166" y="-1" type="curve"/>
      <point x="166" y="417" type="line" smooth="yes"/>
      <point x="166" y="490"/>
      <point x="157" y="506"/>
      <point x="141" y="522" type="curve" smooth="yes"/>
      <point x="122" y="541"/>
      <point x="94" y="543"/>
      <point x="67" y="543" type="curve" smooth="yes"/>
      <point x="54" y="543"/>
      <point x="42" y="542"/>
      <point x="29" y="540" type="curve"/>
      <point x="38" y="505"/>
      <point x="42" y="477"/>
      <point x="42" y="437" type="curve" smooth="yes"/>
      <point x="42" y="49" type="line" smooth="yes"/>
      <point x="42" y="1"/>
      <point x="66" y="-6"/>
      <point x="117" y="-6" type="curve" smooth="yes"/>
      <point x="136" y="-6"/>
      <point x="153" y="-4"/>
    </contour>
    <contour>
      <point x="268" y="548" type="curve" smooth="yes"/>
      <point x="215" y="548"/>
      <point x="166" y="477"/>
      <point x="150" y="390" type="curve" smooth="yes"/>
      <point x="144" y="364"/>
      <point x="147" y="330"/>
      <point x="157" y="303" type="curve"/>
      <point x="185" y="378"/>
      <point x="212" y="412"/>
      <point x="244" y="412" type="curve" smooth="yes"/>
      <point x="261" y="412"/>
      <point x="272" y="403"/>
      <point x="283" y="378" type="curve"/>
      <point x="308" y="394"/>
      <point x="339" y="417"/>
      <point x="339" y="437" type="curve" smooth="yes"/>
      <point x="339" y="498"/>
      <point x="303" y="548"/>
    </contour>
    <contour>
      <point x="339" y="0" type="curve"/>
      <point x="339" y="437" type="line" smooth="yes"/>
      <point x="339" y="475"/>
      <point x="326" y="484"/>
      <point x="279" y="473" type="curve"/>
      <point x="258" y="298"/>
      <point x="252" y="198"/>
      <point x="252" y="103" type="curve" smooth="yes"/>
      <point x="252" y="98" type="line" smooth="yes"/>
      <point x="252" y="26"/>
      <point x="274" y="-3"/>
      <point x="324" y="-3" type="curve" smooth="yes"/>
      <point x="330" y="-3"/>
      <point x="334" y="-2"/>
    </contour>
    <contour>
      <point x="463" y="549" type="curve" smooth="yes"/>
      <point x="407" y="549"/>
      <point x="342" y="479"/>
      <point x="318" y="404" type="curve" smooth="yes"/>
      <point x="309" y="372"/>
      <point x="309" y="341"/>
      <point x="330" y="305" type="curve"/>
      <point x="350" y="373"/>
      <point x="383" y="412"/>
      <point x="422" y="412" type="curve" smooth="yes"/>
      <point x="445" y="412"/>
      <point x="457" y="401"/>
      <point x="466" y="374" type="curve"/>
      <point x="536" y="387"/>
      <point x="558" y="402"/>
      <point x="558" y="429" type="curve" smooth="yes"/>
      <point x="558" y="476"/>
      <point x="510" y="549"/>
    </contour>
    <contour>
      <point x="578" y="0" type="curve"/>
      <point x="563" y="56"/>
      <point x="558" y="92"/>
      <point x="558" y="153" type="curve" smooth="yes"/>
      <point x="558" y="429" type="line" smooth="yes"/>
      <point x="558" y="448"/>
      <point x="526" y="462"/>
      <point x="455" y="462" type="curve"/>
      <point x="434" y="326"/>
      <point x="425" y="222"/>
      <point x="425" y="132" type="curve" smooth="yes"/>
      <point x="425" y="127" type="line" smooth="yes"/>
      <point x="425" y="21"/>
      <point x="453" y="-5"/>
      <point x="527" y="-5" type="curve" smooth="yes"/>
      <point x="546" y="-5"/>
      <point x="560" y="-3"/>
    </contour>
  </outline>
</glyph>
<glyph name="n" format="1">
  <advance width="600"/>
  <unicode hex="006E"/>
  <outline>
    <contour>
      <point x="206" y="-1" type="curve"/>
      <point x="206" y="379" type="line" smooth="yes"/>
      <point x="206" y="450"/>
      <point x="193" y="488"/>
      <point x="166" y="515" type="curve" smooth="yes"/>
      <point x="144" y="537"/>
      <point x="121" y="544"/>
      <point x="92" y="544" type="curve" smooth="yes"/>
      <point x="80" y="544"/>
      <point x="69" y="543"/>
      <point x="58" y="540" type="curve"/>
      <point x="67" y="505"/>
      <point x="70" y="477"/>
      <point x="70" y="437" type="curve" smooth="yes"/>
      <point x="70" y="49" type="line" smooth="yes"/>
      <point x="70" y="2"/>
      <point x="106" y="-6"/>
      <point x="157" y="-6" type="curve" smooth="yes"/>
      <point x="176" y="-6"/>
      <point x="193" y="-4"/>
    </contour>
    <contour>
      <point x="412" y="549" type="curve" smooth="yes"/>
      <point x="317" y="549"/>
      <point x="224" y="455"/>
      <point x="193" y="341" type="curve" smooth="yes"/>
      <point x="173" y="260"/>
      <point x="176" y="194"/>
      <point x="197" y="134" type="curve"/>
      <point x="235" y="338"/>
      <point x="301" y="403"/>
      <point x="365" y="403" type="curve" smooth="yes"/>
      <point x="394" y="403"/>
      <point x="419" y="377"/>
      <point x="435" y="327" type="curve"/>
      <point x="490" y="327"/>
      <point x="524" y="355"/>
      <point x="524" y="386" type="curve" smooth="yes"/>
      <point x="524" y="463"/>
      <point x="474" y="549"/>
    </contour>
    <contour>
      <point x="543" y="0" type="curve"/>
      <point x="529" y="56"/>
      <point x="524" y="92"/>
      <point x="524" y="153" type="curve" smooth="yes"/>
      <point x="524" y="386" type="line"/>
      <point x="524" y="414"/>
      <point x="497" y="431"/>
      <point x="414" y="428" type="curve"/>
      <point x="394" y="314"/>
      <point x="378" y="221"/>
      <point x="378" y="134" type="curve" smooth="yes"/>
      <point x="378" y="129" type="line" smooth="yes"/>
      <point x="378" y="23"/>
      <point x="418" y="-5"/>
      <point x="493" y="-5" type="curve" smooth="yes"/>
      <point x="511" y="-5"/>
      <point x="526" y="-3"/>
    </contour>
    <contour>
      <point x="93" y="711" type="move" name="caronslovak"/>
    </contour>
    <contour>
      <point x="300" y="549" type="move" name="top"/>
    </contour>
    <contour>
      <point x="302" y="-1" type="move" name="bottom"/>
    </contour>
  </outline>
</glyph>
<glyph name="p" format="1">
  <advance width="600"/>
  <unicode hex="0070"/>
  <outline>
    <contour>
      <point x="206" y="-203" type="curve"/>
      <point x="206" y="351" type="line" smooth="yes"/>
      <point x="206" y="448"/>
      <point x="195" y="484"/>
      <point x="164" y="515" type="curve" smooth="yes"/>
      <point x="145" y="534"/>
      <point x="120" y="543"/>
      <point x="94" y="543" type="curve"/>
      <point x="82" y="543"/>
      <point x="73" y="542"/>
      <point x="60" y="540" type="curve"/>
      <point x="69" y="505"/>
      <point x="73" y="477"/>
      <point x="73" y="437" type="curve" smooth="yes"/>
      <point x="73" y="-153" type="line" smooth="yes"/>
      <point x="73" y="-201"/>
      <point x="109" y="-209"/>
      <point x="155" y="-209" type="curve"/>
      <point x="175" y="-209"/>
      <point x="192" y="-207"/>
    </contour>
    <contour>
      <point x="398" y="549" type="curve" smooth="yes"/>
      <point x="306" y="549"/>
      <point x="212" y="461"/>
      <point x="185" y="360" type="curve" smooth="yes"/>
      <point x="173" y="314"/>
      <point x="179" y="251"/>
      <point x="195" y="215" type="curve"/>
      <point x="241" y="358"/>
      <point x="303" y="407"/>
      <point x="383" y="407" type="curve" smooth="yes"/>
      <point x="414" y="407"/>
      <point x="453" y="384"/>
      <point x="507" y="319" type="curve"/>
      <point x="540" y="322"/>
      <point x="554" y="332"/>
      <point x="554" y="342" type="curve" smooth="yes"/>
      <point x="554" y="456"/>
      <point x="480" y="549"/>
    </contour>
    <contour>
      <point x="343" y="-12" type="curve" smooth="yes"/>
      <point x="448" y="-12"/>
      <point x="554" y="86"/>
      <point x="554" y="321" type="curve" smooth="yes"/>
      <point x="554" y="342" type="line" smooth="yes"/>
      <point x="554" y="394"/>
      <point x="514" y="473"/>
      <point x="437" y="473" type="curve" smooth="yes"/>
      <point x="413" y="473"/>
      <point x="394" y="460"/>
      <point x="393" y="422" type="curve"/>
      <point x="412" y="398"/>
      <point x="417" y="376"/>
      <point x="417" y="312" type="curve" smooth="yes"/>
      <point x="417" y="302" type="line" smooth="yes"/>
      <point x="417" y="181"/>
      <point x="378" y="116"/>
      <point x="298" y="116" type="curve" smooth="yes"/>
      <point x="250" y="116"/>
      <point x="219" y="133"/>
      <point x="190" y="164" type="curve"/>
      <point x="178" y="140"/>
      <point x="176" y="98"/>
      <point x="194" y="70" type="curve" smooth="yes"/>
      <point x="215" y="31"/>
      <point x="271" y="-12"/>
    </contour>
  </outline>
</glyph>
<glyph name="r" format="1">
  <advance width="600"/>
  <unicode hex="0072"/>
  <outline>
    <contour>
      <point x="54" y="538" type="curve"/>
      <point x="49" y="513"/>
      <point x="48" y="496"/>
      <point x="48" y="474" type="curve" smooth="yes"/>
      <point x="48" y="430"/>
      <point x="62" y="405"/>
      <point x="86" y="405" type="curve" smooth="yes"/>
      <point x="122" y="405"/>
      <point x="166" y="426"/>
      <point x="244" y="426" type="curve"/>
      <point x="244" y="511"/>
      <point x="231" y="548"/>
      <point x="199" y="548" type="curve" smooth="yes"/>
      <point x="149" y="548"/>
      <point x="95" y="545"/>
    </contour>
    <contour>
      <point x="311" y="68" type="curve"/>
      <point x="311" y="430" type="line" smooth="yes"/>
      <point x="311" y="500"/>
      <point x="262" y="548"/>
      <point x="199" y="548" type="curve" smooth="yes"/>
      <point x="191" y="548"/>
      <point x="184" y="545"/>
      <point x="178" y="539" type="curve"/>
      <point x="178" y="209" type="line" smooth="yes"/>
      <point x="178" y="112"/>
      <point x="219" y="68"/>
    </contour>
    <contour>
      <point x="52" y="133" type="line"/>
      <point x="52" y="127"/>
      <point x="52" y="121"/>
      <point x="52" y="114" type="curve" smooth="yes"/>
      <point x="52" y="64"/>
      <point x="59" y="34"/>
      <point x="75" y="18" type="curve" smooth="yes"/>
      <point x="88" y="4"/>
      <point x="106" y="0"/>
      <point x="145" y="0" type="curve"/>
      <point x="492" y="0" type="line"/>
      <point x="497" y="12"/>
      <point x="498" y="23"/>
      <point x="498" y="37" type="curve" smooth="yes"/>
      <point x="498" y="87"/>
      <point x="403" y="133"/>
      <point x="311" y="133" type="curve"/>
    </contour>
    <contour>
      <point x="304" y="200" type="curve"/>
      <point x="346" y="351"/>
      <point x="406" y="390"/>
      <point x="469" y="390" type="curve" smooth="yes"/>
      <point x="503" y="390"/>
      <point x="524" y="382"/>
      <point x="554" y="364" type="curve"/>
      <point x="558" y="364" type="line"/>
      <point x="564" y="388"/>
      <point x="568" y="414"/>
      <point x="568" y="443" type="curve"/>
      <point x="568" y="527"/>
      <point x="547" y="557"/>
      <point x="504" y="557" type="curve" smooth="yes"/>
      <point x="502" y="557" type="line" smooth="yes"/>
      <point x="421" y="557"/>
      <point x="319" y="472"/>
      <point x="285" y="311" type="curve" smooth="yes"/>
      <point x="279" y="283"/>
      <point x="283" y="254"/>
    </contour>
    <contour>
      <point x="307" y="549" type="move" name="top"/>
    </contour>
    <contour>
      <point x="307" y="-1" type="move" name="bottom"/>
    </contour>
  </outline>
</glyph>
<glyph name="s" format="1">
  <advance width="600"/>
  <unicode hex="0073"/>
  <outline>
    <contour>
      <point x="372" y="550" type="curve" smooth="yes"/>
      <point x="362" y="550" type="line" smooth="yes"/>
      <point x="218" y="550"/>
      <point x="81" y="483"/>
      <point x="81" y="369" type="curve" smooth="yes"/>
      <point x="81" y="326"/>
      <point x="146" y="304"/>
      <point x="227" y="304" type="curve"/>
      <point x="216" y="332"/>
      <point x="214" y="350"/>
      <point x="214" y="369" type="curve" smooth="yes"/>
      <point x="214" y="395"/>
      <point x="263" y="417"/>
      <point x="364" y="417" type="curve" smooth="yes"/>
      <point x="431" y="417"/>
      <point x="470" y="407"/>
      <point x="509" y="388" type="curve"/>
      <point x="513" y="388" type="line"/>
      <point x="515" y="400"/>
      <point x="517" y="412"/>
      <point x="517" y="423" type="curve"/>
      <point x="517" y="474"/>
      <point x="508" y="505"/>
      <point x="485" y="527" type="curve" smooth="yes"/>
      <point x="469" y="544"/>
      <point x="428" y="550"/>
    </contour>
    <contour>
      <point x="394" y="307" type="curve" smooth="yes"/>
      <point x="300" y="327" type="line" smooth="yes"/>
      <point x="230" y="341"/>
      <point x="214" y="350"/>
      <point x="214" y="369" type="curve" smooth="yes"/>
      <point x="214" y="384"/>
      <point x="216" y="406"/>
      <point x="229" y="435" type="curve"/>
      <point x="140" y="424"/>
      <point x="81" y="400"/>
      <point x="81" y="369" type="curve"/>
      <point x="81" y="292"/>
      <point x="124" y="256"/>
      <point x="237" y="230" type="curve" smooth="yes"/>
      <point x="349" y="204" type="line" smooth="yes"/>
      <point x="400" y="193"/>
      <point x="418" y="177"/>
      <point x="418" y="153" type="curve" smooth="yes"/>
      <point x="418" y="135"/>
      <point x="411" y="122"/>
      <point x="400" y="109" type="curve"/>
      <point x="501" y="110"/>
      <point x="542" y="131"/>
      <point x="542" y="160" type="curve" smooth="yes"/>
      <point x="542" y="231"/>
      <point x="500" y="285"/>
    </contour>
    <contour>
      <point x="300" y="121" type="curve" smooth="yes"/>
      <point x="176" y="121"/>
      <point x="136" y="135"/>
      <point x="65" y="177" type="curve"/>
      <point x="61" y="177" type="line"/>
      <point x="58" y="164"/>
      <point x="56" y="150"/>
      <point x="56" y="130" type="curve" smooth="yes"/>
      <point x="56" y="72"/>
      <point x="72" y="45"/>
      <point x="87" y="30" type="curve" smooth="yes"/>
      <point x="100" y="17"/>
      <point x="173" y="-12"/>
      <point x="273" y="-12" type="curve" smooth="yes"/>
      <point x="290" y="-12" type="line" smooth="yes"/>
      <point x="463" y="-12"/>
      <point x="542" y="42"/>
      <point x="542" y="160" type="curve" smooth="yes"/>
      <point x="542" y="210"/>
      <point x="510" y="209"/>
      <point x="463" y="219" type="curve"/>
      <point x="467" y="202"/>
      <point x="467" y="193"/>
      <point x="467" y="184" type="curve" smooth="yes"/>
      <point x="467" y="151"/>
      <point x="407" y="121"/>
    </contour>
    <contour>
      <point x="317" y="549" type="move" name="top"/>
    </contour>
    <contour>
      <point x="303" y="-1" type="move" name="bottom"/>
    </contour>
  </outline>
</glyph>
<glyph name="t" format="1">
  <advance width="600"/>
  <unicode hex="0074"/>
  <outline>
    <contour>
      <point x="179" y="700" type="curve"/>
      <point x="179" y="160" type="line" smooth="yes"/>
      <point x="179" y="77"/>
      <point x="261" y="8"/>
      <point x="351" y="32" type="curve"/>
      <point x="323" y="71"/>
      <point x="312" y="119"/>
      <point x="312" y="173" type="curve" smooth="yes"/>
      <point x="312" y="650" type="line" smooth="yes"/>
      <point x="312" y="698"/>
      <point x="275" y="705"/>
      <point x="230" y="705" type="curve" smooth="yes"/>
      <point x="210" y="705"/>
      <point x="193" y="704"/>
    </contour>
    <contour>
      <point x="542" y="155" type="curve"/>
      <point x="538" y="155" type="line"/>
      <point x="486" y="128"/>
      <point x="448" y="119"/>
      <point x="380" y="119" type="curve" smooth="yes"/>
      <point x="316" y="119"/>
      <point x="260" y="139"/>
      <point x="225" y="195" type="curve"/>
      <point x="192" y="191"/>
      <point x="179" y="178"/>
      <point x="179" y="160" type="curve" smooth="yes"/>
      <point x="179" y="57"/>
      <point x="264" y="-13"/>
      <point x="375" y="-13" type="curve" smooth="yes"/>
      <point x="384" y="-13" type="line" smooth="yes"/>
      <point x="467" y="-13"/>
      <point x="501" y="14"/>
      <point x="515" y="28" type="curve" smooth="yes"/>
      <point x="533" y="46"/>
      <point x="545" y="77"/>
      <point x="545" y="121" type="curve" smooth="yes"/>
      <point x="545" y="132"/>
      <point x="545" y="144"/>
    </contour>
    <contour>
      <point x="47" y="538" type="line"/>
      <point x="47" y="532"/>
      <point x="47" y="526"/>
      <point x="47" y="520" type="curve" smooth="yes"/>
      <point x="47" y="475"/>
      <point x="55" y="448"/>
      <point x="71" y="432" type="curve" smooth="yes"/>
      <point x="92" y="411"/>
      <point x="120" y="405"/>
      <point x="197" y="405" type="curve" smooth="yes"/>
      <point x="542" y="405" type="line"/>
      <point x="545" y="419"/>
      <point x="547" y="439"/>
      <point x="547" y="459" type="curve" smooth="yes"/>
      <point x="547" y="517"/>
      <point x="532" y="538"/>
      <point x="483" y="538" type="curve" smooth="yes"/>
    </contour>
    <contour>
      <point x="464" y="700" type="move" name="caronslovak"/>
    </contour>
    <contour>
      <point x="373" y="-1" type="move" name="bottom"/>
    </contour>
  </outline>
</glyph>
<glyph name="v" format="1">
  <advance width="600"/>
  <unicode hex="0076"/>
  <outline>
    <contour>
      <point x="428" y="548" type="curve" smooth="yes"/>
      <point x="407" y="548" type="line"/>
      <point x="382" y="288"/>
      <point x="356" y="176"/>
      <point x="260" y="97" type="curve"/>
      <point x="235" y="77"/>
      <point x="262" y="-10"/>
      <point x="314" y="-10" type="curve"/>
      <point x="352" y="-10" type="line"/>
      <point x="457" y="77"/>
      <point x="522" y="260"/>
      <point x="543" y="482" type="curve"/>
      <point x="546" y="520"/>
      <point x="487" y="548"/>
    </contour>
    <contour>
      <point x="74" y="548" type="curve" smooth="yes"/>
      <point x="53" y="548" type="line"/>
      <point x="76" y="289"/>
      <point x="124" y="127"/>
      <point x="218" y="33" type="curve"/>
      <point x="255" y="-4"/>
      <point x="284" y="-10"/>
      <point x="311" y="-10" type="curve" smooth="yes"/>
      <point x="321" y="-10" type="line" smooth="yes"/>
      <point x="356" y="-10"/>
      <point x="380" y="19"/>
      <point x="395" y="63" type="curve"/>
      <point x="388" y="63"/>
      <point x="384" y="63"/>
      <point x="378" y="63" type="curve" smooth="yes"/>
      <point x="370" y="63"/>
      <point x="361" y="66"/>
      <point x="349" y="75" type="curve"/>
      <point x="264" y="146"/>
      <point x="222" y="265"/>
      <point x="198" y="503" type="curve"/>
      <point x="195" y="529"/>
      <point x="133" y="548"/>
    </contour>
  </outline>
</glyph>
<glyph name="w" format="1">
  <advance width="600"/>
  <unicode hex="0077"/>
  <outline>
    <contour>
      <point x="42" y="549" type="curve"/>
      <point x="42" y="236"/>
      <point x="64" y="89"/>
      <point x="142" y="11" type="curve" smooth="yes"/>
      <point x="155" y="-3"/>
      <point x="174" y="-10"/>
      <point x="191" y="-10" type="curve" smooth="yes"/>
      <point x="195" y="-10" type="line" smooth="yes"/>
      <point x="207" y="-10"/>
      <point x="227" y="42"/>
      <point x="227" y="75" type="curve" smooth="yes"/>
      <point x="177" y="110"/>
      <point x="162" y="204"/>
      <point x="162" y="501" type="curve"/>
      <point x="162" y="510"/>
      <point x="161" y="513"/>
      <point x="154" y="521" type="curve" smooth="yes"/>
      <point x="140" y="539"/>
      <point x="104" y="549"/>
      <point x="64" y="549" type="curve"/>
      <point x="57" y="549"/>
      <point x="50" y="549"/>
    </contour>
    <contour>
      <point x="273" y="429" type="curve" smooth="yes"/>
      <point x="261" y="429" type="line"/>
      <point x="261" y="223"/>
      <point x="220" y="143"/>
      <point x="153" y="48" type="curve"/>
      <point x="155" y="16"/>
      <point x="166" y="-10"/>
      <point x="191" y="-10" type="curve"/>
      <point x="212" y="-10" type="line"/>
      <point x="286" y="106"/>
      <point x="320" y="217"/>
      <point x="320" y="382" type="curve" smooth="yes"/>
      <point x="320" y="414"/>
      <point x="295" y="429"/>
    </contour>
    <contour>
      <point x="273" y="429" type="curve" smooth="yes"/>
      <point x="268" y="429" type="line"/>
      <point x="268" y="267"/>
      <point x="314" y="91"/>
      <point x="384" y="6" type="curve" smooth="yes"/>
      <point x="393" y="-5"/>
      <point x="405" y="-10"/>
      <point x="417" y="-10" type="curve" smooth="yes"/>
      <point x="428" y="-10" type="line" smooth="yes"/>
      <point x="450" y="-10"/>
      <point x="461" y="21"/>
      <point x="461" y="45" type="curve" smooth="yes"/>
      <point x="399" y="93"/>
      <point x="339" y="207"/>
      <point x="339" y="392" type="curve" smooth="yes"/>
      <point x="339" y="411"/>
      <point x="309" y="429"/>
    </contour>
    <contour>
      <point x="436" y="549" type="curve"/>
      <point x="436" y="210"/>
      <point x="423" y="145"/>
      <point x="382" y="73" type="curve"/>
      <point x="384" y="24"/>
      <point x="396" y="-10"/>
      <point x="422" y="-10" type="curve"/>
      <point x="447" y="-10" type="line"/>
      <point x="533" y="101"/>
      <point x="555" y="237"/>
      <point x="555" y="493" type="curve"/>
      <point x="555" y="505"/>
      <point x="554" y="510"/>
      <point x="549" y="515" type="curve" smooth="yes"/>
      <point x="528" y="536"/>
      <point x="488" y="549"/>
      <point x="457" y="549" type="curve"/>
      <point x="450" y="549"/>
      <point x="443" y="549"/>
    </contour>
    <contour>
      <point x="298" y="549" type="move" name="top"/>
    </contour>
  </outline>
</glyph>
<glyph name="x" format="1">
  <advance width="600"/>
  <unicode hex="0078"/>
  <outline>
    <contour>
      <point x="490" y="-10" type="curve" smooth="yes"/>
      <point x="533" y="-10"/>
      <point x="555" y="-4"/>
      <point x="578" y="15" type="curve"/>
      <point x="502" y="83"/>
      <point x="430" y="163"/>
      <point x="368" y="250" type="curve" smooth="yes"/>
      <point x="356" y="269"/>
      <point x="343" y="288"/>
      <point x="331" y="308" type="curve" smooth="yes"/>
      <point x="291" y="368"/>
      <point x="257" y="434"/>
      <point x="226" y="501" type="curve" smooth="yes"/>
      <point x="209" y="536"/>
      <point x="163" y="546"/>
      <point x="103" y="546" type="curve" smooth="yes"/>
      <point x="80" y="546"/>
      <point x="56" y="544"/>
      <point x="39" y="539" type="curve"/>
      <point x="98" y="419"/>
      <point x="167" y="305"/>
      <point x="244" y="201" type="curve" smooth="yes"/>
      <point x="257" y="183"/>
      <point x="271" y="165"/>
      <point x="285" y="148" type="curve" smooth="yes"/>
      <point x="317" y="109"/>
      <point x="351" y="71"/>
      <point x="385" y="34" type="curve" smooth="yes"/>
      <point x="413" y="2"/>
      <point x="441" y="-10"/>
    </contour>
    <contour>
      <point x="444" y="548" type="curve" smooth="yes"/>
      <point x="423" y="548" type="line"/>
      <point x="387" y="454"/>
      <point x="342" y="378"/>
      <point x="291" y="307" type="curve" smooth="yes"/>
      <point x="278" y="289"/>
      <point x="264" y="271"/>
      <point x="249" y="253" type="curve" smooth="yes"/>
      <point x="198" y="195"/>
      <point x="140" y="137"/>
      <point x="64" y="80" type="curve" smooth="yes"/>
      <point x="42" y="64"/>
      <point x="39" y="56"/>
      <point x="39" y="42" type="curve" smooth="yes"/>
      <point x="39" y="12"/>
      <point x="94" y="-10"/>
      <point x="164" y="-10" type="curve" smooth="yes"/>
      <point x="175" y="-10" type="line"/>
      <point x="233" y="42"/>
      <point x="281" y="96"/>
      <point x="326" y="145" type="curve" smooth="yes"/>
      <point x="341" y="162"/>
      <point x="356" y="179"/>
      <point x="369" y="195" type="curve" smooth="yes"/>
      <point x="447" y="291"/>
      <point x="502" y="376"/>
      <point x="543" y="468" type="curve" smooth="yes"/>
      <point x="547" y="479"/>
      <point x="549" y="488"/>
      <point x="549" y="496" type="curve" smooth="yes"/>
      <point x="549" y="533"/>
      <point x="504" y="548"/>
    </contour>
  </outline>
</glyph>
<glyph name="z" format="1">
  <advance width="600"/>
  <unicode hex="007A"/>
  <outline>
    <contour>
      <point x="61" y="538" type="line"/>
      <point x="57" y="527"/>
      <point x="57" y="516"/>
      <point x="57" y="503" type="curve" smooth="yes"/>
      <point x="57" y="466"/>
      <point x="67" y="435"/>
      <point x="82" y="420" type="curve" smooth="yes"/>
      <point x="93" y="409"/>
      <point x="101" y="405"/>
      <point x="120" y="405" type="curve" smooth="yes"/>
      <point x="246" y="405" type="line" smooth="yes"/>
      <point x="328" y="405"/>
      <point x="463" y="408"/>
      <point x="543" y="421" type="curve"/>
      <point x="543" y="428" type="line" smooth="yes"/>
      <point x="543" y="466"/>
      <point x="525" y="498"/>
      <point x="500" y="523" type="curve" smooth="yes"/>
      <point x="489" y="534"/>
      <point x="478" y="538"/>
      <point x="458" y="538" type="curve" smooth="yes"/>
    </contour>
    <contour>
      <point x="434" y="473" type="curve"/>
      <point x="345" y="341"/>
      <point x="209" y="218"/>
      <point x="57" y="123" type="curve"/>
      <point x="57" y="85"/>
      <point x="122" y="73"/>
      <point x="170" y="95" type="curve" smooth="yes"/>
      <point x="320" y="169"/>
      <point x="543" y="372"/>
      <point x="543" y="421" type="curve"/>
      <point x="543" y="458"/>
      <point x="503" y="473"/>
    </contour>
    <contour>
      <point x="537" y="0" type="line"/>
      <point x="540" y="15"/>
      <point x="543" y="34"/>
      <point x="543" y="54" type="curve"/>
      <point x="543" y="113"/>
      <point x="528" y="133"/>
      <point x="477" y="133" type="curve" smooth="yes"/>
      <point x="358" y="133" type="line" smooth="yes"/>
      <point x="261" y="133"/>
      <point x="145" y="129"/>
      <point x="57" y="123" type="curve"/>
      <point x="57" y="110" type="line" smooth="yes"/>
      <point x="57" y="68"/>
      <point x="67" y="30"/>
      <point x="87" y="10" type="curve" smooth="yes"/>
      <point x="95" y="3"/>
      <point x="103" y="0"/>
      <point x="114" y="0" type="curve" smooth="yes"/>
    </contour>
    <contour>
      <point x="300" y="549" type="move" name="top"/>
    </contour>
  </outline>
</glyph>
<glyph name="braceleft" format="1">
  <advance width="600"/>
  <unicode hex="007B"/>
  <outline>
    <contour>
      <point x="441" y="637" type="curve" smooth="yes"/>
      <point x="470" y="637"/>
      <point x="495" y="635"/>
      <point x="511" y="629" type="curve"/>
      <point x="515" y="629" type="line"/>
      <point x="519" y="643"/>
      <point x="521" y="655"/>
      <point x="521" y="675" type="curve"/>
      <point x="521" y="726"/>
      <point x="489" y="770"/>
      <point x="450" y="770" type="curve" smooth="yes"/>
      <point x="446" y="770" type="line" smooth="yes"/>
      <point x="324" y="770"/>
      <point x="233" y="722"/>
      <point x="233" y="650" type="curve" smooth="yes"/>
      <point x="233" y="647" type="line" smooth="yes"/>
      <point x="233" y="614"/>
      <point x="266" y="585"/>
      <point x="304" y="581" type="curve"/>
      <point x="335" y="624"/>
      <point x="382" y="637"/>
    </contour>
    <contour>
      <point x="394" y="433" type="curve" smooth="yes"/>
      <point x="394" y="538"/>
      <point x="330" y="593"/>
      <point x="330" y="633" type="curve" smooth="yes"/>
      <point x="330" y="653"/>
      <point x="334" y="668"/>
      <point x="345" y="687" type="curve"/>
      <point x="288" y="701"/>
      <point x="233" y="691"/>
      <point x="233" y="647" type="curve" smooth="yes"/>
      <point x="233" y="642" type="line" smooth="yes"/>
      <point x="233" y="594"/>
      <point x="269" y="538"/>
      <point x="269" y="460" type="curve" smooth="yes"/>
      <point x="269" y="393"/>
      <point x="224" y="360"/>
      <point x="116" y="360" type="curve" smooth="yes"/>
      <point x="110" y="360" type="line"/>
      <point x="110" y="350" type="line" smooth="yes"/>
      <point x="110" y="317"/>
      <point x="118" y="284"/>
      <point x="156" y="284" type="curve" smooth="yes"/>
      <point x="176" y="284" type="line" smooth="yes"/>
      <point x="295" y="284"/>
      <point x="394" y="343"/>
    </contour>
    <contour>
      <point x="394" y="166" type="curve" smooth="yes"/>
      <point x="394" y="264"/>
      <point x="301" y="314"/>
      <point x="180" y="314" type="curve" smooth="yes"/>
      <point x="136" y="314"/>
      <point x="123" y="336"/>
      <point x="110" y="354" type="curve"/>
      <point x="110" y="346" type="line" smooth="yes"/>
      <point x="110" y="288"/>
      <point x="131" y="238"/>
      <point x="165" y="238" type="curve" smooth="yes"/>
      <point x="167" y="238" type="line" smooth="yes"/>
      <point x="225" y="238"/>
      <point x="269" y="205"/>
      <point x="269" y="139" type="curve" smooth="yes"/>
      <point x="269" y="61"/>
      <point x="233" y="1"/>
      <point x="233" y="-48" type="curve" smooth="yes"/>
      <point x="233" y="-52" type="line" smooth="yes"/>
      <point x="233" y="-98"/>
      <point x="290" y="-107"/>
      <point x="346" y="-93" type="curve"/>
      <point x="334" y="-74"/>
      <point x="330" y="-58"/>
      <point x="330" y="-38" type="curve" smooth="yes"/>
      <point x="330" y="3"/>
      <point x="394" y="66"/>
    </contour>
    <contour>
      <point x="424" y="-38" type="curve" smooth="yes"/>
      <point x="371" y="-38"/>
      <point x="328" y="-26"/>
      <point x="303" y="10" type="curve"/>
      <point x="261" y="4"/>
      <point x="233" y="-27"/>
      <point x="233" y="-49" type="curve" smooth="yes"/>
      <point x="233" y="-54" type="line" smooth="yes"/>
      <point x="233" y="-127"/>
      <point x="296" y="-172"/>
      <point x="440" y="-172" type="curve" smooth="yes"/>
      <point x="445" y="-172" type="line" smooth="yes"/>
      <point x="491" y="-172"/>
      <point x="518" y="-118"/>
      <point x="518" y="-34" type="curve"/>
      <point x="518" y="-26" type="line"/>
      <point x="514" y="-26" type="line"/>
      <point x="483" y="-35"/>
      <point x="461" y="-38"/>
    </contour>
  </outline>
</glyph>
<glyph name="bar" format="1">
  <advance width="600"/>
  <unicode hex="007C"/>
  <outline>
    <contour>
      <point x="217" y="758" type="curve"/>
      <point x="226" y="723"/>
      <point x="229" y="686"/>
      <point x="229" y="646" type="curve" smooth="yes"/>
      <point x="229" y="-104" type="line" smooth="yes"/>
      <point x="229" y="-144"/>
      <point x="266" y="-163"/>
      <point x="338" y="-163" type="curve" smooth="yes"/>
      <point x="353" y="-163"/>
      <point x="363" y="-162"/>
      <point x="371" y="-161" type="curve"/>
      <point x="371" y="696" type="line" smooth="yes"/>
      <point x="371" y="721"/>
      <point x="367" y="734"/>
      <point x="356" y="745" type="curve" smooth="yes"/>
      <point x="342" y="759"/>
      <point x="320" y="765"/>
      <point x="276" y="765" type="curve" smooth="yes"/>
      <point x="254" y="765"/>
      <point x="238" y="763"/>
    </contour>
  </outline>
</glyph>
<glyph name="braceright" format="1">
  <advance width="600"/>
  <unicode hex="007D"/>
  <outline>
    <contour>
      <point x="159" y="-39" type="curve" smooth="yes"/>
      <point x="130" y="-39"/>
      <point x="105" y="-37"/>
      <point x="89" y="-31" type="curve"/>
      <point x="85" y="-31" type="line"/>
      <point x="81" y="-45"/>
      <point x="79" y="-57"/>
      <point x="79" y="-77" type="curve"/>
      <point x="79" y="-128"/>
      <point x="111" y="-172"/>
      <point x="150" y="-172" type="curve" smooth="yes"/>
      <point x="154" y="-172" type="line" smooth="yes"/>
      <point x="276" y="-172"/>
      <point x="367" y="-124"/>
      <point x="367" y="-52" type="curve" smooth="yes"/>
      <point x="367" y="-49" type="line" smooth="yes"/>
      <point x="367" y="-16"/>
      <point x="334" y="13"/>
      <point x="296" y="17" type="curve"/>
      <point x="265" y="-26"/>
      <point x="218" y="-39"/>
    </contour>
    <contour>
      <point x="206" y="165" type="curve" smooth="yes"/>
      <point x="206" y="60"/>
      <point x="270" y="5"/>
      <point x="270" y="-35" type="curve" smooth="yes"/>
      <point x="270" y="-55"/>
      <point x="266" y="-70"/>
      <point x="255" y="-89" type="curve"/>
      <point x="312" y="-103"/>
      <point x="367" y="-93"/>
      <point x="367" y="-49" type="curve" smooth="yes"/>
      <point x="367" y="-44" type="line" smooth="yes"/>
      <point x="367" y="4"/>
      <point x="331" y="60"/>
      <point x="331" y="138" type="curve" smooth="yes"/>
      <point x="331" y="205"/>
      <point x="376" y="238"/>
      <point x="484" y="238" type="curve" smooth="yes"/>
      <point x="490" y="238" type="line"/>
      <point x="490" y="248" type="line" smooth="yes"/>
      <point x="490" y="281"/>
      <point x="482" y="314"/>
      <point x="444" y="314" type="curve" smooth="yes"/>
      <point x="424" y="314" type="line" smooth="yes"/>
      <point x="305" y="314"/>
      <point x="206" y="255"/>
    </contour>
    <contour>
      <point x="206" y="432" type="curve" smooth="yes"/>
      <point x="206" y="334"/>
      <point x="299" y="284"/>
      <point x="420" y="284" type="curve" smooth="yes"/>
      <point x="464" y="284"/>
      <point x="477" y="262"/>
      <point x="490" y="244" type="curve"/>
      <point x="490" y="252" type="line" smooth="yes"/>
      <point x="490" y="310"/>
      <point x="469" y="360"/>
      <point x="435" y="360" type="curve" smooth="yes"/>
      <point x="433" y="360" type="line" smooth="yes"/>
      <point x="375" y="360"/>
      <point x="331" y="393"/>
      <point x="331" y="459" type="curve" smooth="yes"/>
      <point x="331" y="537"/>
      <point x="367" y="597"/>
      <point x="367" y="646" type="curve" smooth="yes"/>
      <point x="367" y="650" type="line" smooth="yes"/>
      <point x="367" y="696"/>
      <point x="310" y="705"/>
      <point x="254" y="691" type="curve"/>
      <point x="266" y="672"/>
      <point x="270" y="656"/>
      <point x="270" y="636" type="curve" smooth="yes"/>
      <point x="270" y="595"/>
      <point x="206" y="532"/>
    </contour>
    <contour>
      <point x="176" y="636" type="curve" smooth="yes"/>
      <point x="229" y="636"/>
      <point x="272" y="624"/>
      <point x="297" y="588" type="curve"/>
      <point x="339" y="594"/>
      <point x="367" y="625"/>
      <point x="367" y="647" type="curve" smooth="yes"/>
      <point x="367" y="652" type="line" smooth="yes"/>
      <point x="367" y="725"/>
      <point x="304" y="770"/>
      <point x="160" y="770" type="curve" smooth="yes"/>
      <point x="155" y="770" type="line" smooth="yes"/>
      <point x="109" y="770"/>
      <point x="82" y="716"/>
      <point x="82" y="632" type="curve"/>
      <point x="82" y="624" type="line"/>
      <point x="86" y="624" type="line"/>
      <point x="117" y="633"/>
      <point x="139" y="636"/>
    </contour>
  </outline>
</glyph>
<glyph name="exclamdown" format="1">
  <advance width="600"/>
  <unicode hex="00A1"/>
  <outline>
    <contour>
      <point x="246" y="254" type="line"/>
      <point x="232" y="186"/>
      <point x="220" y="84"/>
      <point x="220" y="16" type="curve"/>
      <point x="220" y="-111" type="line" smooth="yes"/>
      <point x="220" y="-156"/>
      <point x="268" y="-175"/>
      <point x="333" y="-175" type="curve" smooth="yes"/>
      <point x="356" y="-175"/>
      <point x="373" y="-174"/>
      <point x="393" y="-169" type="curve"/>
      <point x="384" y="-133"/>
      <point x="381" y="-96"/>
      <point x="381" y="-57" type="curve" smooth="yes"/>
      <point x="381" y="11" type="line"/>
      <point x="381" y="98"/>
      <point x="369" y="205"/>
      <point x="349" y="226" type="curve" smooth="yes"/>
      <point x="331" y="243"/>
      <point x="302" y="254"/>
      <point x="259" y="254" type="curve"/>
    </contour>
    <contour>
      <point x="203" y="538" type="curve"/>
      <point x="203" y="412" type="line" smooth="yes"/>
      <point x="203" y="354"/>
      <point x="264" y="343"/>
      <point x="323" y="343" type="curve" smooth="yes"/>
      <point x="346" y="343"/>
      <point x="374" y="345"/>
      <point x="397" y="350" type="curve"/>
      <point x="397" y="476" type="line" smooth="yes"/>
      <point x="397" y="534"/>
      <point x="336" y="545"/>
      <point x="277" y="545" type="curve" smooth="yes"/>
      <point x="254" y="545"/>
      <point x="226" y="542"/>
    </contour>
  </outline>
</glyph>
<glyph name="cent" format="1">
  <advance width="600"/>
  <unicode hex="00A2"/>
  <outline>
    <contour>
      <point x="371" y="382" type="line"/>
      <point x="434" y="681" type="line" smooth="yes"/>
      <point x="449" y="746"/>
      <point x="422" y="787"/>
      <point x="355" y="787" type="curve" smooth="yes"/>
      <point x="341" y="787"/>
      <point x="318" y="783"/>
      <point x="302" y="778" type="curve"/>
      <point x="313" y="750"/>
      <point x="318" y="723"/>
      <point x="318" y="680" type="curve"/>
      <point x="318" y="428" type="line" smooth="yes"/>
      <point x="318" y="399"/>
      <point x="344" y="382"/>
      <point x="367" y="382" type="curve" smooth="yes"/>
    </contour>
    <contour>
      <point x="318" y="312" type="line"/>
      <point x="255" y="13" type="line" smooth="yes"/>
      <point x="240" y="-52"/>
      <point x="267" y="-93"/>
      <point x="334" y="-93" type="curve" smooth="yes"/>
      <point x="348" y="-93"/>
      <point x="371" y="-89"/>
      <point x="386" y="-84" type="curve"/>
      <point x="376" y="-56"/>
      <point x="371" y="-29"/>
      <point x="371" y="14" type="curve"/>
      <point x="371" y="266" type="line" smooth="yes"/>
      <point x="371" y="295"/>
      <point x="345" y="312"/>
      <point x="322" y="312" type="curve" smooth="yes"/>
    </contour>
    <contour>
      <point x="356" y="630" type="curve" smooth="yes"/>
      <point x="178" y="630"/>
      <point x="55" y="508"/>
      <point x="55" y="320" type="curve" smooth="yes"/>
      <point x="55" y="309" type="line" smooth="yes"/>
      <point x="55" y="169"/>
      <point x="179" y="70"/>
      <point x="321" y="70" type="curve" smooth="yes"/>
      <point x="343" y="70"/>
      <point x="351" y="86"/>
      <point x="352" y="124" type="curve"/>
      <point x="213" y="175"/>
      <point x="188" y="244"/>
      <point x="188" y="311" type="curve" smooth="yes"/>
      <point x="188" y="320" type="line" smooth="yes"/>
      <point x="188" y="422"/>
      <point x="252" y="494"/>
      <point x="347" y="494" type="curve" smooth="yes"/>
      <point x="417" y="494"/>
      <point x="456" y="476"/>
      <point x="507" y="432" type="curve"/>
      <point x="511" y="432" type="line"/>
      <point x="521" y="459"/>
      <point x="525" y="483"/>
      <point x="525" y="513" type="curve" smooth="yes"/>
      <point x="525" y="552"/>
      <point x="519" y="572"/>
      <point x="501" y="589" type="curve" smooth="yes"/>
      <point x="477" y="613"/>
      <point x="427" y="630"/>
    </contour>
    <contour>
      <point x="157" y="301" type="curve"/>
      <point x="91" y="208"/>
      <point x="190" y="70"/>
      <point x="321" y="70" type="curve" smooth="yes"/>
      <point x="425" y="70"/>
      <point x="474" y="91"/>
      <point x="499" y="116" type="curve" smooth="yes"/>
      <point x="518" y="135"/>
      <point x="532" y="179"/>
      <point x="532" y="213" type="curve"/>
      <point x="532" y="233"/>
      <point x="531" y="244"/>
      <point x="528" y="257" type="curve"/>
      <point x="524" y="257" type="line"/>
      <point x="469" y="217"/>
      <point x="414" y="198"/>
      <point x="330" y="198" type="curve" smooth="yes"/>
      <point x="242" y="198"/>
      <point x="205" y="220"/>
    </contour>
  </outline>
</glyph>
<glyph name="sterling" format="1">
  <advance width="600"/>
  <unicode hex="00A3"/>
  <outline>
    <contour>
      <point x="336" y="587" type="curve" smooth="yes"/>
      <point x="421" y="587"/>
      <point x="480" y="573"/>
      <point x="532" y="518" type="curve"/>
      <point x="536" y="518" type="line"/>
      <point x="542" y="538"/>
      <point x="544" y="555"/>
      <point x="544" y="581" type="curve" smooth="yes"/>
      <point x="544" y="631"/>
      <point x="536" y="653"/>
      <point x="511" y="678" type="curve" smooth="yes"/>
      <point x="485" y="704"/>
      <point x="423" y="720"/>
      <point x="335" y="720" type="curve" smooth="yes"/>
      <point x="172" y="720"/>
      <point x="83" y="642"/>
      <point x="83" y="542" type="curve" smooth="yes"/>
      <point x="83" y="528" type="line" smooth="yes"/>
      <point x="83" y="496"/>
      <point x="125" y="485"/>
      <point x="201" y="480" type="curve"/>
      <point x="201" y="549"/>
      <point x="243" y="587"/>
    </contour>
    <contour>
      <point x="83" y="528" type="curve" smooth="yes"/>
      <point x="83" y="411"/>
      <point x="175" y="317"/>
      <point x="175" y="199" type="curve" smooth="yes"/>
      <point x="175" y="150"/>
      <point x="136" y="117"/>
      <point x="67" y="117" type="curve" smooth="yes"/>
      <point x="61" y="117"/>
      <point x="57" y="117"/>
      <point x="53" y="119" type="curve"/>
      <point x="49" y="119" type="line"/>
      <point x="45" y="101"/>
      <point x="43" y="88"/>
      <point x="43" y="68" type="curve" smooth="yes"/>
      <point x="43" y="11"/>
      <point x="60" y="-19"/>
      <point x="103" y="-19" type="curve" smooth="yes"/>
      <point x="110" y="-19" type="line" smooth="yes"/>
      <point x="211" y="-19"/>
      <point x="296" y="54"/>
      <point x="296" y="173" type="curve" smooth="yes"/>
      <point x="296" y="289"/>
      <point x="222" y="394"/>
      <point x="222" y="509" type="curve" smooth="yes"/>
      <point x="222" y="547"/>
      <point x="229" y="579"/>
      <point x="257" y="618" type="curve"/>
      <point x="145" y="618"/>
      <point x="83" y="583"/>
    </contour>
    <contour>
      <point x="204" y="89" type="curve"/>
      <point x="297" y="11"/>
      <point x="369" y="-19"/>
      <point x="468" y="-19" type="curve" smooth="yes"/>
      <point x="474" y="-19" type="line" smooth="yes"/>
      <point x="537" y="-19"/>
      <point x="560" y="15"/>
      <point x="560" y="90" type="curve"/>
      <point x="560" y="117"/>
      <point x="557" y="141"/>
      <point x="552" y="159" type="curve"/>
      <point x="548" y="159" type="line"/>
      <point x="521" y="135"/>
      <point x="492" y="123"/>
      <point x="442" y="123" type="curve" smooth="yes"/>
      <point x="372" y="123"/>
      <point x="315" y="134"/>
      <point x="222" y="176" type="curve"/>
      <point x="193" y="144"/>
      <point x="188" y="108"/>
    </contour>
    <contour>
      <point x="50" y="391" type="line"/>
      <point x="50" y="386"/>
      <point x="50" y="380"/>
      <point x="50" y="374" type="curve" smooth="yes"/>
      <point x="50" y="322"/>
      <point x="57" y="292"/>
      <point x="73" y="276" type="curve" smooth="yes"/>
      <point x="86" y="263"/>
      <point x="104" y="259"/>
      <point x="143" y="259" type="curve" smooth="yes"/>
      <point x="461" y="259" type="line"/>
      <point x="464" y="276"/>
      <point x="467" y="296"/>
      <point x="467" y="312" type="curve" smooth="yes"/>
      <point x="467" y="371"/>
      <point x="452" y="391"/>
      <point x="402" y="391" type="curve" smooth="yes"/>
    </contour>
  </outline>
</glyph>
<glyph name="yen" format="1">
  <advance width="600"/>
  <unicode hex="00A5"/>
  <outline>
    <contour>
      <point x="11" y="421" type="line"/>
      <point x="11" y="416"/>
      <point x="11" y="410"/>
      <point x="11" y="404" type="curve" smooth="yes"/>
      <point x="11" y="361"/>
      <point x="20" y="337"/>
      <point x="34" y="323" type="curve" smooth="yes"/>
      <point x="47" y="310"/>
      <point x="65" y="305"/>
      <point x="104" y="305" type="curve"/>
      <point x="196" y="305" type="line"/>
      <point x="199" y="323"/>
      <point x="202" y="343"/>
      <point x="202" y="359" type="curve" smooth="yes"/>
      <point x="202" y="404"/>
      <point x="187" y="421"/>
      <point x="137" y="421" type="curve"/>
    </contour>
    <contour>
      <point x="369" y="421" type="line"/>
      <point x="363" y="403"/>
      <point x="359" y="388"/>
      <point x="359" y="365" type="curve" smooth="yes"/>
      <point x="359" y="332"/>
      <point x="386" y="305"/>
      <point x="414" y="305" type="curve"/>
      <point x="583" y="305" type="line"/>
      <point x="587" y="323"/>
      <point x="589" y="343"/>
      <point x="589" y="359" type="curve" smooth="yes"/>
      <point x="589" y="404"/>
      <point x="574" y="421"/>
      <point x="525" y="421" type="curve"/>
    </contour>
    <contour>
      <point x="578" y="101" type="line"/>
      <point x="580" y="109"/>
      <point x="581" y="120"/>
      <point x="581" y="129" type="curve" smooth="yes"/>
      <point x="581" y="164"/>
      <point x="572" y="185"/>
      <point x="557" y="200" type="curve" smooth="yes"/>
      <point x="544" y="213"/>
      <point x="527" y="217"/>
      <point x="488" y="217" type="curve"/>
      <point x="25" y="217" type="line"/>
      <point x="22" y="199"/>
      <point x="19" y="180"/>
      <point x="19" y="163" type="curve" smooth="yes"/>
      <point x="19" y="117"/>
      <point x="34" y="101"/>
      <point x="84" y="101" type="curve"/>
    </contour>
    <contour>
      <point x="47" y="710" type="line"/>
      <point x="73" y="470"/>
      <point x="122" y="331"/>
      <point x="217" y="236" type="curve"/>
      <point x="252" y="201"/>
      <point x="282" y="197"/>
      <point x="307" y="197" type="curve"/>
      <point x="348" y="197"/>
      <point x="372" y="211"/>
      <point x="372" y="278" type="curve"/>
      <point x="265" y="348"/>
      <point x="221" y="436"/>
      <point x="193" y="665" type="curve"/>
      <point x="190" y="691"/>
      <point x="127" y="710"/>
      <point x="68" y="710" type="curve" smooth="yes"/>
    </contour>
    <contour>
      <point x="415" y="710" type="line"/>
      <point x="391" y="474"/>
      <point x="358" y="384"/>
      <point x="254" y="295" type="curve"/>
      <point x="228" y="274"/>
      <point x="257" y="197"/>
      <point x="307" y="197" type="curve"/>
      <point x="345" y="197" type="line"/>
      <point x="448" y="287"/>
      <point x="528" y="446"/>
      <point x="548" y="644" type="curve"/>
      <point x="552" y="682"/>
      <point x="494" y="710"/>
      <point x="437" y="710" type="curve"/>
    </contour>
    <contour>
      <point x="383" y="-4" type="curve"/>
      <point x="374" y="32"/>
      <point x="371" y="69"/>
      <point x="371" y="108" type="curve" smooth="yes"/>
      <point x="371" y="251" type="line" smooth="yes"/>
      <point x="371" y="286"/>
      <point x="310" y="311"/>
      <point x="229" y="311" type="curve"/>
      <point x="229" y="58" type="line" smooth="yes"/>
      <point x="229" y="34"/>
      <point x="233" y="21"/>
      <point x="244" y="10" type="curve" smooth="yes"/>
      <point x="258" y="-5"/>
      <point x="280" y="-10"/>
      <point x="324" y="-10" type="curve" smooth="yes"/>
      <point x="346" y="-10"/>
      <point x="362" y="-8"/>
    </contour>
  </outline>
</glyph>
<glyph name="brokenbar" format="1">
  <advance width="600"/>
  <unicode hex="00A6"/>
  <outline>
    <contour>
      <point x="217" y="758" type="curve"/>
      <point x="226" y="723"/>
      <point x="229" y="686"/>
      <point x="229" y="646" type="curve" smooth="yes"/>
      <point x="229" y="426" type="line" smooth="yes"/>
      <point x="229" y="386"/>
      <point x="266" y="367"/>
      <point x="338" y="367" type="curve" smooth="yes"/>
      <point x="353" y="367"/>
      <point x="363" y="368"/>
      <point x="371" y="369" type="curve"/>
      <point x="371" y="696" type="line" smooth="yes"/>
      <point x="371" y="721"/>
      <point x="367" y="734"/>
      <point x="356" y="745" type="curve" smooth="yes"/>
      <point x="342" y="759"/>
      <point x="320" y="765"/>
      <point x="276" y="765" type="curve" smooth="yes"/>
      <point x="254" y="765"/>
      <point x="238" y="763"/>
    </contour>
    <contour>
      <point x="229" y="228" type="curve"/>
      <point x="229" y="-104" type="line"/>
      <point x="229" y="-144"/>
      <point x="266" y="-163"/>
      <point x="338" y="-163" type="curve" smooth="yes"/>
      <point x="353" y="-163"/>
      <point x="363" y="-162"/>
      <point x="371" y="-161" type="curve"/>
      <point x="371" y="170" type="line" smooth="yes"/>
      <point x="371" y="217"/>
      <point x="345" y="235"/>
      <point x="281" y="235" type="curve" smooth="yes"/>
      <point x="261" y="235"/>
      <point x="243" y="233"/>
    </contour>
  </outline>
</glyph>
<glyph name="section" format="1">
  <advance width="600"/>
  <unicode hex="00A7"/>
  <outline>
    <contour>
      <point x="376" y="720" type="curve" smooth="yes"/>
      <point x="214" y="720"/>
      <point x="73" y="578"/>
      <point x="73" y="445" type="curve" smooth="yes"/>
      <point x="73" y="433" type="line" smooth="yes"/>
      <point x="73" y="406"/>
      <point x="140" y="374"/>
      <point x="214" y="373" type="curve"/>
      <point x="207" y="396"/>
      <point x="206" y="422"/>
      <point x="206" y="444" type="curve" smooth="yes"/>
      <point x="206" y="512"/>
      <point x="300" y="587"/>
      <point x="377" y="587" type="curve" smooth="yes"/>
      <point x="430" y="587"/>
      <point x="458" y="556"/>
      <point x="458" y="506" type="curve"/>
      <point x="499" y="506"/>
      <point x="521" y="538"/>
      <point x="521" y="556" type="curve" smooth="yes"/>
      <point x="521" y="614"/>
      <point x="510" y="646"/>
      <point x="481" y="675" type="curve" smooth="yes"/>
      <point x="453" y="702"/>
      <point x="418" y="720"/>
    </contour>
    <contour>
      <point x="389" y="339" type="curve" smooth="yes"/>
      <point x="296" y="373" type="line" smooth="yes"/>
      <point x="224" y="399"/>
      <point x="206" y="413"/>
      <point x="206" y="444" type="curve" smooth="yes"/>
      <point x="206" y="472"/>
      <point x="209" y="492"/>
      <point x="216" y="513" type="curve"/>
      <point x="140" y="511"/>
      <point x="73" y="491"/>
      <point x="73" y="433" type="curve" smooth="yes"/>
      <point x="73" y="372"/>
      <point x="104" y="319"/>
      <point x="249" y="266" type="curve" smooth="yes"/>
      <point x="336" y="233" type="line" smooth="yes"/>
      <point x="400" y="209"/>
      <point x="417" y="191"/>
      <point x="417" y="149" type="curve" smooth="yes"/>
      <point x="417" y="144" type="line" smooth="yes"/>
      <point x="417" y="111"/>
      <point x="410" y="94"/>
      <point x="392" y="70" type="curve"/>
      <point x="404" y="56"/>
      <point x="426" y="47"/>
      <point x="446" y="47" type="curve" smooth="yes"/>
      <point x="487" y="47"/>
      <point x="546" y="85"/>
      <point x="546" y="163" type="curve" smooth="yes"/>
      <point x="546" y="168" type="line" smooth="yes"/>
      <point x="546" y="225"/>
      <point x="516" y="293"/>
    </contour>
    <contour>
      <point x="389" y="109" type="curve" smooth="yes"/>
      <point x="296" y="142" type="line" smooth="yes"/>
      <point x="224" y="169"/>
      <point x="206" y="185"/>
      <point x="206" y="223" type="curve" smooth="yes"/>
      <point x="206" y="230" type="line" smooth="yes"/>
      <point x="206" y="252"/>
      <point x="216" y="281"/>
      <point x="236" y="303" type="curve"/>
      <point x="221" y="313"/>
      <point x="206" y="318"/>
      <point x="182" y="318" type="curve" smooth="yes"/>
      <point x="121" y="318"/>
      <point x="73" y="260"/>
      <point x="73" y="203" type="curve" smooth="yes"/>
      <point x="73" y="196" type="line" smooth="yes"/>
      <point x="73" y="134"/>
      <point x="104" y="88"/>
      <point x="255" y="33" type="curve" smooth="yes"/>
      <point x="346" y="-1" type="line" smooth="yes"/>
      <point x="413" y="-25"/>
      <point x="429" y="-58"/>
      <point x="429" y="-124" type="curve" smooth="yes"/>
      <point x="429" y="-128"/>
      <point x="429" y="-132"/>
      <point x="429" y="-136" type="curve"/>
      <point x="481" y="-135"/>
      <point x="546" y="-94"/>
      <point x="546" y="-58" type="curve"/>
      <point x="546" y="-5"/>
      <point x="516" y="62"/>
    </contour>
    <contour>
      <point x="300" y="-249" type="curve" smooth="yes"/>
      <point x="466" y="-249"/>
      <point x="546" y="-181"/>
      <point x="546" y="-72" type="curve" smooth="yes"/>
      <point x="546" y="-58" type="line" smooth="yes"/>
      <point x="546" y="-41"/>
      <point x="499" y="-13"/>
      <point x="465" y="-11" type="curve"/>
      <point x="465" y="-15"/>
      <point x="465" y="-18"/>
      <point x="465" y="-23" type="curve" smooth="yes"/>
      <point x="465" y="-80"/>
      <point x="396" y="-116"/>
      <point x="300" y="-116" type="curve" smooth="yes"/>
      <point x="196" y="-116"/>
      <point x="122" y="-86"/>
      <point x="65" y="-29" type="curve"/>
      <point x="61" y="-29" type="line"/>
      <point x="57" y="-43"/>
      <point x="55" y="-62"/>
      <point x="55" y="-86" type="curve" smooth="yes"/>
      <point x="55" y="-136"/>
      <point x="68" y="-173"/>
      <point x="88" y="-192" type="curve" smooth="yes"/>
      <point x="121" y="-226"/>
      <point x="206" y="-249"/>
    </contour>
    <contour>
      <point x="521" y="439" type="curve"/>
      <point x="521" y="556" type="line" smooth="yes"/>
      <point x="521" y="629"/>
      <point x="473" y="648"/>
      <point x="409" y="644" type="curve"/>
      <point x="396" y="603"/>
      <point x="388" y="546"/>
      <point x="388" y="514" type="curve" smooth="yes"/>
      <point x="388" y="492" type="line" smooth="yes"/>
      <point x="388" y="475"/>
      <point x="393" y="461"/>
      <point x="401" y="452" type="curve" smooth="yes"/>
      <point x="414" y="440"/>
      <point x="433" y="433"/>
      <point x="470" y="433" type="curve" smooth="yes"/>
      <point x="490" y="433"/>
      <point x="508" y="435"/>
    </contour>
  </outline>
</glyph>
<glyph name="dieresis" format="1">
  <advance width="600"/>
  <unicode hex="00A8"/>
  <outline>
    <contour>
      <point x="263" y="622" type="curve"/>
      <point x="263" y="721" type="line" smooth="yes"/>
      <point x="263" y="761"/>
      <point x="220" y="767"/>
      <point x="178" y="767" type="curve" smooth="yes"/>
      <point x="161" y="767"/>
      <point x="139" y="766"/>
      <point x="120" y="764" type="curve"/>
      <point x="120" y="667" type="line" smooth="yes"/>
      <point x="120" y="627"/>
      <point x="164" y="619"/>
      <point x="204" y="619" type="curve" smooth="yes"/>
      <point x="222" y="619"/>
      <point x="244" y="619"/>
    </contour>
    <contour>
      <point x="480" y="622" type="curve"/>
      <point x="480" y="721" type="line" smooth="yes"/>
      <point x="480" y="761"/>
      <point x="436" y="767"/>
      <point x="395" y="767" type="curve" smooth="yes"/>
      <point x="378" y="767"/>
      <point x="356" y="766"/>
      <point x="337" y="764" type="curve"/>
      <point x="337" y="667" type="line" smooth="yes"/>
      <point x="337" y="627"/>
      <point x="381" y="619"/>
      <point x="421" y="619" type="curve" smooth="yes"/>
      <point x="439" y="619"/>
      <point x="461" y="619"/>
    </contour>
  </outline>
</glyph>
